<svg width="1100" height="620" viewBox="0 0 1100 620" fill="none" xmlns="http://www.w3.org/2000/svg">
  <defs>
    <filter id="shadow" x="355" y="73" width="725" height="470" filterUnits="userSpaceOnUse" color-interpolation-filters="sRGB">
      <feDropShadow dx="0" dy="18" stdDeviation="20" flood-color="#1183D0" flood-opacity="0.12"/>
    </filter>
  </defs>

  <g opacity="0.95">
    <path d="M80 120C110 120 138 124 160 132L215 141" stroke="#1183D0" stroke-width="2.2" stroke-linecap="round"/>
    <path d="M175 208L440 244C458 246 472 262 472 280V319C472 341 489 358 511 358H548" stroke="#1183D0" stroke-width="2.2" stroke-linecap="round"/>
    <path d="M28 472V448C28 421 50 399 77 399H146L224 407" stroke="#1183D0" stroke-width="2.2" stroke-linecap="round"/>
    <path d="M394 410H334C318 410 305 423 305 439V505" stroke="#1183D0" stroke-width="2.2" stroke-linecap="round"/>
    <path d="M144 151C128 163 120 178 120 194V210" stroke="#1183D0" stroke-width="2.2" stroke-linecap="round" stroke-dasharray="6 8"/>
    <path d="M510 248L560 252" stroke="#1183D0" stroke-width="2.2" stroke-linecap="round"/>
    <path d="M214 406L284 414" stroke="#1183D0" stroke-width="2.2" stroke-linecap="round"/>
  </g>

  <text x="72" y="116" fill="#1183D0" font-size="24" font-style="italic" font-family="Georgia, 'Times New Roman', serif">Start</text>

  <rect x="202" y="126" width="124" height="40" rx="20" transform="rotate(8 202 126)" fill="#EAF4FD"/>
  <text x="236" y="150" transform="rotate(8 236 150)" fill="#1183D0" font-size="18" font-family="Inter, Arial, sans-serif">Dashboard</text>

  <rect x="418" y="155" width="140" height="40" rx="20" transform="rotate(6 418 155)" fill="#EAF4FD"/>
  <text x="445" y="179" transform="rotate(6 445 179)" fill="#1183D0" font-size="18" font-family="Inter, Arial, sans-serif">People List</text>

  <rect x="76" y="240" width="150" height="40" rx="10" transform="rotate(9 76 240)" fill="#EAF4FD"/>
  <text x="101" y="266" transform="rotate(9 101 266)" fill="#1183D0" font-size="18" font-family="Inter, Arial, sans-serif">Add New Worker</text>

  <rect x="274" y="274" width="128" height="42" rx="21" transform="rotate(9 274 274)" fill="#EAF4FD"/>
  <text x="318" y="301" transform="rotate(9 318 301)" fill="#1183D0" font-size="18" font-family="Inter, Arial, sans-serif">Info</text>

  <rect x="510" y="301" width="104" height="40" rx="10" transform="rotate(8 510 301)" fill="#EAF4FD"/>
  <text x="542" y="325" transform="rotate(8 542 325)" fill="#1183D0" font-size="18" font-family="Inter, Arial, sans-serif">Save</text>

  <rect x="450" y="375" width="122" height="106" rx="12" transform="rotate(8 450 375)" fill="#D6EBFC"/>
  <text x="477" y="412" transform="rotate(8 477 412)" fill="#1183D0" font-size="18" font-family="Inter, Arial, sans-serif">Review</text>
  <text x="473" y="439" transform="rotate(8 473 439)" fill="#1183D0" font-size="18" font-family="Inter, Arial, sans-serif">Tasks &amp;</text>
  <text x="472" y="466" transform="rotate(8 472 466)" fill="#1183D0" font-size="18" font-family="Inter, Arial, sans-serif">Confirm</text>

  <circle cx="146" cy="400" r="16" fill="#1183D0"/>
  <path d="M139 399L145 405L155 392" stroke="white" stroke-width="2.5" stroke-linecap="round" stroke-linejoin="round"/>

  <path d="M258 438L308 390L356 448L310 495L258 438Z" fill="#EAF4FD"/>
  <text x="292" y="421" fill="#1183D0" font-size="18" font-family="Inter, Arial, sans-serif">Limit</text>
  <text x="280" y="447" fill="#1183D0" font-size="18" font-family="Inter, Arial, sans-serif">Access?</text>

  <g filter="url(#shadow)">
    <rect x="472" y="105" width="592" height="408" rx="26" fill="white"/>
  </g>
  <rect x="472" y="105" width="592" height="50" rx="26" fill="#EDEDED"/>
  <path d="M472 131C472 116.641 483.641 105 498 105H1038C1052.36 105 1064 116.641 1064 131V155H472V131Z" fill="#EDEDED"/>

  <rect x="495" y="118" width="40" height="18" rx="6" fill="#1183D0"/>
  <rect x="557" y="126" width="28" height="4" rx="2" fill="#979797"/>
  <rect x="607" y="126" width="28" height="4" rx="2" fill="#979797"/>
  <rect x="657" y="126" width="28" height="4" rx="2" fill="#979797"/>
  <rect x="707" y="126" width="28" height="4" rx="2" fill="#979797"/>
  <rect x="757" y="126" width="28" height="4" rx="2" fill="#979797"/>
  <rect x="807" y="126" width="28" height="4" rx="2" fill="#979797"/>
  <rect x="857" y="126" width="28" height="4" rx="2" fill="#979797"/>

  <rect x="520" y="178" width="56" height="4" rx="2" fill="#222"/>
  <rect x="520" y="196" width="60" height="2" rx="1" fill="#8BC3F3"/>
  <rect x="520" y="218" width="56" height="4" rx="2" fill="#444"/>
  <rect x="520" y="236" width="214" height="4" rx="2" fill="#444"/>
  <rect x="1012" y="228" width="48" height="4" rx="2" fill="#444"/>

  <rect x="520" y="262" width="504" height="24" rx="4" fill="white" stroke="#D8D8D8"/>
  <text x="530" y="278" fill="#666" font-size="11" font-family="Inter, Arial, sans-serif">Search by name, role, or branch</text>

  <rect x="520" y="298" width="504" height="28" rx="3" fill="#F7F9FB"/>
  <text x="532" y="316" fill="#111" font-size="10" font-weight="700" font-family="Inter, Arial, sans-serif">NAME</text>
  <text x="617" y="316" fill="#111" font-size="10" font-weight="700" font-family="Inter, Arial, sans-serif">ROLE</text>
  <text x="711" y="316" fill="#111" font-size="10" font-weight="700" font-family="Inter, Arial, sans-serif">BRANCH LOCATION</text>
  <text x="818" y="316" fill="#111" font-size="10" font-weight="700" font-family="Inter, Arial, sans-serif">SIGN IN</text>
  <text x="938" y="316" fill="#111" font-size="10" font-weight="700" font-family="Inter, Arial, sans-serif">STATUS</text>

  <g fill="#2C2C2C" font-family="Inter, Arial, sans-serif">
    <g>
      <line x1="520" y1="364" x2="1024" y2="364" stroke="#D6DCE3"/>
      <text x="532" y="350" font-size="11" font-weight="700">Hanks, Tom</text>
      <text x="532" y="363" font-size="10" fill="#666">tomhanks@mail.com</text>
      <text x="617" y="350" font-size="11">Billing</text>
      <text x="711" y="350" font-size="11">Company</text>
      <text x="818" y="348" font-size="11">Last: Sep 12, 2022</text>
      <text x="818" y="361" font-size="11">Count: 12</text>
      <text x="938" y="353" font-size="11">Active</text>
    </g>
    <g>
      <line x1="520" y1="434" x2="1024" y2="434" stroke="#D6DCE3"/>
      <text x="532" y="390" font-size="11" font-weight="700">Pons, Tamara</text>
      <text x="532" y="403" font-size="10" fill="#666">tamaraponss@mail.com</text>
      <text x="617" y="390" font-size="11">Reporting and Form</text>
      <text x="617" y="403" font-size="11">Admin</text>
      <text x="711" y="396" font-size="11">Company</text>
      <text x="938" y="392" font-size="11">Invitation pending</text>
      <text x="938" y="405" font-size="11">Sent: Dec 05, 2024 at 10:39 am</text>
    </g>
    <g>
      <line x1="520" y1="504" x2="1024" y2="504" stroke="#D6DCE3"/>
      <text x="532" y="460" font-size="11" font-weight="700">Laczko, Billie</text>
      <text x="532" y="473" font-size="10" fill="#666">laczkobillie@mail.com</text>
      <text x="617" y="460" font-size="11">Billing</text>
      <text x="711" y="466" font-size="11">Company</text>
      <text x="818" y="458" font-size="11">Last: Sep 12, 2022</text>
      <text x="818" y="471" font-size="11">Count: 12</text>
      <text x="938" y="463" font-size="11">Active</text>
    </g>
    <g>
      <text x="532" y="530" font-size="11" font-weight="700">Davila, Ryan</text>
      <text x="532" y="543" font-size="10" fill="#666">davilaryan@mail.com</text>
      <text x="617" y="530" font-size="11">Billing</text>
      <text x="711" y="536" font-size="11">Company</text>
      <text x="818" y="528" font-size="11">Last: Sep 12, 2022</text>
      <text x="818" y="541" font-size="11">Count: 12</text>
      <text x="938" y="533" font-size="11">Active</text>
    </g>
  </g>
</svg>
