<svg width="789" height="1141" viewBox="0 0 789 1141" fill="none" xmlns="http://www.w3.org/2000/svg">
<g opacity="0.5" filter="url(#filter0_f_20634_10838)">
<path d="M146.913 703.369C109.105 591.796 97.1725 343.677 188.744 302.214C280.315 260.752 440.715 441.648 478.522 553.22C516.329 664.792 472.744 788.851 381.173 830.314C289.602 871.776 184.72 814.941 146.913 703.369Z" fill="#1183D0" fill-opacity="0.6"/>
</g>
<path d="M14.2606 503.931C23.0208 474.564 77.3301 378.937 168.933 434.304C249.673 483.105 137.097 714.521 245.475 735.899C302.86 747.218 373.243 703.406 356.02 640.493C345.686 602.745 345.817 497.037 466.314 503.931C586.811 510.825 575.275 629.156 555.656 704.139C543.006 776.878 600.328 836.967 713.389 814.038" stroke="url(#paint0_linear_20634_10838)" stroke-width="1.87045" stroke-dasharray="5.61 5.61"/>
<path d="M297.376 654.602L301.819 632.255L437.501 723.898L435.029 735.358L304.934 769.219L297.376 654.602Z" fill="#9DB1C1"/>
<path d="M380.603 554.44C376.822 529.73 376.378 455.024 376.629 420.76L509.145 545.963L510.24 562.566C498.209 559.594 486.927 559.8 454.862 562.991C429.21 565.543 397.183 569.305 384.376 570.866C382.379 566.695 381.029 558.177 380.603 554.44Z" fill="#9DB1C1"/>
<path d="M511.038 395.221L376.181 397.659C376.111 445.538 383.057 519.044 383.687 535.947C384.318 552.85 390.167 560.802 390.167 560.802L522.211 548.329C520.916 545.008 518.092 536.444 517.155 528.76C516.218 521.075 512.687 436.532 511.038 395.221Z" fill="white"/>
<path d="M238.426 657.952L239.785 654.097L73.4395 603.205L78.8786 685.686L238.426 657.952Z" fill="#9DB1C1"/>
<path d="M244.091 474.685L67.8818 486.305C68.3998 494.16 69.9186 523.718 71.8497 579.104C73.7807 634.49 81.1773 666.169 84.6342 675.086C123.573 665.203 218.551 655.676 261.173 652.148C261.714 644.044 253.415 616.081 252.356 600.013L244.091 474.685Z" fill="white"/>
<path d="M301.06 645.214C300.038 636.245 304.891 613.583 307.445 603.374L434.963 579.365C434.675 599.466 434.917 643.918 438.189 660.916C441.462 677.914 440.758 713.463 439.997 729.113L308.583 759.295C306.501 725.006 302.082 654.184 301.06 645.214Z" fill="white"/>
<circle cx="88.4906" cy="524.376" r="28.448" transform="rotate(-3.77285 88.4906 524.376)" fill="#9ECAEB"/>
<circle cx="77.4561" cy="519.164" r="3.556" transform="rotate(-3.77285 77.4561 519.164)" fill="#06578D"/>
<circle cx="98.7461" cy="517.76" r="3.556" transform="rotate(-3.77285 98.7461 517.76)" fill="#06578D"/>
<path d="M96.2114 533.37C95.953 529.45 92.5662 526.483 88.6469 526.741C84.7275 527 81.7598 530.386 82.0183 534.306" stroke="#06578D" stroke-width="1.26982"/>
<circle cx="393.957" cy="435.755" r="28.448" transform="rotate(-3.77285 393.957 435.755)" fill="#9ECAEB"/>
<circle cx="382.922" cy="430.543" r="3.556" transform="rotate(-3.77285 382.922 430.543)" fill="#06578D"/>
<circle cx="404.212" cy="429.139" r="3.556" transform="rotate(-3.77285 404.212 429.139)" fill="#06578D"/>
<path d="M401.21 437.653C401.468 441.572 398.5 444.959 394.581 445.217C390.662 445.476 387.275 442.508 387.016 438.589" stroke="#06578D" stroke-width="1.26982"/>
<circle cx="427.884" cy="623.941" r="28.448" transform="rotate(-3.77285 427.884 623.941)" fill="#9ECAEB"/>
<circle cx="416.849" cy="618.729" r="3.556" transform="rotate(-3.77285 416.849 618.729)" fill="#06578D"/>
<circle cx="438.139" cy="617.325" r="3.556" transform="rotate(-3.77285 438.139 617.325)" fill="#06578D"/>
<path d="M423.058 632.328L434.841 631.551" stroke="#06578D" stroke-width="1.26982"/>
<path d="M123.549 554.816C123.571 554.701 123.688 554.216 123.994 553.108C124.439 551.491 125.131 549.946 125.758 548.889C126.459 547.71 127.051 547.429 127.6 547.165C127.842 547.049 128.13 547.051 128.429 547.057C129.638 547.08 130.966 549.063 131.724 550.974C132.222 552.23 132.856 554.653 133.3 556.543C133.744 558.434 133.884 559.748 133.934 560.573C134.049 562.473 133.09 563.89 132.322 564.687C131.929 565.094 131.4 565.292 130.993 565.46C130.639 565.605 130.232 565.499 129.822 565.292C129.378 565.067 129.075 564.636 128.844 564.192C128.617 563.756 128.668 563.227 129.338 561.355C129.928 559.706 131.366 556.743 132.404 554.737C133.442 552.731 134.124 551.797 135.137 550.705C136.15 549.612 137.474 548.388 138.252 547.701C139.713 546.408 140.963 546.209 141.199 546.259C141.997 546.429 142.416 548.948 142.734 551.057C142.86 551.887 142.433 553.756 141.953 556.126C141.546 558.136 142.16 559.451 142.818 560.336C143.081 560.69 143.845 560.76 144.735 560.819C145.512 560.871 146.355 560.585 147.354 560.09C147.899 559.82 148.459 559.414 149.846 558.105C151.232 556.796 153.411 554.572 154.985 552.716C156.559 550.86 157.461 549.439 158.018 548.501C159.198 546.514 159.158 545.421 159.039 544.758C159.013 544.612 158.844 544.524 158.666 544.457C158.275 544.309 157.646 544.368 156.867 544.556C155.952 544.776 155.106 545.732 154.211 546.811C153.319 547.885 152.848 549.108 152.457 550.215C152.263 550.767 152.177 551.324 152.155 552.899C152.134 554.475 152.206 557.058 152.345 558.641C152.529 560.744 153.328 561.723 154.311 562.652C155.372 563.655 157.005 564.178 158.678 564.562C159.525 564.757 160.426 564.706 161.402 564.496C162.378 564.286 163.417 563.855 164.539 563.202C165.662 562.55 166.837 561.689 168.133 560.559C169.428 559.428 170.808 558.054 172.08 556.656C173.353 555.259 174.475 553.879 175.325 552.709C176.176 551.539 176.719 550.62 177.081 549.852C178.147 547.591 177.699 546.018 177.098 545.044C176.785 544.537 175.96 544.436 175.202 544.361C174.371 544.279 173.331 544.996 172.163 546.226C171.525 546.898 171.032 547.838 170.552 548.789C170.072 549.739 169.68 550.716 169.417 551.637C168.921 553.369 168.941 554.978 169.098 556.441C169.256 557.913 169.932 559.157 170.597 560.134C171.19 561.007 172.211 561.486 173.385 561.789C174.71 562.132 176.304 561.896 178.034 561.627C178.985 561.479 180.027 561.043 181.291 560.416C182.554 559.788 183.992 558.915 185.502 557.833C187.011 556.751 188.549 555.485 189.824 554.311C191.099 553.136 192.066 552.091 192.829 551.089C193.593 550.086 194.124 549.159 194.486 548.262C195.169 546.566 195.174 545.19 195.021 544.393C194.955 544.052 194.687 543.895 194.406 543.795C193.812 543.586 193.008 543.721 192.111 543.986C191.026 544.306 190.04 545.315 189.01 546.324C188.013 547.302 187.489 548.488 187.126 549.631C186.94 550.215 186.882 550.837 186.869 551.913C186.855 552.988 186.921 554.505 187.007 555.468C187.126 556.799 187.453 557.429 187.789 557.929C188.481 558.959 190.732 558.689 193.034 558.214C194.338 557.945 195.823 557.271 198.2 556.028C200.577 554.786 203.776 552.906 205.925 551.547C208.075 550.188 209.078 549.405 209.754 548.827C210.43 548.249 210.75 547.898 210.946 547.672C211.142 547.447 211.205 547.356 211.263 547.157" stroke="#06578D" stroke-width="2.53964" stroke-linecap="round"/>
<path d="M112.237 591.078C112.239 591.104 112.146 591.601 111.677 593.253C111.343 594.429 110.649 596.263 110.263 597.601C109.656 599.699 109.652 601.29 109.643 602.546C109.635 603.611 110.521 604.316 111.655 605.096C112.278 605.524 114.495 605.41 116.376 605.135C116.753 605.079 117.129 604.827 118.988 603.577C120.846 602.327 124.154 600.017 126.511 598.198C128.868 596.379 130.174 595.121 131.219 593.984C133.111 591.925 133.944 590.538 134.247 589.905C134.888 588.566 134.506 587.315 134.368 586.999C134.234 586.692 133.584 586.645 132.81 586.647C131.854 586.649 130.907 586.937 130.111 587.333C129.327 587.722 128.39 588.649 127.206 589.924C126.038 591.182 125.567 592.391 125.038 594.058C124.642 595.305 124.136 597.392 123.834 598.543C123.419 600.128 124.028 601.942 124.683 603.184C125.03 603.842 125.952 603.847 126.89 603.939C128.636 604.11 130.092 603.254 132.223 601.958C133.603 601.118 135.415 599.72 137.871 597.544C140.327 595.367 143.327 592.406 145.037 590.624C147.781 587.765 147.763 586.924 147.722 586.384C147.694 586.012 147.245 585.788 146.9 585.662C145.987 585.331 144.359 585.498 143.33 585.856C142.465 586.157 142.042 587.399 140.997 591.163C140.547 592.783 140.76 595.162 140.752 596.488C140.743 598.045 140.876 598.458 141.064 598.832C141.275 599.255 141.579 599.556 142.003 599.72C142.693 599.987 143.503 599.847 144.02 599.781C144.507 599.719 144.841 599.497 145.725 598.728C146.503 598.05 147.876 596.733 150.91 593.026C153.944 589.318 158.579 583.246 161.244 579.659C163.909 576.071 164.462 575.152 164.793 574.621C165.123 574.091 165.214 573.977 165.247 574.037C165.279 574.096 165.25 574.333 164.759 575.359C164.269 576.384 163.317 578.192 162.462 580.51C161.607 582.828 160.878 585.602 160.525 587.984C160.173 590.367 160.219 592.274 160.302 593.496C160.479 596.113 161.619 597.624 162.322 598.443C162.626 598.797 163.691 598.847 164.902 598.822C166.139 598.796 167.174 597.971 169.311 596.069C170.974 594.588 173.517 591.853 175.122 590.05C177.398 587.492 177.854 586.289 178.007 585.794C178.152 585.329 178.164 584.917 178.131 584.587C178.074 584.008 177.286 583.654 176.62 583.387C176.286 583.253 175.928 583.259 175.469 583.422C175.132 583.541 174.691 583.904 174.308 584.335C173.925 584.767 173.641 585.299 173.385 587.396C173.128 589.494 172.906 593.14 172.816 595.375C172.655 599.342 173.141 600.297 173.549 600.802C173.782 601.09 174.337 601.01 174.697 600.978C175.484 600.909 176.292 600.396 176.948 600.025C177.249 599.856 177.999 599.025 180.876 595.767C183.13 593.214 186.903 588.781 188.981 586.388C191.275 583.747 191.738 583.433 192.111 583.283C192.937 582.951 194.355 583.31 195.966 583.79C196.624 583.987 197.522 584.475 198.765 585.236C200.008 585.998 201.533 587.079 202.529 587.84C203.524 588.6 203.944 589.007 204.529 589.524" stroke="#06578D" stroke-width="2.53964" stroke-linecap="round"/>
<path d="M410.861 471.85C410.86 471.828 410.93 471.648 412.002 470.197C412.97 468.886 414.936 466.517 416.048 465.166C417.908 462.906 419.706 462.097 420.611 461.949C421.282 461.84 421.595 463.415 421.857 466.098C421.95 467.055 420.961 469.18 420.383 471.145C420.312 471.388 421.655 469.879 422.684 468.686C423.712 467.493 424.631 466.606 425.887 465.617C427.142 464.629 428.706 463.567 430.282 462.722C433.31 461.098 435.321 460.636 435.92 460.679C436.192 460.698 436.361 460.934 436.465 461.153C436.674 461.592 436.617 462.344 436.209 464.379C435.889 465.972 434.991 468.619 434.547 470.14C434.02 471.944 433.993 472.583 434.119 473.082C434.373 474.091 436.959 472.644 440.685 470.795C443.32 469.487 447.286 467.065 449.672 465.566C452.059 464.066 452.699 463.469 453.461 462.621C455.149 460.745 456.08 459.359 456.147 458.908C456.181 458.677 455.955 458.44 455.716 458.31C454.519 457.658 452.453 458.642 450.674 460.06C448.823 461.535 448.591 463.902 448.415 466.051C448.269 467.84 448.882 469.295 449.378 469.999C449.844 470.66 450.847 470.849 452.106 470.838C452.807 470.832 453.622 470.593 456.287 469.278C458.952 467.963 463.441 465.521 467.238 463.818C471.036 462.114 474.007 461.225 476.023 460.719C478.978 459.979 480.296 460.13 480.908 460.465C482.243 461.945 483.015 463.835 483.378 465.763C483.553 466.874 483.712 468.252 483.875 469.673" stroke="#06578D" stroke-width="2.53964" stroke-linecap="round"/>
<path d="M419.96 495.63C419.968 495.743 420.071 497.036 420.318 499.074C420.46 500.254 421.213 500.816 421.993 501.267C423.804 502.314 426.047 501.358 428.375 500.193C430.038 499.36 432.554 497.79 434.591 496.485C436.628 495.179 438.078 494.124 439.08 493.453C440.555 492.466 442.103 491.996 444.054 491.538C447.216 490.796 448.695 491.515 449.692 492.198C450.944 493.056 451.231 495.755 451.425 498.699C451.613 501.543 450.231 503.396 449.116 504.292C448.223 505.01 446.973 504.844 446.343 504.813C445.92 504.791 445.898 503.822 445.904 502.908C445.913 501.696 447.371 500.327 450.21 497.82C452.072 496.176 455.074 494.124 456.879 492.856C459.235 491.2 460.367 490.712 461.323 490.361C463.737 489.475 466.461 489.673 466.768 490.003C467.122 490.383 467.036 491.118 467.037 491.8C467.039 492.499 466.643 493.222 465.798 494.307C463.218 497.623 462.38 498.714 462.175 499.601C462.131 499.79 462.182 499.966 462.312 500.148C462.616 500.574 463.482 500.862 464.724 501.093C466.21 501.37 467.98 501.039 470.854 500.157C472.868 499.539 475.825 498.034 478.244 496.639C480.663 495.245 482.408 493.868 483.489 492.919C485.812 490.881 486.015 489.513 486.011 489.068C486.008 488.852 485.771 488.693 485.486 488.62C484.836 488.452 483.911 488.775 482.632 489.399C480.726 490.329 479.378 491.677 478.568 492.433C477.123 493.78 476.674 495.769 476.614 497.628C476.582 498.632 477.207 499.68 478.042 500.693C478.882 501.714 480.192 502.191 481.562 502.471C483.066 502.58 484.989 502.249 488.516 500.518C490.924 499.13 494.587 496.706 498.395 494.091" stroke="#06578D" stroke-width="2.53964" stroke-linecap="round"/>
<path d="M329.103 679.629C329.081 679.744 328.856 680.449 328.494 681.606C328.224 682.469 328.155 683.63 328.128 685.075C328.092 687.004 328.638 687.628 329.005 688.052C329.31 688.406 330.057 688.378 331.359 688.298C331.856 688.268 332.429 687.86 333.456 687.035C334.113 686.508 334.954 685.653 336.463 683.369C337.971 681.085 340.099 677.37 341.316 675.306C342.726 672.914 343.204 672.461 343.565 672.176C343.73 672.045 343.914 672.018 344.059 672.025C344.659 672.052 345.244 673.222 345.884 674.854C346.124 675.465 346.198 676.408 346.297 677.596C346.397 678.783 346.434 680.215 346.417 681.25C346.377 683.72 346.035 684.449 345.446 685.881C345.12 686.675 344.315 686.81 343.65 686.952C343.407 687.004 343.193 686.971 342.988 686.919C342.776 686.865 342.627 686.682 342.506 686.521C342.155 686.058 342.391 685.215 342.752 684.533C343.03 684.008 343.573 683.16 345.257 681.291C346.94 679.423 349.766 676.571 352.627 674.172C355.488 671.773 358.299 669.914 359.909 668.884C361.815 667.666 362.773 667.411 363.794 667.166C364.446 667.011 364.903 667.051 365.328 667.152C365.806 667.265 366.127 667.596 366.325 667.82C366.423 667.931 366.428 668.096 366.381 669.211C366.334 670.326 366.212 672.401 366.116 673.616C366.021 674.83 365.955 675.121 365.797 676.64C365.638 678.159 365.389 680.898 365.211 682.512C365.033 684.125 364.934 684.531 364.871 684.646C364.816 684.746 364.958 683.759 365.789 681.744C366.373 680.331 367.475 678.204 368.627 676.094C369.779 673.983 370.997 671.974 371.758 670.763C372.518 669.553 372.783 669.202 373.37 668.603C374.819 667.125 376.005 666.165 376.433 665.924C376.82 665.706 377.278 665.704 377.735 665.819C379.095 666.161 379.472 668.338 379.962 669.943C380.255 670.904 380.448 672.215 380.593 673.194C380.828 674.789 380.787 676.062 380.677 677.335C380.563 678.643 380.177 679.857 379.785 680.901C379.135 682.629 377.915 683.402 377.264 683.834C377.143 683.914 377.035 683.943 376.932 683.886C376.294 683.534 376.22 682.119 376.251 680.061C376.262 679.413 376.558 678.689 377.183 677.166C377.807 675.643 378.845 673.352 379.604 671.847C380.364 670.341 380.813 669.692 382.156 668.306C383.5 666.919 385.723 664.816 387.035 663.636C388.627 662.203 389.402 661.981 390.182 661.841C390.971 661.699 391.797 661.76 392.595 661.954C393.436 662.16 394.076 663.109 394.736 664.126C395.446 665.218 395.784 666.532 396.066 668.139C396.237 669.115 396.294 670.442 396.232 671.811C396.17 673.179 395.943 674.555 395.724 675.553C395.375 677.147 394.896 678.133 394.355 679.125C394.031 679.72 393.525 680.454 393.201 680.727C392.878 681.001 392.733 680.78 392.61 680.303C392.304 679.117 392.277 677.425 392.459 675.439C392.558 674.363 393.066 673.201 393.57 672.077C394.075 670.952 394.661 669.914 395.833 668.349C397.005 666.785 398.744 664.725 400.006 663.315C401.267 661.905 401.998 661.208 402.604 660.688C403.636 659.805 404.457 659.434 405.038 659.34C405.305 659.297 405.531 659.405 405.736 659.589C406.194 659.999 406.437 660.819 406.665 661.868C406.794 662.459 406.846 663.193 406.85 664.999C406.853 666.804 406.78 669.664 406.853 671.304C406.927 672.943 407.15 673.276 407.453 673.525C408.061 674.026 408.911 674.178 409.709 674.338C410.504 674.497 411.371 674.506 412.389 674.36C412.971 674.276 413.63 673.913 415.12 672.736C416.61 671.558 418.897 669.511 420.389 667.958C421.88 666.404 422.508 665.405 423.155 664.376" stroke="#06578D" stroke-width="2.53964" stroke-linecap="round"/>
<defs>
<filter id="filter0_f_20634_10838" x="-177.507" y="0" width="965.806" height="1140.03" filterUnits="userSpaceOnUse" color-interpolation-filters="sRGB">
<feFlood flood-opacity="0" result="BackgroundImageFix"/>
<feBlend mode="normal" in="SourceGraphic" in2="BackgroundImageFix" result="shape"/>
<feGaussianBlur stdDeviation="148.077" result="effect1_foregroundBlur_20634_10838"/>
</filter>
<linearGradient id="paint0_linear_20634_10838" x1="55.5767" y1="439.275" x2="737.504" y2="830.246" gradientUnits="userSpaceOnUse">
<stop stop-color="#06578D" stop-opacity="0"/>
<stop offset="0.31205" stop-color="#06578D" stop-opacity="0.924679"/>
<stop offset="0.490751" stop-color="#06578D"/>
<stop offset="0.887833" stop-color="#06578D" stop-opacity="0"/>
</linearGradient>
</defs>
</svg>
