<svg width="220" height="64" viewBox="0 0 220 64" fill="none" xmlns="http://www.w3.org/2000/svg">
  <rect width="220" height="64" rx="18" fill="#F0F7FF"/>
  <path d="M30 18C30 14.6863 32.6863 12 36 12H56V20H38V28H53V36H38V52H30V18Z" fill="#1183D0"/>
  <path d="M70 24H78V52H70V24Z" fill="#1183D0"/>
  <path d="M74 20C76.7614 20 79 17.7614 79 15C79 12.2386 76.7614 10 74 10C71.2386 10 69 12.2386 69 15C69 17.7614 71.2386 20 74 20Z" fill="#1183D0"/>
  <path d="M99 53C91.268 53 85 46.732 85 39C85 31.268 91.268 25 99 25C102.906 25 106.438 26.6008 108.975 29.1815L103.675 34.3148C102.48 33.0821 100.806 32.3125 99 32.3125C95.3061 32.3125 92.3125 35.3061 92.3125 39C92.3125 42.6939 95.3061 45.6875 99 45.6875C100.806 45.6875 102.48 44.9179 103.675 43.6852L108.975 48.8185C106.438 51.3992 102.906 53 99 53Z" fill="#1183D0"/>
  <path d="M127 53C119.268 53 113 46.732 113 39C113 31.268 119.268 25 127 25C134.732 25 141 31.268 141 39C141 46.732 134.732 53 127 53ZM127 45.6875C130.694 45.6875 133.688 42.6939 133.688 39C133.688 35.3061 130.694 32.3125 127 32.3125C123.306 32.3125 120.312 35.3061 120.312 39C120.312 42.6939 123.306 45.6875 127 45.6875Z" fill="#1183D0"/>
  <path d="M146 12H154V52H146V12Z" fill="#1183D0"/>
  <path d="M173 53C165.268 53 159 46.732 159 39C159 31.268 165.268 25 173 25C176.906 25 180.438 26.6008 182.975 29.1815L177.675 34.3148C176.48 33.0821 174.806 32.3125 173 32.3125C169.306 32.3125 166.312 35.3061 166.312 39C166.312 42.6939 169.306 45.6875 173 45.6875C174.806 45.6875 176.48 44.9179 177.675 43.6852L182.975 48.8185C180.438 51.3992 176.906 53 173 53Z" fill="#1183D0"/>
</svg>
