<svg width="800" height="800" viewBox="0 0 800 800" fill="none" xmlns="http://www.w3.org/2000/svg">
<path d="M486 223.406C486 223.406 516.5 224.906 517.75 267.406V437.906C517.75 521.656 467.668 577.406 397.697 577.406C346.637 577.406 302.196 549.817 282.339 505.479C273.829 484.788 277 460.406 299.359 453.259C321.717 446.112 339.154 460.229 350.5 481.906C362.354 499.788 379.731 509.597 400.534 509.597C434.574 509.597 449.702 487.406 449.702 433.553V247.406C454 217.906 486 223.406 486 223.406Z" fill="#12B6BE"/>
<path d="M405 237.406C343 237.406 293 287.406 293 349.406C293 411.406 343 461.406 405 461.406C467 461.406 517 411.406 517 349.406C517 287.406 467 237.406 405 237.406ZM405 304.406C429.869 304.406 450 324.537 450 349.406C450 374.274 429.869 394.406 405 394.406C380.132 394.406 360 374.274 360 349.406C360 324.537 380.132 304.406 405 304.406Z" fill="#F21873"/>
<mask id="mask0_92_2" style="mask-type:alpha" maskUnits="userSpaceOnUse" x="289" y="233" width="233" height="233">
<path d="M405 233.406C340.786 233.406 289 285.191 289 349.406C289 413.62 340.786 465.406 405 465.406C469.215 465.406 521 413.62 521 349.406C521 285.191 469.215 233.406 405 233.406ZM405 304.406C429.869 304.406 450 324.537 450 349.406C450 374.274 429.869 394.406 405 394.406C380.132 394.406 360 374.274 360 349.406C360 324.537 380.132 304.406 405 304.406Z" fill="#F21873"/>
</mask>
<g mask="url(#mask0_92_2)">
<path opacity="0.96" d="M451.063 247.406C490.375 265.37 518 304.468 518 349.906C518 395.344 489.313 435.498 450 452.406V247.406H451.063Z" fill="#062D8D"/>
</g>
</svg>
