<svg width="1920" height="1113" viewBox="0 0 1920 1113" fill="none" xmlns="http://www.w3.org/2000/svg">
<g clip-path="url(#clip0_8198_47894)">
<rect width="1920" height="1113" fill="white"/>
<rect x="1168.5" y="262.5" width="195" height="95" rx="18.5" fill="#E7F0F6" stroke="#457AB5" stroke-width="3" stroke-dasharray="8 8"/>
<path d="M1168.21 234.87H1172.77C1173.67 234.87 1174.39 235.125 1174.94 235.635C1175.5 236.141 1175.77 236.853 1175.77 237.773C1175.77 238.564 1175.53 239.253 1175.03 239.842C1174.54 240.426 1173.79 240.718 1172.77 240.718H1169.58V245H1168.21V234.87ZM1174.39 237.78C1174.39 237.035 1174.11 236.529 1173.56 236.263C1173.25 236.12 1172.84 236.049 1172.31 236.049H1169.58V239.559H1172.31C1172.93 239.559 1173.42 239.428 1173.81 239.166C1174.19 238.904 1174.39 238.442 1174.39 237.78ZM1182.21 239.511C1182.85 239.511 1183.36 239.382 1183.73 239.125C1184.11 238.867 1184.3 238.403 1184.3 237.732C1184.3 237.01 1184.03 236.518 1183.51 236.256C1183.23 236.118 1182.85 236.049 1182.39 236.049H1179.03V239.511H1182.21ZM1177.66 234.87H1182.35C1183.12 234.87 1183.76 234.982 1184.26 235.208C1185.21 235.64 1185.69 236.437 1185.69 237.601C1185.69 238.207 1185.56 238.704 1185.31 239.09C1185.06 239.476 1184.71 239.787 1184.26 240.021C1184.66 240.182 1184.95 240.393 1185.15 240.655C1185.35 240.918 1185.47 241.343 1185.49 241.931L1185.54 243.29C1185.55 243.676 1185.58 243.963 1185.63 244.152C1185.72 244.474 1185.86 244.68 1186.07 244.772V245H1184.39C1184.35 244.913 1184.31 244.8 1184.28 244.662C1184.25 244.524 1184.23 244.258 1184.21 243.862L1184.13 242.173C1184.1 241.511 1183.85 241.067 1183.39 240.842C1183.13 240.718 1182.72 240.655 1182.16 240.655H1179.03V245H1177.66V234.87ZM1192.07 234.594C1193.86 234.594 1195.19 235.169 1196.05 236.318C1196.72 237.214 1197.05 238.361 1197.05 239.759C1197.05 241.272 1196.67 242.529 1195.9 243.531C1195 244.708 1193.72 245.297 1192.05 245.297C1190.49 245.297 1189.26 244.782 1188.37 243.752C1187.58 242.759 1187.18 241.504 1187.18 239.987C1187.18 238.617 1187.52 237.444 1188.2 236.47C1189.07 235.219 1190.36 234.594 1192.07 234.594ZM1192.21 244.069C1193.42 244.069 1194.29 243.637 1194.83 242.773C1195.37 241.904 1195.65 240.906 1195.65 239.78C1195.65 238.589 1195.33 237.63 1194.71 236.904C1194.09 236.178 1193.24 235.814 1192.16 235.814C1191.11 235.814 1190.25 236.175 1189.59 236.897C1188.93 237.614 1188.6 238.674 1188.6 240.076C1188.6 241.198 1188.88 242.145 1189.45 242.917C1190.02 243.685 1190.94 244.069 1192.21 244.069ZM1199.49 234.87L1202.4 243.497L1205.28 234.87H1206.82L1203.12 245H1201.67L1197.98 234.87H1199.49ZM1208.42 234.87H1209.81V245H1208.42V234.87ZM1215.93 243.828C1216.4 243.828 1216.78 243.779 1217.08 243.683C1217.61 243.504 1218.05 243.159 1218.39 242.648C1218.66 242.239 1218.86 241.715 1218.98 241.076C1219.04 240.695 1219.08 240.341 1219.08 240.014C1219.08 238.759 1218.83 237.784 1218.33 237.09C1217.83 236.396 1217.03 236.049 1215.92 236.049H1213.49V243.828H1215.93ZM1212.11 234.87H1216.21C1217.6 234.87 1218.68 235.364 1219.45 236.352C1220.14 237.244 1220.48 238.387 1220.48 239.78C1220.48 240.855 1220.28 241.828 1219.87 242.697C1219.16 244.232 1217.93 245 1216.2 245H1212.11V234.87ZM1222.38 234.87H1229.77V236.111H1223.72V239.187H1229.31V240.359H1223.72V243.793H1229.87V245H1222.38V234.87ZM1239.41 239.152C1239.99 239.152 1240.44 239.072 1240.76 238.911C1241.27 238.658 1241.52 238.203 1241.52 237.545C1241.52 236.883 1241.25 236.437 1240.71 236.208C1240.41 236.079 1239.96 236.014 1239.36 236.014H1236.91V239.152H1239.41ZM1239.87 243.828C1240.71 243.828 1241.31 243.584 1241.67 243.097C1241.9 242.789 1242.01 242.416 1242.01 241.98C1242.01 241.244 1241.68 240.743 1241.02 240.476C1240.67 240.334 1240.21 240.262 1239.64 240.262H1236.91V243.828H1239.87ZM1235.57 234.87H1239.92C1241.1 234.87 1241.95 235.224 1242.45 235.932C1242.74 236.35 1242.89 236.833 1242.89 237.38C1242.89 238.019 1242.71 238.543 1242.35 238.952C1242.16 239.168 1241.89 239.366 1241.53 239.545C1242.05 239.743 1242.44 239.966 1242.7 240.214C1243.15 240.655 1243.38 241.265 1243.38 242.042C1243.38 242.694 1243.18 243.285 1242.77 243.814C1242.16 244.605 1241.18 245 1239.85 245H1235.57V234.87ZM1244.24 234.87H1245.84L1248.75 239.738L1251.66 234.87H1253.26L1249.44 240.918V245H1248.06V240.918L1244.24 234.87ZM1258.16 234.87H1259.54V239.056H1264.81V234.87H1266.2V245H1264.81V240.262H1259.54V245H1258.16V234.87ZM1268.64 234.87H1270.03V245H1268.64V234.87ZM1276.97 239.511C1277.61 239.511 1278.12 239.382 1278.5 239.125C1278.87 238.867 1279.06 238.403 1279.06 237.732C1279.06 237.01 1278.8 236.518 1278.27 236.256C1277.99 236.118 1277.62 236.049 1277.15 236.049H1273.8V239.511H1276.97ZM1272.43 234.87H1277.12C1277.89 234.87 1278.52 234.982 1279.03 235.208C1279.98 235.64 1280.45 236.437 1280.45 237.601C1280.45 238.207 1280.33 238.704 1280.07 239.09C1279.83 239.476 1279.48 239.787 1279.03 240.021C1279.42 240.182 1279.72 240.393 1279.92 240.655C1280.12 240.918 1280.23 241.343 1280.25 241.931L1280.3 243.29C1280.32 243.676 1280.35 243.963 1280.4 244.152C1280.48 244.474 1280.63 244.68 1280.84 244.772V245H1279.16C1279.11 244.913 1279.07 244.8 1279.05 244.662C1279.02 244.524 1279 244.258 1278.98 243.862L1278.9 242.173C1278.86 241.511 1278.62 241.067 1278.16 240.842C1277.9 240.718 1277.48 240.655 1276.92 240.655H1273.8V245H1272.43V234.87ZM1282.6 234.87H1289.98V236.111H1283.94V239.187H1289.53V240.359H1283.94V243.793H1290.09V245H1282.6V234.87ZM1299.26 234.87V236.077H1295.85V245H1294.45V236.077H1291.04V234.87H1299.26ZM1300.65 234.87H1308.04V236.111H1301.99V239.187H1307.58V240.359H1301.99V243.793H1308.14V245H1300.65V234.87ZM1314.21 234.594C1315.49 234.594 1316.49 234.932 1317.2 235.608C1317.9 236.283 1318.3 237.051 1318.37 237.911H1317.04C1316.89 237.258 1316.58 236.741 1316.13 236.359C1315.68 235.978 1315.04 235.787 1314.22 235.787C1313.23 235.787 1312.42 236.139 1311.8 236.842C1311.19 237.541 1310.89 238.614 1310.89 240.062C1310.89 241.249 1311.16 242.212 1311.71 242.952C1312.27 243.687 1313.1 244.055 1314.2 244.055C1315.21 244.055 1315.98 243.667 1316.51 242.89C1316.79 242.481 1317 241.943 1317.13 241.276H1318.47C1318.35 242.343 1317.96 243.237 1317.29 243.959C1316.48 244.828 1315.4 245.262 1314.03 245.262C1312.85 245.262 1311.86 244.906 1311.07 244.193C1310.01 243.251 1309.49 241.796 1309.49 239.828C1309.49 238.334 1309.88 237.109 1310.67 236.152C1311.53 235.113 1312.71 234.594 1314.21 234.594ZM1320.18 234.87H1321.57V239.056H1326.84V234.87H1328.22V245H1326.84V240.262H1321.57V245H1320.18V234.87Z" fill="#0369B1"/>
<path d="M555.427 272.438C576.586 272.438 593.677 289.07 593.677 309.512C593.677 329.953 576.586 346.585 555.427 346.585C534.268 346.585 517.177 329.953 517.177 309.512C517.177 289.07 534.268 272.439 555.427 272.438Z" fill="white" stroke="#6236FF" stroke-width="2.35385"/>
<path d="M534.457 310.561C534.489 311.136 534.625 311.603 534.864 311.961C535.319 312.632 536.121 312.968 537.27 312.968C537.785 312.968 538.254 312.895 538.677 312.747C539.495 312.462 539.905 311.952 539.905 311.216C539.905 310.665 539.732 310.272 539.387 310.037C539.038 309.807 538.491 309.607 537.746 309.437L536.374 309.127C535.477 308.925 534.843 308.702 534.471 308.458C533.827 308.035 533.505 307.403 533.505 306.562C533.505 305.651 533.82 304.904 534.45 304.32C535.08 303.737 535.972 303.445 537.126 303.445C538.187 303.445 539.089 303.702 539.829 304.217C540.574 304.727 540.946 305.546 540.946 306.672H539.656C539.587 306.13 539.44 305.713 539.215 305.424C538.797 304.895 538.086 304.631 537.084 304.631C536.275 304.631 535.693 304.801 535.339 305.141C534.985 305.481 534.808 305.877 534.808 306.327C534.808 306.824 535.015 307.187 535.429 307.417C535.7 307.564 536.314 307.748 537.27 307.968L538.691 308.293C539.376 308.449 539.905 308.663 540.277 308.934C540.921 309.407 541.242 310.095 541.242 310.996C541.242 312.118 540.833 312.92 540.015 313.403C539.201 313.885 538.254 314.127 537.174 314.127C535.914 314.127 534.928 313.805 534.215 313.161C533.503 312.522 533.153 311.656 533.167 310.561H534.457ZM550.352 303.7V304.907H546.939V313.83H545.546V304.907H542.132V303.7H550.352ZM555.779 309.679L554.241 305.203L552.607 309.679H555.779ZM553.524 303.7H555.076L558.751 313.83H557.248L556.221 310.796H552.214L551.118 313.83H549.711L553.524 303.7ZM564.71 308.341C565.353 308.341 565.861 308.212 566.234 307.955C566.611 307.697 566.799 307.233 566.799 306.562C566.799 305.84 566.537 305.348 566.013 305.086C565.733 304.948 565.358 304.879 564.889 304.879H561.537V308.341H564.71ZM560.165 303.7H564.854C565.627 303.7 566.264 303.812 566.765 304.038C567.716 304.47 568.192 305.268 568.192 306.431C568.192 307.037 568.066 307.534 567.813 307.92C567.565 308.306 567.215 308.617 566.765 308.851C567.16 309.012 567.457 309.224 567.654 309.486C567.857 309.748 567.969 310.173 567.992 310.761L568.04 312.12C568.054 312.506 568.086 312.793 568.137 312.982C568.22 313.304 568.367 313.511 568.578 313.603V313.83H566.896C566.85 313.743 566.813 313.63 566.785 313.492C566.758 313.354 566.735 313.088 566.716 312.692L566.634 311.003C566.601 310.341 566.355 309.897 565.896 309.672C565.634 309.548 565.222 309.486 564.661 309.486H561.537V313.83H560.165V303.7ZM577.329 303.7V304.907H573.916V313.83H572.523V304.907H569.109V303.7H577.329Z" fill="#6236FF"/>
<path d="M648.463 309.511L636.694 316.306V302.716L648.463 309.511ZM593.148 309.511V308.334H637.871V309.511V310.688H593.148V309.511Z" fill="#32C5FF"/>
<path d="M839.124 308.336L827.355 315.131V301.541L839.124 308.336ZM783.809 308.336V307.159H828.532V308.336V309.513H783.809V308.336Z" fill="#32C5FF"/>
<rect x="648.992" y="283.03" width="134.646" height="52.6462" rx="10.5923" fill="white" stroke="#6D7278" stroke-width="2.35385"/>
<path d="M676.294 313.638C676.758 313.638 677.14 313.59 677.439 313.493C677.972 313.314 678.409 312.969 678.749 312.459C679.02 312.05 679.215 311.526 679.335 310.887C679.404 310.505 679.438 310.151 679.438 309.825C679.438 308.57 679.188 307.595 678.687 306.901C678.19 306.207 677.388 305.859 676.28 305.859H673.846V313.638H676.294ZM672.466 304.68H676.57C677.963 304.68 679.043 305.174 679.811 306.163C680.496 307.055 680.838 308.197 680.838 309.59C680.838 310.666 680.636 311.638 680.231 312.507C679.519 314.043 678.294 314.811 676.556 314.811H672.466V304.68ZM687.81 310.659L686.272 306.184L684.638 310.659H687.81ZM685.555 304.68H687.107L690.782 314.811H689.279L688.252 311.776H684.245L683.148 314.811H681.742L685.555 304.68ZM692.927 311.542C692.959 312.116 693.095 312.583 693.334 312.942C693.789 313.613 694.591 313.949 695.741 313.949C696.255 313.949 696.724 313.875 697.147 313.728C697.966 313.443 698.375 312.933 698.375 312.197C698.375 311.645 698.202 311.252 697.858 311.018C697.508 310.788 696.961 310.588 696.216 310.418L694.844 310.107C693.948 309.905 693.313 309.682 692.941 309.439C692.297 309.016 691.975 308.383 691.975 307.542C691.975 306.632 692.29 305.885 692.92 305.301C693.55 304.717 694.442 304.425 695.596 304.425C696.658 304.425 697.559 304.683 698.299 305.197C699.044 305.708 699.416 306.526 699.416 307.652H698.127C698.058 307.11 697.911 306.694 697.685 306.404C697.267 305.876 696.557 305.611 695.554 305.611C694.745 305.611 694.164 305.781 693.81 306.122C693.456 306.462 693.279 306.857 693.279 307.308C693.279 307.804 693.486 308.167 693.899 308.397C694.171 308.544 694.784 308.728 695.741 308.949L697.161 309.273C697.846 309.429 698.375 309.643 698.747 309.914C699.391 310.388 699.713 311.075 699.713 311.976C699.713 313.098 699.304 313.9 698.485 314.383C697.671 314.866 696.724 315.107 695.644 315.107C694.384 315.107 693.398 314.785 692.686 314.142C691.973 313.503 691.624 312.636 691.637 311.542H692.927ZM701.485 304.68H702.871V308.866H708.14V304.68H709.526V314.811H708.14V310.073H702.871V314.811H701.485V304.68ZM715.463 308.963C716.043 308.963 716.493 308.882 716.815 308.721C717.321 308.468 717.573 308.013 717.573 307.356C717.573 306.694 717.304 306.248 716.767 306.018C716.463 305.889 716.013 305.825 715.415 305.825H712.967V308.963H715.463ZM715.925 313.638C716.767 313.638 717.367 313.395 717.725 312.907C717.95 312.599 718.063 312.227 718.063 311.79C718.063 311.055 717.734 310.553 717.077 310.287C716.728 310.144 716.265 310.073 715.691 310.073H712.967V313.638H715.925ZM711.622 304.68H715.974C717.16 304.68 718.003 305.034 718.504 305.742C718.799 306.161 718.946 306.643 718.946 307.19C718.946 307.829 718.764 308.354 718.401 308.763C718.212 308.979 717.941 309.176 717.587 309.356C718.107 309.553 718.495 309.776 718.753 310.025C719.208 310.466 719.435 311.075 719.435 311.852C719.435 312.505 719.231 313.096 718.822 313.624C718.21 314.415 717.238 314.811 715.905 314.811H711.622V304.68ZM725.449 304.404C727.237 304.404 728.561 304.979 729.421 306.128C730.092 307.025 730.428 308.172 730.428 309.57C730.428 311.082 730.044 312.339 729.276 313.342C728.375 314.519 727.09 315.107 725.421 315.107C723.863 315.107 722.637 314.592 721.746 313.562C720.95 312.569 720.553 311.314 720.553 309.797C720.553 308.427 720.893 307.255 721.573 306.28C722.447 305.03 723.738 304.404 725.449 304.404ZM725.587 313.88C726.796 313.88 727.669 313.447 728.207 312.583C728.75 311.714 729.021 310.717 729.021 309.59C729.021 308.4 728.708 307.441 728.083 306.715C727.462 305.988 726.612 305.625 725.531 305.625C724.483 305.625 723.628 305.986 722.966 306.708C722.304 307.425 721.973 308.485 721.973 309.887C721.973 311.009 722.256 311.956 722.821 312.728C723.391 313.496 724.313 313.88 725.587 313.88ZM737.269 310.659L735.731 306.184L734.096 310.659H737.269ZM735.014 304.68H736.565L740.241 314.811H738.737L737.71 311.776H733.703L732.607 314.811H731.2L735.014 304.68ZM746.199 309.321C746.843 309.321 747.351 309.193 747.723 308.935C748.1 308.678 748.288 308.213 748.288 307.542C748.288 306.82 748.026 306.328 747.502 306.066C747.222 305.928 746.847 305.859 746.378 305.859H743.027V309.321H746.199ZM741.654 304.68H746.344C747.116 304.68 747.753 304.793 748.254 305.018C749.206 305.45 749.681 306.248 749.681 307.411C749.681 308.018 749.555 308.514 749.302 308.901C749.054 309.287 748.704 309.597 748.254 309.832C748.649 309.993 748.946 310.204 749.143 310.466C749.346 310.728 749.458 311.153 749.481 311.742L749.53 313.1C749.543 313.487 749.576 313.774 749.626 313.962C749.709 314.284 749.856 314.491 750.068 314.583V314.811H748.385C748.339 314.723 748.302 314.611 748.275 314.473C748.247 314.335 748.224 314.068 748.206 313.673L748.123 311.983C748.091 311.321 747.845 310.878 747.385 310.652C747.123 310.528 746.711 310.466 746.151 310.466H743.027V314.811H741.654V304.68ZM755.584 313.638C756.049 313.638 756.43 313.59 756.729 313.493C757.262 313.314 757.699 312.969 758.039 312.459C758.311 312.05 758.506 311.526 758.626 310.887C758.694 310.505 758.729 310.151 758.729 309.825C758.729 308.57 758.478 307.595 757.977 306.901C757.481 306.207 756.679 305.859 755.571 305.859H753.136V313.638H755.584ZM751.757 304.68H755.86C757.253 304.68 758.334 305.174 759.101 306.163C759.786 307.055 760.129 308.197 760.129 309.59C760.129 310.666 759.927 311.638 759.522 312.507C758.809 314.043 757.584 314.811 755.846 314.811H751.757V304.68Z" fill="#707070"/>
<path d="M454.158 344.346C454.158 342.827 454.646 341.702 455.623 340.971C456.385 340.401 457.359 340.116 458.547 340.116C459.832 340.116 460.9 340.442 461.752 341.094C462.752 341.86 463.252 342.952 463.252 344.37C463.252 345.694 462.814 346.735 461.939 347.493C461.096 348.169 460.029 348.506 458.74 348.506C457.576 348.506 456.58 348.217 455.752 347.639C454.689 346.897 454.158 345.799 454.158 344.346ZM462.209 344.229C462.209 343.202 461.842 342.46 461.107 342.003C460.369 341.542 459.521 341.311 458.564 341.311C457.553 341.311 456.738 341.577 456.121 342.108C455.504 342.635 455.195 343.358 455.195 344.276C455.195 345.167 455.502 345.893 456.115 346.456C456.725 347.018 457.625 347.299 458.816 347.299C459.77 347.299 460.574 347.059 461.23 346.579C461.883 346.094 462.209 345.311 462.209 344.229Z" fill="#707070"/>
<path d="M1028.61 309.511L1016.84 316.306V302.716L1028.61 309.511ZM973.293 309.511V308.334H1018.02V309.511V310.688H973.293V309.511Z" fill="#32C5FF"/>
<path d="M1201.62 309.511L1189.85 316.306V302.716L1201.62 309.511ZM1146.3 309.511V308.334H1191.02V309.511V310.688H1146.3V309.511Z" fill="#32C5FF"/>
<path d="M1391.62 309.511L1379.85 316.306V302.716L1391.62 309.511ZM1336.3 309.511V308.334H1381.02V309.511V310.688H1336.3V309.511Z" fill="#32C5FF"/>
<rect x="839.653" y="283.03" width="134.646" height="52.6462" rx="10.5923" fill="white" stroke="#6D7278" stroke-width="2.35385"/>
<rect x="1200.97" y="283.03" width="134.646" height="52.6462" rx="10.5923" fill="white" stroke="#6D7278" stroke-width="2.35385"/>
<rect x="1029.18" y="282.177" width="115.646" height="54.6462" rx="27.3231" fill="white" stroke="#32C5FF" stroke-width="2.35385"/>
<path d="M1430.43 273.614C1451.59 273.614 1468.68 290.246 1468.68 310.688C1468.68 331.129 1451.59 347.761 1430.43 347.761C1409.27 347.761 1392.18 331.129 1392.18 310.688C1392.18 290.246 1409.27 273.614 1430.43 273.614Z" fill="white" stroke="#6236FF" stroke-width="2.35385"/>
<line x1="64" y1="441" x2="1855" y2="441" stroke="#7C8D99" stroke-width="2" stroke-dasharray="10 10"/>
<rect x="453" y="635.586" width="310.275" height="268.319" rx="4.26414" fill="#F3F7FA" stroke="#B7B7B7" stroke-width="2.13207" stroke-linejoin="round"/>
<path d="M453 639.85C453 637.495 454.909 635.586 457.264 635.586H759.01C761.365 635.586 763.275 637.495 763.275 639.85V670.92H453V639.85Z" fill="white" stroke="#B7B7B7" stroke-width="2.13207" stroke-linejoin="round"/>
<rect x="474.055" y="648.836" width="44.3249" height="8.83355" rx="4.41677" fill="#404040" fill-opacity="0.8"/>
<path d="M802.396 765.027L791.736 758.873V771.182L802.396 765.027ZM763.274 765.027V766.093H792.802V765.027V763.961H763.274V765.027Z" fill="#F09B10"/>
<rect x="805" y="636" width="310.898" height="270.001" rx="4.44785" fill="#F3F7FA" stroke="#B7B7B7" stroke-width="2.22393" stroke-linejoin="round"/>
<path d="M805 640.448C805 637.991 806.991 636 809.448 636H1111.45C1113.91 636 1115.9 637.991 1115.9 640.448V671.683H805V640.448Z" fill="white" stroke="#B7B7B7" stroke-width="2.22393" stroke-linejoin="round"/>
<rect x="826.441" y="649.078" width="44.0737" height="8.32602" rx="4.16301" fill="#404040" fill-opacity="0.8"/>
<rect opacity="0.5" x="805" y="636" width="312.089" height="270.001" rx="4.44785" fill="#404040" stroke="#B7B7B7" stroke-width="2.22393" stroke-linejoin="round"/>
<rect x="974.148" y="636" width="142.942" height="270.001" rx="4.44785" fill="#F3F7FA" stroke="#B7B7B7" stroke-width="2.22393" stroke-linejoin="round"/>
<path d="M974.148 640.448C974.148 637.991 976.14 636 978.596 636H1112.64C1115.1 636 1117.09 637.991 1117.09 640.448V669.304H974.148V640.448Z" fill="white" stroke="#B7B7B7" stroke-width="2.22393" stroke-linejoin="round"/>
<rect x="988.441" y="647.891" width="55.9855" height="8.32602" rx="4.16301" fill="#404040" fill-opacity="0.8"/>
<path d="M1157.12 679.189L1146 672.77V685.609L1157.12 679.189ZM1119 679.189V680.301H1147.11V679.189V678.077H1119V679.189Z" fill="#F09B10"/>
<rect x="1157" y="636.668" width="307.826" height="267.333" rx="4.4039" fill="#F3F7FA" stroke="#B7B7B7" stroke-width="2.20195" stroke-linejoin="round"/>
<path d="M1157 641.072C1157 638.64 1158.97 636.668 1161.4 636.668H1460.42C1462.85 636.668 1464.83 638.64 1464.83 641.072V671.998H1157V641.072Z" fill="white" stroke="#B7B7B7" stroke-width="2.20195" stroke-linejoin="round"/>
<rect x="1177.05" y="649.617" width="43.6382" height="8.24374" rx="4.12187" fill="#404040" fill-opacity="0.8"/>
<rect opacity="0.5" x="1157" y="636.668" width="309.005" height="267.333" rx="4.4039" fill="#404040" stroke="#B7B7B7" stroke-width="2.20195" stroke-linejoin="round"/>
<rect x="1324.48" y="636.668" width="141.529" height="267.333" rx="4.4039" fill="#F3F7FA" stroke="#B7B7B7" stroke-width="2.20195" stroke-linejoin="round"/>
<path d="M1324.48 641.072C1324.48 638.64 1326.45 636.668 1328.88 636.668H1461.6C1464.03 636.668 1466 638.64 1466 641.072V669.643H1324.48V641.072Z" fill="white" stroke="#B7B7B7" stroke-width="2.20195" stroke-linejoin="round"/>
<rect x="1338.63" y="648.441" width="55.4323" height="8.24374" rx="4.12187" fill="#404040" fill-opacity="0.8"/>
<rect x="1220.69" y="636.668" width="103.788" height="267.333" rx="4.4039" fill="#F3F7FA" stroke="#B7B7B7" stroke-width="2.20195" stroke-linejoin="round"/>
<rect x="1220.69" y="641.072" width="103.788" height="28.571" fill="white" stroke="#B7B7B7" stroke-width="2.20195"/>
<rect x="1231.3" y="648.441" width="55.4323" height="8.24374" rx="4.12187" fill="#404040" fill-opacity="0.8"/>
<rect x="1158.5" y="552.5" width="306" height="17" rx="8.5" fill="#E7F0F6" stroke="#457AB5" stroke-width="3"/>
</g>
<defs>
<clipPath id="clip0_8198_47894">
<rect width="1920" height="1113" fill="white"/>
</clipPath>
</defs>
</svg>
