<svg width="497" height="79" viewBox="0 0 497 79" fill="none" xmlns="http://www.w3.org/2000/svg">
<path d="M2.8892 4.355C2.8892 4.23767 2.90386 4.15333 2.9332 4.102C2.96986 4.05067 3.03953 4.025 3.1422 4.025C3.2522 4.025 3.38786 4.11667 3.5492 4.3C3.71053 4.48333 3.7912 4.67767 3.7912 4.883C3.7912 5.39633 3.47586 6.69433 2.8452 8.777C2.52986 9.789 2.3722 10.394 2.3722 10.592C2.3722 10.79 2.46753 10.889 2.6582 10.889C3.48686 10.889 4.3962 10.7533 5.3862 10.482C5.70153 10.394 5.88853 10.35 5.9472 10.35C6.0132 10.35 6.0572 10.3647 6.0792 10.394C6.1012 10.416 6.1122 10.4637 6.1122 10.537C6.1122 10.845 5.73453 11.1347 4.9792 11.406C4.2312 11.6773 3.46853 11.813 2.6912 11.813C2.3392 11.813 2.0312 11.7103 1.7672 11.505C1.51053 11.2997 1.3822 11.0577 1.3822 10.779C1.3822 10.493 1.63153 9.47733 2.1302 7.732C2.6362 5.98667 2.8892 4.861 2.8892 4.355ZM8.99308 8.337C8.59708 9.591 8.39908 10.35 8.39908 10.614C8.39908 10.702 8.42474 10.7753 8.47608 10.834C8.53474 10.8853 8.60808 10.911 8.69608 10.911C9.53941 10.911 10.4707 10.7753 11.4901 10.504C11.8201 10.416 12.0107 10.372 12.0621 10.372C12.1721 10.372 12.2271 10.449 12.2271 10.603C12.2271 10.867 11.8201 11.1383 11.0061 11.417C10.1994 11.6957 9.41841 11.835 8.66308 11.835C8.32574 11.835 8.02874 11.736 7.77208 11.538C7.52274 11.34 7.39808 11.0907 7.39808 10.79C7.39808 10.4893 7.50441 9.976 7.71708 9.25C7.93708 8.524 8.15708 7.75033 8.37708 6.929C8.59708 6.10767 8.70708 5.41467 8.70708 4.85C8.70708 4.76933 8.72174 4.685 8.75108 4.597C8.87574 4.32567 9.67508 4.19 11.1491 4.19C12.6231 4.19 13.3601 4.29633 13.3601 4.509C13.3601 4.65567 13.2024 4.75467 12.8871 4.806C12.6231 4.85733 12.2711 4.905 11.8311 4.949C11.3984 4.98567 11.0941 5.015 10.9181 5.037C10.7421 5.05167 10.3167 5.11767 9.64208 5.235V5.268C9.64208 5.76667 9.50641 6.51833 9.23508 7.523C9.27908 7.53033 9.42574 7.534 9.67508 7.534C9.93174 7.534 10.2727 7.51567 10.6981 7.479C11.1234 7.44233 11.4424 7.424 11.6551 7.424C11.8751 7.424 11.9851 7.47533 11.9851 7.578C11.9851 7.83467 11.6844 8.02533 11.0831 8.15C10.4817 8.27467 9.78508 8.337 8.99308 8.337ZM18.2106 5.136C17.7486 5.136 17.2353 5.389 16.6706 5.895C16.1133 6.401 15.6366 7.03533 15.2406 7.798C14.8446 8.55333 14.6466 9.25733 14.6466 9.91C14.6466 10.174 14.731 10.4013 14.8996 10.592C15.0683 10.7753 15.2663 10.867 15.4936 10.867C15.8456 10.867 16.2563 10.6763 16.7256 10.295C17.2023 9.90633 17.6423 9.40767 18.0456 8.799C17.635 8.909 17.3306 8.964 17.1326 8.964C16.9346 8.964 16.766 8.91267 16.6266 8.81C16.4873 8.7 16.4176 8.59733 16.4176 8.502C16.4176 8.38467 16.5753 8.293 16.8906 8.227C17.206 8.15367 17.602 8.117 18.0786 8.117C18.3426 8.117 18.5553 8.23067 18.7166 8.458C18.8853 8.678 18.9696 8.93833 18.9696 9.239C18.9696 9.53233 18.7863 10.229 18.4196 11.329C18.053 12.429 17.7743 12.979 17.5836 12.979C17.4003 12.979 17.3086 12.8727 17.3086 12.66C17.3086 12.4547 17.36 12.176 17.4626 11.824C17.5726 11.472 17.6863 11.1127 17.8036 10.746C17.921 10.372 18.0163 10.0677 18.0896 9.833C17.7303 10.4417 17.3233 10.9257 16.8686 11.285C16.414 11.637 15.9703 11.813 15.5376 11.813C15.1123 11.813 14.6906 11.615 14.2726 11.219C13.8546 10.8157 13.6456 10.3757 13.6456 9.899C13.6456 9.15833 13.8803 8.33333 14.3496 7.424C14.819 6.51467 15.4093 5.73733 16.1206 5.092C16.832 4.43933 17.4993 4.113 18.1226 4.113C18.328 4.113 18.5296 4.23767 18.7276 4.487C18.9256 4.729 19.0246 4.927 19.0246 5.081C19.0246 5.22767 18.9843 5.301 18.9036 5.301C18.8816 5.301 18.801 5.27533 18.6616 5.224C18.5223 5.16533 18.372 5.136 18.2106 5.136ZM22.1523 8.337C21.7563 9.591 21.5583 10.35 21.5583 10.614C21.5583 10.702 21.5839 10.7753 21.6353 10.834C21.6939 10.8853 21.7673 10.911 21.8553 10.911C22.6986 10.911 23.6299 10.7753 24.6493 10.504C24.9793 10.416 25.1699 10.372 25.2213 10.372C25.3313 10.372 25.3863 10.449 25.3863 10.603C25.3863 10.867 24.9793 11.1383 24.1653 11.417C23.3586 11.6957 22.5776 11.835 21.8223 11.835C21.4849 11.835 21.1879 11.736 20.9313 11.538C20.6819 11.34 20.5573 11.0907 20.5573 10.79C20.5573 10.4893 20.6636 9.976 20.8763 9.25C21.0963 8.524 21.3163 7.75033 21.5363 6.929C21.7563 6.10767 21.8663 5.41467 21.8663 4.85C21.8663 4.76933 21.8809 4.685 21.9103 4.597C22.0349 4.32567 22.8343 4.19 24.3083 4.19C25.7823 4.19 26.5193 4.29633 26.5193 4.509C26.5193 4.65567 26.3616 4.75467 26.0463 4.806C25.7823 4.85733 25.4303 4.905 24.9903 4.949C24.5576 4.98567 24.2533 5.015 24.0773 5.037C23.9013 5.05167 23.4759 5.11767 22.8013 5.235V5.268C22.8013 5.76667 22.6656 6.51833 22.3943 7.523C22.4383 7.53033 22.5849 7.534 22.8343 7.534C23.0909 7.534 23.4319 7.51567 23.8573 7.479C24.2826 7.44233 24.6016 7.424 24.8143 7.424C25.0343 7.424 25.1443 7.47533 25.1443 7.578C25.1443 7.83467 24.8436 8.02533 24.2423 8.15C23.6409 8.27467 22.9443 8.337 22.1523 8.337ZM32.4808 4.52C32.4955 4.20467 32.5688 4.047 32.7008 4.047C32.8402 4.047 32.9905 4.13133 33.1518 4.3C33.3132 4.46867 33.3938 4.619 33.3938 4.751C33.3938 5.35233 33.2985 6.20667 33.1078 7.314C32.9245 8.42133 32.6752 9.448 32.3598 10.394C32.0518 11.34 31.7585 11.813 31.4798 11.813C31.3845 11.813 31.2745 11.7653 31.1498 11.67C31.0325 11.5747 30.9408 11.4573 30.8748 11.318C30.6548 10.8047 30.0058 9.17667 28.9278 6.434C28.7078 7.28467 28.4622 8.249 28.1908 9.327C27.9268 10.3977 27.7508 11.0797 27.6628 11.373C27.5748 11.6663 27.4978 11.813 27.4318 11.813C27.3365 11.813 27.2192 11.7323 27.0798 11.571C26.9478 11.4023 26.8818 11.23 26.8818 11.054C26.8818 10.878 27.1202 9.84767 27.5968 7.963C28.0735 6.071 28.3192 4.89033 28.3338 4.421C28.3338 4.18633 28.3962 4.069 28.5208 4.069C28.6015 4.069 28.7115 4.13867 28.8508 4.278C28.9975 4.41 29.1038 4.55667 29.1698 4.718C30.3505 7.78333 31.0985 9.66067 31.4138 10.35C31.8905 9.08867 32.2095 7.58167 32.3708 5.829C32.4442 5.02233 32.4808 4.586 32.4808 4.52ZM35.4042 4.069C36.0935 4.069 36.8268 4.24867 37.6042 4.608C38.3888 4.96733 39.0635 5.466 39.6282 6.104C40.1928 6.73467 40.4752 7.391 40.4752 8.073C40.4752 8.52033 40.1635 9.04833 39.5402 9.657C38.9242 10.2583 38.2092 10.7753 37.3952 11.208C36.5812 11.6333 35.9065 11.846 35.3712 11.846C35.2318 11.846 35.0705 11.7287 34.8872 11.494C34.7112 11.252 34.6232 11.01 34.6232 10.768C34.6232 10.5187 34.8358 9.63133 35.2612 8.106C35.6865 6.58067 35.9175 5.576 35.9542 5.092C35.7195 4.99667 35.5325 4.872 35.3932 4.718C35.2538 4.564 35.1842 4.41733 35.1842 4.278C35.1842 4.13867 35.2575 4.069 35.4042 4.069ZM39.4632 7.952C39.4632 7.49733 39.1918 7.006 38.6492 6.478C38.1065 5.94267 37.4758 5.55767 36.7572 5.323C36.7938 5.455 36.8122 5.61267 36.8122 5.796C36.8122 5.972 36.7462 6.30567 36.6142 6.797C36.4895 7.28833 36.2585 8.10967 35.9212 9.261C35.7818 9.745 35.6682 10.2767 35.5802 10.856C36.0862 10.79 36.6508 10.57 37.2742 10.196C37.9048 9.81467 38.4255 9.40767 38.8362 8.975C39.2542 8.54233 39.4632 8.20133 39.4632 7.952Z" fill="#7A756D"/>
<path d="M14.7002 27H0.700195V37H14.7002V27Z" stroke="#1C1B1A" stroke-width="1.4"/>
<path d="M24.4882 27.976C24.4882 27.664 24.5842 27.508 24.7762 27.508C24.9282 27.508 25.0882 27.628 25.2562 27.868C25.4322 28.108 25.5202 28.34 25.5202 28.564C25.5202 29.084 25.3882 29.972 25.1242 31.228C24.8682 32.476 24.5322 33.724 24.1162 34.972C24.9162 33.524 25.5842 32.48 26.1202 31.84C26.6642 31.192 27.1282 30.868 27.5122 30.868C27.7202 30.868 27.9602 31.048 28.2322 31.408C28.5122 31.768 28.6522 32.128 28.6522 32.488C28.6522 32.848 28.5522 33.388 28.3522 34.108C27.8562 35.916 27.3882 36.82 26.9482 36.82C26.7722 36.82 26.6842 36.7 26.6842 36.46C26.6842 36.22 26.7802 35.816 26.9722 35.248C27.3962 34.008 27.6082 33.172 27.6082 32.74C27.6082 32.596 27.5722 32.476 27.5002 32.38C27.4282 32.284 27.3402 32.236 27.2362 32.236C27.1322 32.236 27.0042 32.292 26.8522 32.404C26.7002 32.516 26.5162 32.712 26.3002 32.992C26.0282 33.352 25.7442 33.756 25.4482 34.204C25.1602 34.652 24.9842 34.924 24.9202 35.02C24.8642 35.108 24.7602 35.272 24.6082 35.512C24.4642 35.752 24.3562 35.932 24.2842 36.052C24.2122 36.164 24.1242 36.288 24.0202 36.424C23.8362 36.688 23.6962 36.82 23.6002 36.82C23.5042 36.82 23.3762 36.732 23.2162 36.556C23.0562 36.372 22.9762 36.22 22.9762 36.1C22.9762 35.972 23.0202 35.736 23.1082 35.392C23.5082 33.856 23.7602 32.804 23.8642 32.236C24.2802 30.156 24.4882 28.736 24.4882 27.976ZM32.6978 30.868C33.0578 30.868 33.3898 31.052 33.6938 31.42C33.9978 31.78 34.1498 32.108 34.1498 32.404C34.1498 32.692 34.0498 32.988 33.8498 33.292C33.9458 33.412 33.9938 33.516 33.9938 33.604C33.9938 33.828 33.9418 34.212 33.8378 34.756C33.7418 35.3 33.6818 35.656 33.6578 35.824C33.6418 35.992 33.6258 36.128 33.6098 36.232C33.5938 36.328 33.5738 36.424 33.5498 36.52C33.5178 36.72 33.4458 36.82 33.3338 36.82C33.1898 36.82 33.0698 36.696 32.9738 36.448C32.8858 36.192 32.8338 35.864 32.8178 35.464C32.1058 36.368 31.4458 36.82 30.8378 36.82C30.4698 36.82 30.1058 36.664 29.7458 36.352C29.3938 36.032 29.2178 35.704 29.2178 35.368C29.2178 34.888 29.3938 34.296 29.7458 33.592C30.0978 32.88 30.5538 32.248 31.1138 31.696C31.6738 31.144 32.2018 30.868 32.6978 30.868ZM33.2498 32.98C33.2498 32.236 33.1018 31.864 32.8058 31.864C32.4938 31.864 32.1298 32.088 31.7138 32.536C31.2978 32.976 30.9458 33.476 30.6578 34.036C30.3698 34.596 30.2258 35.04 30.2258 35.368C30.2258 35.504 30.2818 35.616 30.3938 35.704C30.5058 35.784 30.6378 35.824 30.7898 35.824C31.1658 35.824 31.5898 35.572 32.0618 35.068C32.5338 34.556 32.8618 33.936 33.0458 33.208C33.0698 33.088 33.1378 33.016 33.2498 32.992V32.98ZM36.4748 35.62C36.4748 35.772 36.5628 35.848 36.7388 35.848C37.0428 35.848 37.4108 35.764 37.8428 35.596C38.2828 35.42 38.5268 35.332 38.5748 35.332C38.7188 35.332 38.7908 35.408 38.7908 35.56C38.7908 35.792 38.5508 36.06 38.0708 36.364C37.5988 36.668 37.1668 36.82 36.7748 36.82C36.3908 36.82 36.0708 36.716 35.8148 36.508C35.5588 36.292 35.4308 36.072 35.4308 35.848C35.4308 35.624 35.4788 35.34 35.5748 34.996C35.6708 34.644 35.8068 34.184 35.9828 33.616C36.1668 33.04 36.3108 32.564 36.4148 32.188C36.0388 32.276 35.7868 32.32 35.6588 32.32C35.5308 32.32 35.4028 32.256 35.2748 32.128C35.1548 31.992 35.0948 31.864 35.0948 31.744C35.0948 31.552 35.6148 31.368 36.6548 31.192C36.7988 30.528 36.8708 29.94 36.8708 29.428C36.8708 29.188 36.9508 29.068 37.1108 29.068C37.2468 29.068 37.4148 29.156 37.6148 29.332C37.8148 29.5 37.9148 29.692 37.9148 29.908C37.9148 30.124 37.8468 30.504 37.7108 31.048C38.1668 31.008 38.5308 30.988 38.8028 30.988C39.2828 30.988 39.5228 31.092 39.5228 31.3C39.5228 31.42 39.3908 31.52 39.1268 31.6C38.8708 31.68 38.3268 31.804 37.4948 31.972C37.3268 32.604 37.1148 33.328 36.8588 34.144C36.6028 34.952 36.4748 35.444 36.4748 35.62ZM41.7034 36.82C41.2394 36.82 40.8034 36.64 40.3954 36.28C39.9874 35.912 39.7834 35.48 39.7834 34.984C39.7834 34.48 39.9514 33.9 40.2874 33.244C40.6234 32.588 41.0554 32.028 41.5834 31.564C42.1194 31.1 42.6394 30.868 43.1434 30.868C43.4714 30.868 43.7594 31.016 44.0074 31.312C44.2554 31.608 44.3794 31.868 44.3794 32.092C44.3794 32.156 44.3594 32.212 44.3194 32.26C44.2794 32.3 44.2194 32.32 44.1394 32.32C44.0674 32.32 43.9354 32.248 43.7434 32.104C43.5514 31.96 43.3794 31.888 43.2274 31.888C42.7954 31.888 42.2914 32.268 41.7154 33.028C41.1394 33.788 40.8514 34.452 40.8514 35.02C40.8514 35.268 40.9274 35.464 41.0794 35.608C41.2394 35.752 41.4914 35.824 41.8354 35.824C42.1874 35.824 42.5074 35.784 42.7954 35.704C43.0914 35.616 43.3194 35.532 43.4794 35.452C43.6394 35.364 43.7634 35.32 43.8514 35.32C44.0034 35.32 44.0794 35.396 44.0794 35.548C44.0794 35.78 43.7994 36.052 43.2394 36.364C42.6874 36.668 42.1754 36.82 41.7034 36.82ZM46.5312 27.976C46.5312 27.664 46.6272 27.508 46.8192 27.508C46.9712 27.508 47.1312 27.628 47.2992 27.868C47.4752 28.108 47.5632 28.34 47.5632 28.564C47.5632 29.084 47.4312 29.972 47.1672 31.228C46.9112 32.476 46.5752 33.724 46.1592 34.972C46.9592 33.524 47.6272 32.48 48.1632 31.84C48.7072 31.192 49.1712 30.868 49.5552 30.868C49.7632 30.868 50.0032 31.048 50.2752 31.408C50.5552 31.768 50.6952 32.128 50.6952 32.488C50.6952 32.848 50.5952 33.388 50.3952 34.108C49.8992 35.916 49.4312 36.82 48.9912 36.82C48.8152 36.82 48.7272 36.7 48.7272 36.46C48.7272 36.22 48.8232 35.816 49.0152 35.248C49.4392 34.008 49.6512 33.172 49.6512 32.74C49.6512 32.596 49.6152 32.476 49.5432 32.38C49.4712 32.284 49.3832 32.236 49.2792 32.236C49.1752 32.236 49.0472 32.292 48.8952 32.404C48.7432 32.516 48.5592 32.712 48.3432 32.992C48.0712 33.352 47.7872 33.756 47.4912 34.204C47.2032 34.652 47.0272 34.924 46.9632 35.02C46.9072 35.108 46.8032 35.272 46.6512 35.512C46.5072 35.752 46.3992 35.932 46.3272 36.052C46.2552 36.164 46.1672 36.288 46.0632 36.424C45.8792 36.688 45.7392 36.82 45.6432 36.82C45.5472 36.82 45.4192 36.732 45.2592 36.556C45.0992 36.372 45.0192 36.22 45.0192 36.1C45.0192 35.972 45.0632 35.736 45.1512 35.392C45.5512 33.856 45.8032 32.804 45.9072 32.236C46.3232 30.156 46.5312 28.736 46.5312 27.976ZM56.3368 32.86C56.3368 33.284 56.1048 33.632 55.6408 33.904C55.1848 34.168 54.6648 34.3 54.0808 34.3C53.5048 34.3 52.9808 34.236 52.5088 34.108C52.3968 34.46 52.3408 34.776 52.3408 35.056C52.3408 35.328 52.4248 35.54 52.5928 35.692C52.7688 35.844 53.0528 35.92 53.4448 35.92C53.8448 35.92 54.2528 35.852 54.6688 35.716C55.0928 35.572 55.3248 35.5 55.3648 35.5C55.5728 35.5 55.6768 35.58 55.6768 35.74C55.6768 35.956 55.4328 36.192 54.9448 36.448C54.4568 36.696 53.9808 36.82 53.5168 36.82C52.8928 36.82 52.3848 36.636 51.9928 36.268C51.6008 35.892 51.4048 35.42 51.4048 34.852C51.4048 34.284 51.5568 33.692 51.8608 33.076C52.1648 32.452 52.5568 31.928 53.0368 31.504C53.5168 31.08 53.9928 30.868 54.4648 30.868C54.9368 30.868 55.3648 31.092 55.7488 31.54C56.1408 31.988 56.3368 32.428 56.3368 32.86ZM54.5248 31.816C54.2288 31.816 53.9208 31.972 53.6008 32.284C53.2808 32.588 53.0088 32.968 52.7848 33.424C53.1048 33.496 53.4688 33.532 53.8768 33.532C54.2848 33.532 54.6408 33.468 54.9448 33.34C55.2488 33.204 55.4008 33.028 55.4008 32.812C55.4008 32.596 55.3008 32.376 55.1008 32.152C54.9088 31.928 54.7168 31.816 54.5248 31.816ZM62.0871 27.508C62.2151 27.508 62.3711 27.628 62.5551 27.868C62.7471 28.1 62.8431 28.32 62.8431 28.528C62.8431 28.736 62.7431 29.328 62.5431 30.304C62.3431 31.272 62.1111 32.276 61.8471 33.316C61.2711 35.652 60.8911 36.82 60.7071 36.82C60.5951 36.82 60.4711 36.752 60.3351 36.616C60.2071 36.472 60.1431 36.348 60.1431 36.244C60.1431 36.14 60.1711 35.932 60.2271 35.62C59.4431 36.42 58.7591 36.82 58.1751 36.82C57.8231 36.82 57.5031 36.66 57.2151 36.34C56.9351 36.02 56.7951 35.688 56.7951 35.344C56.7951 34.848 56.9271 34.26 57.1911 33.58C57.4631 32.892 57.8511 32.268 58.3551 31.708C58.8591 31.148 59.3951 30.868 59.9631 30.868C60.5311 30.868 60.9271 31.208 61.1511 31.888C61.5591 30.192 61.7831 28.852 61.8231 27.868C61.8231 27.628 61.9111 27.508 62.0871 27.508ZM60.7671 33.4C60.7671 32.968 60.6911 32.604 60.5391 32.308C60.3951 32.012 60.2191 31.864 60.0111 31.864C59.6671 31.864 59.3151 32.076 58.9551 32.5C58.5951 32.924 58.3071 33.412 58.0911 33.964C57.8831 34.508 57.7791 34.98 57.7791 35.38C57.7791 35.524 57.8311 35.64 57.9351 35.728C58.0391 35.816 58.1631 35.86 58.3071 35.86C58.6191 35.86 59.0391 35.636 59.5671 35.188C60.1031 34.74 60.4911 34.212 60.7311 33.604L60.7671 33.46V33.4ZM68.0678 34.12C68.0678 33.984 68.8278 33.828 70.3478 33.652C71.8678 33.476 72.8918 33.388 73.4198 33.388C73.9558 33.388 74.2238 33.488 74.2238 33.688C74.2238 33.984 73.2918 34.256 71.4278 34.504C70.0838 34.672 69.1158 34.756 68.5238 34.756C68.4198 34.748 68.3158 34.668 68.2118 34.516C68.1158 34.356 68.0678 34.224 68.0678 34.12ZM68.4518 31.768C68.4598 31.6 69.0798 31.452 70.3118 31.324C71.5518 31.196 72.5678 31.132 73.3598 31.132C74.1518 31.132 74.5478 31.256 74.5478 31.504C74.5478 31.64 74.3718 31.748 74.0198 31.828C73.6758 31.908 72.8478 32.024 71.5358 32.176C70.2238 32.328 69.3518 32.404 68.9198 32.404C68.8158 32.404 68.7118 32.328 68.6078 32.176C68.5038 32.016 68.4518 31.88 68.4518 31.768ZM84.0665 30.832C84.4105 30.832 84.7065 31.052 84.9545 31.492C85.2105 31.932 85.3385 32.388 85.3385 32.86C85.3385 33.324 85.2025 33.792 84.9305 34.264C84.6585 34.728 84.3225 35.144 83.9225 35.512C83.5225 35.88 83.0785 36.188 82.5905 36.436C82.1105 36.676 81.6665 36.796 81.2585 36.796C81.0985 36.796 80.9465 36.776 80.8025 36.736C80.7705 36.872 80.7145 37.116 80.6345 37.468C80.5545 37.82 80.4865 38.112 80.4305 38.344C80.3745 38.576 80.3105 38.824 80.2385 39.088C80.0945 39.632 79.9665 39.904 79.8545 39.904C79.7425 39.904 79.6265 39.816 79.5065 39.64C79.3785 39.472 79.3145 39.32 79.3145 39.184C79.3145 39.048 79.4425 38.464 79.6985 37.432C80.4665 34.32 80.8505 32.224 80.8505 31.144C80.8505 30.904 80.9385 30.784 81.1145 30.784C81.2585 30.784 81.4305 30.892 81.6305 31.108C81.8385 31.316 81.9425 31.548 81.9425 31.804C81.9425 31.932 81.9265 32.072 81.8945 32.224C82.6065 31.296 83.3305 30.832 84.0665 30.832ZM81.1385 35.86C81.5625 35.86 82.0185 35.716 82.5065 35.428C83.0025 35.14 83.4225 34.76 83.7665 34.288C84.1185 33.808 84.2945 33.332 84.2945 32.86C84.2945 32.196 84.1385 31.864 83.8265 31.864C83.5145 31.864 83.0905 32.132 82.5545 32.668C82.0265 33.204 81.6065 33.9 81.2945 34.756L81.0185 35.86H81.1385ZM87.289 27.976C87.289 27.664 87.385 27.508 87.577 27.508C87.729 27.508 87.889 27.628 88.057 27.868C88.233 28.108 88.321 28.34 88.321 28.564C88.321 29.084 88.189 29.972 87.925 31.228C87.669 32.476 87.333 33.724 86.917 34.972C87.717 33.524 88.385 32.48 88.921 31.84C89.465 31.192 89.929 30.868 90.313 30.868C90.521 30.868 90.761 31.048 91.033 31.408C91.313 31.768 91.453 32.128 91.453 32.488C91.453 32.848 91.353 33.388 91.153 34.108C90.657 35.916 90.189 36.82 89.749 36.82C89.573 36.82 89.485 36.7 89.485 36.46C89.485 36.22 89.581 35.816 89.773 35.248C90.197 34.008 90.409 33.172 90.409 32.74C90.409 32.596 90.373 32.476 90.301 32.38C90.229 32.284 90.141 32.236 90.037 32.236C89.933 32.236 89.805 32.292 89.653 32.404C89.501 32.516 89.317 32.712 89.101 32.992C88.829 33.352 88.545 33.756 88.249 34.204C87.961 34.652 87.785 34.924 87.721 35.02C87.665 35.108 87.561 35.272 87.409 35.512C87.265 35.752 87.157 35.932 87.085 36.052C87.013 36.164 86.925 36.288 86.821 36.424C86.637 36.688 86.497 36.82 86.401 36.82C86.305 36.82 86.177 36.732 86.017 36.556C85.857 36.372 85.777 36.22 85.777 36.1C85.777 35.972 85.821 35.736 85.909 35.392C86.309 33.856 86.561 32.804 86.665 32.236C87.081 30.156 87.289 28.736 87.289 27.976ZM95.9306 32.908C95.9306 32.636 95.8866 32.38 95.7986 32.14C95.7106 31.892 95.5826 31.712 95.4146 31.6C94.8626 31.752 94.3866 32.18 93.9866 32.884C93.5946 33.58 93.3986 34.236 93.3986 34.852C93.3986 35.468 93.5506 35.852 93.8546 36.004C94.4306 35.892 94.9186 35.5 95.3186 34.828C95.7266 34.148 95.9306 33.508 95.9306 32.908ZM92.7746 33.016C93.0546 32.392 93.4186 31.88 93.8666 31.48C94.3226 31.072 94.7866 30.868 95.2586 30.868C95.7386 30.868 96.1386 31.072 96.4586 31.48C96.7786 31.88 96.9386 32.372 96.9386 32.956C96.9386 33.532 96.7986 34.124 96.5186 34.732C96.2386 35.332 95.8506 35.832 95.3546 36.232C94.8666 36.624 94.3466 36.82 93.7946 36.82C93.3866 36.82 93.0466 36.632 92.7746 36.256C92.5026 35.88 92.3666 35.404 92.3666 34.828C92.3666 34.244 92.5026 33.64 92.7746 33.016ZM99.0881 35.62C99.0881 35.772 99.1761 35.848 99.3521 35.848C99.6561 35.848 100.024 35.764 100.456 35.596C100.896 35.42 101.14 35.332 101.188 35.332C101.332 35.332 101.404 35.408 101.404 35.56C101.404 35.792 101.164 36.06 100.684 36.364C100.212 36.668 99.7801 36.82 99.3881 36.82C99.0041 36.82 98.6841 36.716 98.4281 36.508C98.1721 36.292 98.0441 36.072 98.0441 35.848C98.0441 35.624 98.0921 35.34 98.1881 34.996C98.2841 34.644 98.4201 34.184 98.5961 33.616C98.7801 33.04 98.9241 32.564 99.0281 32.188C98.6521 32.276 98.4001 32.32 98.2721 32.32C98.1441 32.32 98.0161 32.256 97.8881 32.128C97.7681 31.992 97.7081 31.864 97.7081 31.744C97.7081 31.552 98.2281 31.368 99.2681 31.192C99.4121 30.528 99.4841 29.94 99.4841 29.428C99.4841 29.188 99.5641 29.068 99.7241 29.068C99.8601 29.068 100.028 29.156 100.228 29.332C100.428 29.5 100.528 29.692 100.528 29.908C100.528 30.124 100.46 30.504 100.324 31.048C100.78 31.008 101.144 30.988 101.416 30.988C101.896 30.988 102.136 31.092 102.136 31.3C102.136 31.42 102.004 31.52 101.74 31.6C101.484 31.68 100.94 31.804 100.108 31.972C99.9401 32.604 99.7281 33.328 99.4721 34.144C99.2161 34.952 99.0881 35.444 99.0881 35.62ZM106.009 32.908C106.009 32.636 105.965 32.38 105.877 32.14C105.789 31.892 105.661 31.712 105.493 31.6C104.941 31.752 104.465 32.18 104.065 32.884C103.673 33.58 103.477 34.236 103.477 34.852C103.477 35.468 103.629 35.852 103.933 36.004C104.509 35.892 104.997 35.5 105.397 34.828C105.805 34.148 106.009 33.508 106.009 32.908ZM102.853 33.016C103.133 32.392 103.497 31.88 103.945 31.48C104.401 31.072 104.865 30.868 105.337 30.868C105.817 30.868 106.217 31.072 106.537 31.48C106.857 31.88 107.017 32.372 107.017 32.956C107.017 33.532 106.877 34.124 106.597 34.732C106.317 35.332 105.929 35.832 105.433 36.232C104.945 36.624 104.425 36.82 103.873 36.82C103.465 36.82 103.125 36.632 102.853 36.256C102.581 35.88 102.445 35.404 102.445 34.828C102.445 34.244 102.581 33.64 102.853 33.016ZM116.563 30.832C116.907 30.832 117.203 31.052 117.451 31.492C117.707 31.932 117.835 32.388 117.835 32.86C117.835 33.324 117.699 33.792 117.427 34.264C117.155 34.728 116.819 35.144 116.419 35.512C116.019 35.88 115.575 36.188 115.087 36.436C114.607 36.676 114.163 36.796 113.755 36.796C113.595 36.796 113.443 36.776 113.299 36.736C113.267 36.872 113.211 37.116 113.131 37.468C113.051 37.82 112.983 38.112 112.927 38.344C112.871 38.576 112.807 38.824 112.735 39.088C112.591 39.632 112.463 39.904 112.351 39.904C112.239 39.904 112.123 39.816 112.003 39.64C111.875 39.472 111.811 39.32 111.811 39.184C111.811 39.048 111.939 38.464 112.195 37.432C112.963 34.32 113.347 32.224 113.347 31.144C113.347 30.904 113.435 30.784 113.611 30.784C113.755 30.784 113.927 30.892 114.127 31.108C114.335 31.316 114.439 31.548 114.439 31.804C114.439 31.932 114.423 32.072 114.391 32.224C115.103 31.296 115.827 30.832 116.563 30.832ZM113.635 35.86C114.059 35.86 114.515 35.716 115.003 35.428C115.499 35.14 115.919 34.76 116.263 34.288C116.615 33.808 116.791 33.332 116.791 32.86C116.791 32.196 116.635 31.864 116.323 31.864C116.011 31.864 115.587 32.132 115.051 32.668C114.523 33.204 114.103 33.9 113.791 34.756L113.515 35.86H113.635ZM120.733 28.516C120.733 30.02 120.421 31.972 119.797 34.372C119.397 36.004 119.117 36.82 118.957 36.82C118.845 36.82 118.713 36.732 118.561 36.556C118.417 36.38 118.345 36.244 118.345 36.148C118.345 36.052 118.461 35.556 118.693 34.66C118.925 33.764 119.157 32.664 119.389 31.36C119.621 30.048 119.737 28.868 119.737 27.82C119.737 27.708 119.753 27.628 119.785 27.58C119.817 27.532 119.885 27.508 119.989 27.508C120.093 27.508 120.241 27.624 120.433 27.856C120.633 28.08 120.733 28.3 120.733 28.516ZM124.502 30.868C124.862 30.868 125.194 31.052 125.498 31.42C125.802 31.78 125.954 32.108 125.954 32.404C125.954 32.692 125.854 32.988 125.654 33.292C125.75 33.412 125.798 33.516 125.798 33.604C125.798 33.828 125.746 34.212 125.642 34.756C125.546 35.3 125.486 35.656 125.462 35.824C125.446 35.992 125.43 36.128 125.414 36.232C125.398 36.328 125.378 36.424 125.354 36.52C125.322 36.72 125.25 36.82 125.138 36.82C124.994 36.82 124.874 36.696 124.778 36.448C124.69 36.192 124.638 35.864 124.622 35.464C123.91 36.368 123.25 36.82 122.642 36.82C122.274 36.82 121.91 36.664 121.55 36.352C121.198 36.032 121.022 35.704 121.022 35.368C121.022 34.888 121.198 34.296 121.55 33.592C121.902 32.88 122.358 32.248 122.918 31.696C123.478 31.144 124.006 30.868 124.502 30.868ZM125.054 32.98C125.054 32.236 124.906 31.864 124.61 31.864C124.298 31.864 123.934 32.088 123.518 32.536C123.102 32.976 122.75 33.476 122.462 34.036C122.174 34.596 122.03 35.04 122.03 35.368C122.03 35.504 122.086 35.616 122.198 35.704C122.31 35.784 122.442 35.824 122.594 35.824C122.97 35.824 123.394 35.572 123.866 35.068C124.338 34.556 124.666 33.936 124.85 33.208C124.874 33.088 124.942 33.016 125.054 32.992V32.98ZM128.867 36.82C128.403 36.82 127.967 36.64 127.559 36.28C127.151 35.912 126.947 35.48 126.947 34.984C126.947 34.48 127.115 33.9 127.451 33.244C127.787 32.588 128.219 32.028 128.747 31.564C129.283 31.1 129.803 30.868 130.307 30.868C130.635 30.868 130.923 31.016 131.171 31.312C131.419 31.608 131.543 31.868 131.543 32.092C131.543 32.156 131.523 32.212 131.483 32.26C131.443 32.3 131.383 32.32 131.303 32.32C131.231 32.32 131.099 32.248 130.907 32.104C130.715 31.96 130.543 31.888 130.391 31.888C129.959 31.888 129.455 32.268 128.879 33.028C128.303 33.788 128.015 34.452 128.015 35.02C128.015 35.268 128.091 35.464 128.243 35.608C128.403 35.752 128.655 35.824 128.999 35.824C129.351 35.824 129.671 35.784 129.959 35.704C130.255 35.616 130.483 35.532 130.643 35.452C130.803 35.364 130.927 35.32 131.015 35.32C131.167 35.32 131.243 35.396 131.243 35.548C131.243 35.78 130.963 36.052 130.403 36.364C129.851 36.668 129.339 36.82 128.867 36.82ZM137.067 32.86C137.067 33.284 136.835 33.632 136.371 33.904C135.915 34.168 135.395 34.3 134.811 34.3C134.235 34.3 133.711 34.236 133.239 34.108C133.127 34.46 133.071 34.776 133.071 35.056C133.071 35.328 133.155 35.54 133.323 35.692C133.499 35.844 133.783 35.92 134.175 35.92C134.575 35.92 134.983 35.852 135.399 35.716C135.823 35.572 136.055 35.5 136.095 35.5C136.303 35.5 136.407 35.58 136.407 35.74C136.407 35.956 136.163 36.192 135.675 36.448C135.187 36.696 134.711 36.82 134.247 36.82C133.623 36.82 133.115 36.636 132.723 36.268C132.331 35.892 132.135 35.42 132.135 34.852C132.135 34.284 132.287 33.692 132.591 33.076C132.895 32.452 133.287 31.928 133.767 31.504C134.247 31.08 134.723 30.868 135.195 30.868C135.667 30.868 136.095 31.092 136.479 31.54C136.871 31.988 137.067 32.428 137.067 32.86ZM135.255 31.816C134.959 31.816 134.651 31.972 134.331 32.284C134.011 32.588 133.739 32.968 133.515 33.424C133.835 33.496 134.199 33.532 134.607 33.532C135.015 33.532 135.371 33.468 135.675 33.34C135.979 33.204 136.131 33.028 136.131 32.812C136.131 32.596 136.031 32.376 135.831 32.152C135.639 31.928 135.447 31.816 135.255 31.816ZM139.098 27.976C139.098 27.664 139.194 27.508 139.386 27.508C139.538 27.508 139.698 27.628 139.866 27.868C140.042 28.108 140.13 28.34 140.13 28.564C140.13 29.084 139.998 29.972 139.734 31.228C139.478 32.476 139.142 33.724 138.726 34.972C139.526 33.524 140.194 32.48 140.73 31.84C141.274 31.192 141.738 30.868 142.122 30.868C142.33 30.868 142.57 31.048 142.842 31.408C143.122 31.768 143.262 32.128 143.262 32.488C143.262 32.848 143.162 33.388 142.962 34.108C142.466 35.916 141.998 36.82 141.558 36.82C141.382 36.82 141.294 36.7 141.294 36.46C141.294 36.22 141.39 35.816 141.582 35.248C142.006 34.008 142.218 33.172 142.218 32.74C142.218 32.596 142.182 32.476 142.11 32.38C142.038 32.284 141.95 32.236 141.846 32.236C141.742 32.236 141.614 32.292 141.462 32.404C141.31 32.516 141.126 32.712 140.91 32.992C140.638 33.352 140.354 33.756 140.058 34.204C139.77 34.652 139.594 34.924 139.53 35.02C139.474 35.108 139.37 35.272 139.218 35.512C139.074 35.752 138.966 35.932 138.894 36.052C138.822 36.164 138.734 36.288 138.63 36.424C138.446 36.688 138.306 36.82 138.21 36.82C138.114 36.82 137.986 36.732 137.826 36.556C137.666 36.372 137.586 36.22 137.586 36.1C137.586 35.972 137.63 35.736 137.718 35.392C138.118 33.856 138.37 32.804 138.474 32.236C138.89 30.156 139.098 28.736 139.098 27.976ZM147.739 32.908C147.739 32.636 147.695 32.38 147.607 32.14C147.519 31.892 147.391 31.712 147.223 31.6C146.671 31.752 146.195 32.18 145.795 32.884C145.403 33.58 145.207 34.236 145.207 34.852C145.207 35.468 145.359 35.852 145.663 36.004C146.239 35.892 146.727 35.5 147.127 34.828C147.535 34.148 147.739 33.508 147.739 32.908ZM144.583 33.016C144.863 32.392 145.227 31.88 145.675 31.48C146.131 31.072 146.595 30.868 147.067 30.868C147.547 30.868 147.947 31.072 148.267 31.48C148.587 31.88 148.747 32.372 148.747 32.956C148.747 33.532 148.607 34.124 148.327 34.732C148.047 35.332 147.659 35.832 147.163 36.232C146.675 36.624 146.155 36.82 145.603 36.82C145.195 36.82 144.855 36.632 144.583 36.256C144.311 35.88 144.175 35.404 144.175 34.828C144.175 34.244 144.311 33.64 144.583 33.016ZM151.917 28.516C151.917 30.02 151.605 31.972 150.981 34.372C150.581 36.004 150.301 36.82 150.141 36.82C150.029 36.82 149.897 36.732 149.745 36.556C149.601 36.38 149.529 36.244 149.529 36.148C149.529 36.052 149.645 35.556 149.877 34.66C150.109 33.764 150.341 32.664 150.573 31.36C150.805 30.048 150.921 28.868 150.921 27.82C150.921 27.708 150.937 27.628 150.969 27.58C151.001 27.532 151.069 27.508 151.173 27.508C151.277 27.508 151.425 27.624 151.617 27.856C151.817 28.08 151.917 28.3 151.917 28.516ZM157.63 27.508C157.758 27.508 157.914 27.628 158.098 27.868C158.29 28.1 158.386 28.32 158.386 28.528C158.386 28.736 158.286 29.328 158.086 30.304C157.886 31.272 157.654 32.276 157.39 33.316C156.814 35.652 156.434 36.82 156.25 36.82C156.138 36.82 156.014 36.752 155.878 36.616C155.75 36.472 155.686 36.348 155.686 36.244C155.686 36.14 155.714 35.932 155.77 35.62C154.986 36.42 154.302 36.82 153.718 36.82C153.366 36.82 153.046 36.66 152.758 36.34C152.478 36.02 152.338 35.688 152.338 35.344C152.338 34.848 152.47 34.26 152.734 33.58C153.006 32.892 153.394 32.268 153.898 31.708C154.402 31.148 154.938 30.868 155.506 30.868C156.074 30.868 156.47 31.208 156.694 31.888C157.102 30.192 157.326 28.852 157.366 27.868C157.366 27.628 157.454 27.508 157.63 27.508ZM156.31 33.4C156.31 32.968 156.234 32.604 156.082 32.308C155.938 32.012 155.762 31.864 155.554 31.864C155.21 31.864 154.858 32.076 154.498 32.5C154.138 32.924 153.85 33.412 153.634 33.964C153.426 34.508 153.322 34.98 153.322 35.38C153.322 35.524 153.374 35.64 153.478 35.728C153.582 35.816 153.706 35.86 153.85 35.86C154.162 35.86 154.582 35.636 155.11 35.188C155.646 34.74 156.034 34.212 156.274 33.604L156.31 33.46V33.4ZM163.27 32.86C163.27 33.284 163.038 33.632 162.574 33.904C162.118 34.168 161.598 34.3 161.014 34.3C160.438 34.3 159.914 34.236 159.442 34.108C159.33 34.46 159.274 34.776 159.274 35.056C159.274 35.328 159.358 35.54 159.526 35.692C159.702 35.844 159.986 35.92 160.378 35.92C160.778 35.92 161.186 35.852 161.602 35.716C162.026 35.572 162.258 35.5 162.298 35.5C162.506 35.5 162.61 35.58 162.61 35.74C162.61 35.956 162.366 36.192 161.878 36.448C161.39 36.696 160.914 36.82 160.45 36.82C159.826 36.82 159.318 36.636 158.926 36.268C158.534 35.892 158.338 35.42 158.338 34.852C158.338 34.284 158.49 33.692 158.794 33.076C159.098 32.452 159.49 31.928 159.97 31.504C160.45 31.08 160.926 30.868 161.398 30.868C161.87 30.868 162.298 31.092 162.682 31.54C163.074 31.988 163.27 32.428 163.27 32.86ZM161.458 31.816C161.162 31.816 160.854 31.972 160.534 32.284C160.214 32.588 159.942 32.968 159.718 33.424C160.038 33.496 160.402 33.532 160.81 33.532C161.218 33.532 161.574 33.468 161.878 33.34C162.182 33.204 162.334 33.028 162.334 32.812C162.334 32.596 162.234 32.376 162.034 32.152C161.842 31.928 161.65 31.816 161.458 31.816ZM164.605 32.332L164.569 31.432C164.569 31.056 164.657 30.868 164.833 30.868C164.985 30.868 165.129 30.968 165.265 31.168C165.409 31.36 165.481 31.592 165.481 31.864C165.481 32.128 165.473 32.328 165.457 32.464C166.153 31.408 166.813 30.88 167.437 30.88C167.829 30.88 168.025 30.976 168.025 31.168C168.025 31.264 167.981 31.352 167.893 31.432C167.805 31.512 167.665 31.604 167.473 31.708C167.049 31.892 166.689 32.176 166.393 32.56C166.105 32.936 165.869 33.364 165.685 33.844C165.501 34.324 165.353 34.728 165.241 35.056C165.137 35.384 165.057 35.64 165.001 35.824C164.945 36.008 164.881 36.188 164.809 36.364C164.681 36.684 164.533 36.844 164.365 36.844C164.229 36.844 164.117 36.768 164.029 36.616C163.949 36.456 163.909 36.304 163.909 36.16C163.909 36.008 163.977 35.712 164.113 35.272C164.441 34.264 164.605 33.284 164.605 32.332Z" fill="black"/>
<path d="M14.7002 45H0.700195V55H14.7002V45Z" fill="#1C1B1A"/>
<path d="M24.3922 54.472C24.2722 54.72 24.1682 54.844 24.0802 54.844C23.9922 54.844 23.8842 54.772 23.7562 54.628C23.6282 54.476 23.5642 54.348 23.5642 54.244C23.5642 54.14 23.6082 53.936 23.6962 53.632C24.0802 52.344 24.3602 51.296 24.5362 50.488C24.1362 50.56 23.8802 50.596 23.7682 50.596C23.6562 50.596 23.5362 50.536 23.4082 50.416C23.2802 50.296 23.2162 50.172 23.2162 50.044C23.2162 49.908 23.3562 49.8 23.6362 49.72C23.9242 49.64 24.3002 49.56 24.7642 49.48C24.7962 49.32 24.8442 49.064 24.9082 48.712C25.1002 47.584 25.3562 46.784 25.6762 46.312C25.9962 45.832 26.4402 45.592 27.0082 45.592C27.4322 45.592 27.8762 45.788 28.3402 46.18C28.8042 46.564 29.0362 46.956 29.0362 47.356C29.0362 47.748 28.9362 47.944 28.7362 47.944C28.5922 47.944 28.4202 47.828 28.2202 47.596C28.0282 47.356 27.8242 47.12 27.6082 46.888C27.4002 46.648 27.2082 46.528 27.0322 46.528C26.6242 46.528 26.2362 47.36 25.8682 49.024L25.7962 49.336C26.7962 49.208 27.5522 49.144 28.0642 49.144C28.5842 49.144 28.8442 49.34 28.8442 49.732C28.8442 49.948 28.6642 50.628 28.3042 51.772C27.9442 52.908 27.7002 53.7 27.5722 54.148C27.4442 54.588 27.2762 54.808 27.0682 54.808C26.9482 54.808 26.8482 54.756 26.7682 54.652C26.6962 54.54 26.6602 54.416 26.6602 54.28C26.6602 54.136 26.7282 53.804 26.8642 53.284C27.0002 52.756 27.1602 52.156 27.3442 51.484C27.5282 50.804 27.6562 50.308 27.7282 49.996C27.3762 50.012 26.6522 50.116 25.5562 50.308C25.0042 52.612 24.6162 54 24.3922 54.472ZM31.776 46.516C31.776 48.02 31.464 49.972 30.84 52.372C30.44 54.004 30.16 54.82 30 54.82C29.888 54.82 29.756 54.732 29.604 54.556C29.46 54.38 29.388 54.244 29.388 54.148C29.388 54.052 29.504 53.556 29.736 52.66C29.968 51.764 30.2 50.664 30.432 49.36C30.664 48.048 30.78 46.868 30.78 45.82C30.78 45.708 30.796 45.628 30.828 45.58C30.86 45.532 30.928 45.508 31.032 45.508C31.136 45.508 31.284 45.624 31.476 45.856C31.676 46.08 31.776 46.3 31.776 46.516ZM34.7174 46.516C34.7174 48.02 34.4054 49.972 33.7814 52.372C33.3814 54.004 33.1014 54.82 32.9414 54.82C32.8294 54.82 32.6974 54.732 32.5454 54.556C32.4014 54.38 32.3294 54.244 32.3294 54.148C32.3294 54.052 32.4454 53.556 32.6774 52.66C32.9094 51.764 33.1414 50.664 33.3734 49.36C33.6054 48.048 33.7214 46.868 33.7214 45.82C33.7214 45.708 33.7374 45.628 33.7694 45.58C33.8014 45.532 33.8694 45.508 33.9734 45.508C34.0774 45.508 34.2254 45.624 34.4174 45.856C34.6174 46.08 34.7174 46.3 34.7174 46.516ZM40.0829 50.86C40.0829 51.284 39.8509 51.632 39.3869 51.904C38.9309 52.168 38.4109 52.3 37.8269 52.3C37.2509 52.3 36.7269 52.236 36.2549 52.108C36.1429 52.46 36.0869 52.776 36.0869 53.056C36.0869 53.328 36.1709 53.54 36.3389 53.692C36.5149 53.844 36.7989 53.92 37.1909 53.92C37.5909 53.92 37.9989 53.852 38.4149 53.716C38.8389 53.572 39.0709 53.5 39.1109 53.5C39.3189 53.5 39.4229 53.58 39.4229 53.74C39.4229 53.956 39.1789 54.192 38.6909 54.448C38.2029 54.696 37.7269 54.82 37.2629 54.82C36.6389 54.82 36.1309 54.636 35.7389 54.268C35.3469 53.892 35.1509 53.42 35.1509 52.852C35.1509 52.284 35.3029 51.692 35.6069 51.076C35.9109 50.452 36.3029 49.928 36.7829 49.504C37.2629 49.08 37.7389 48.868 38.2109 48.868C38.6829 48.868 39.1109 49.092 39.4949 49.54C39.8869 49.988 40.0829 50.428 40.0829 50.86ZM38.2709 49.816C37.9749 49.816 37.6669 49.972 37.3469 50.284C37.0269 50.588 36.7549 50.968 36.5309 51.424C36.8509 51.496 37.2149 51.532 37.6229 51.532C38.0309 51.532 38.3869 51.468 38.6909 51.34C38.9949 51.204 39.1469 51.028 39.1469 50.812C39.1469 50.596 39.0469 50.376 38.8469 50.152C38.6549 49.928 38.4629 49.816 38.2709 49.816ZM45.8332 45.508C45.9612 45.508 46.1172 45.628 46.3012 45.868C46.4932 46.1 46.5892 46.32 46.5892 46.528C46.5892 46.736 46.4892 47.328 46.2892 48.304C46.0892 49.272 45.8572 50.276 45.5932 51.316C45.0172 53.652 44.6372 54.82 44.4532 54.82C44.3412 54.82 44.2172 54.752 44.0812 54.616C43.9532 54.472 43.8892 54.348 43.8892 54.244C43.8892 54.14 43.9172 53.932 43.9732 53.62C43.1892 54.42 42.5052 54.82 41.9212 54.82C41.5692 54.82 41.2492 54.66 40.9612 54.34C40.6812 54.02 40.5412 53.688 40.5412 53.344C40.5412 52.848 40.6732 52.26 40.9372 51.58C41.2092 50.892 41.5972 50.268 42.1012 49.708C42.6052 49.148 43.1412 48.868 43.7092 48.868C44.2772 48.868 44.6732 49.208 44.8972 49.888C45.3052 48.192 45.5292 46.852 45.5692 45.868C45.5692 45.628 45.6572 45.508 45.8332 45.508ZM44.5132 51.4C44.5132 50.968 44.4372 50.604 44.2852 50.308C44.1412 50.012 43.9652 49.864 43.7572 49.864C43.4132 49.864 43.0612 50.076 42.7012 50.5C42.3412 50.924 42.0532 51.412 41.8372 51.964C41.6292 52.508 41.5252 52.98 41.5252 53.38C41.5252 53.524 41.5772 53.64 41.6812 53.728C41.7852 53.816 41.9092 53.86 42.0532 53.86C42.3652 53.86 42.7852 53.636 43.3132 53.188C43.8492 52.74 44.2372 52.212 44.4772 51.604L44.5132 51.46V51.4ZM51.8139 52.12C51.8139 51.984 52.5739 51.828 54.0939 51.652C55.6139 51.476 56.6379 51.388 57.1659 51.388C57.7019 51.388 57.9699 51.488 57.9699 51.688C57.9699 51.984 57.0379 52.256 55.1739 52.504C53.8299 52.672 52.8619 52.756 52.2699 52.756C52.1659 52.748 52.0619 52.668 51.9579 52.516C51.8619 52.356 51.8139 52.224 51.8139 52.12ZM52.1979 49.768C52.2059 49.6 52.8259 49.452 54.0579 49.324C55.2979 49.196 56.3139 49.132 57.1059 49.132C57.8979 49.132 58.2939 49.256 58.2939 49.504C58.2939 49.64 58.1179 49.748 57.7659 49.828C57.4219 49.908 56.5939 50.024 55.2819 50.176C53.9699 50.328 53.0979 50.404 52.6659 50.404C52.5619 50.404 52.4579 50.328 52.3539 50.176C52.2499 50.016 52.1979 49.88 52.1979 49.768ZM67.8126 48.832C68.1566 48.832 68.4526 49.052 68.7006 49.492C68.9566 49.932 69.0846 50.388 69.0846 50.86C69.0846 51.324 68.9486 51.792 68.6766 52.264C68.4046 52.728 68.0686 53.144 67.6686 53.512C67.2686 53.88 66.8246 54.188 66.3366 54.436C65.8566 54.676 65.4126 54.796 65.0046 54.796C64.8446 54.796 64.6926 54.776 64.5486 54.736C64.5166 54.872 64.4606 55.116 64.3806 55.468C64.3006 55.82 64.2326 56.112 64.1766 56.344C64.1206 56.576 64.0566 56.824 63.9846 57.088C63.8406 57.632 63.7126 57.904 63.6006 57.904C63.4886 57.904 63.3726 57.816 63.2526 57.64C63.1246 57.472 63.0606 57.32 63.0606 57.184C63.0606 57.048 63.1886 56.464 63.4446 55.432C64.2126 52.32 64.5966 50.224 64.5966 49.144C64.5966 48.904 64.6846 48.784 64.8606 48.784C65.0046 48.784 65.1766 48.892 65.3766 49.108C65.5846 49.316 65.6886 49.548 65.6886 49.804C65.6886 49.932 65.6726 50.072 65.6406 50.224C66.3526 49.296 67.0766 48.832 67.8126 48.832ZM64.8846 53.86C65.3086 53.86 65.7646 53.716 66.2526 53.428C66.7486 53.14 67.1686 52.76 67.5126 52.288C67.8646 51.808 68.0406 51.332 68.0406 50.86C68.0406 50.196 67.8846 49.864 67.5726 49.864C67.2606 49.864 66.8366 50.132 66.3006 50.668C65.7726 51.204 65.3526 51.9 65.0406 52.756L64.7646 53.86H64.8846ZM70.3391 50.332L70.3031 49.432C70.3031 49.056 70.3911 48.868 70.5671 48.868C70.7191 48.868 70.8631 48.968 70.9991 49.168C71.1431 49.36 71.2151 49.592 71.2151 49.864C71.2151 50.128 71.2071 50.328 71.1911 50.464C71.8871 49.408 72.5471 48.88 73.1711 48.88C73.5631 48.88 73.7591 48.976 73.7591 49.168C73.7591 49.264 73.7151 49.352 73.6271 49.432C73.5391 49.512 73.3991 49.604 73.2071 49.708C72.7831 49.892 72.4231 50.176 72.1271 50.56C71.8391 50.936 71.6031 51.364 71.4191 51.844C71.2351 52.324 71.0871 52.728 70.9751 53.056C70.8711 53.384 70.7911 53.64 70.7351 53.824C70.6791 54.008 70.6151 54.188 70.5431 54.364C70.4151 54.684 70.2671 54.844 70.0991 54.844C69.9631 54.844 69.8511 54.768 69.7631 54.616C69.6831 54.456 69.6431 54.304 69.6431 54.16C69.6431 54.008 69.7111 53.712 69.8471 53.272C70.1751 52.264 70.3391 51.284 70.3391 50.332ZM75.1277 47.164C75.1277 47.004 75.1917 46.852 75.3197 46.708C75.4477 46.564 75.5757 46.492 75.7037 46.492C75.8397 46.492 75.9997 46.656 76.1837 46.984C76.3677 47.304 76.4597 47.572 76.4597 47.788C76.4597 47.868 76.4237 47.94 76.3517 48.004C76.2797 48.068 76.2037 48.1 76.1237 48.1C75.9317 48.1 75.7157 47.984 75.4757 47.752C75.2437 47.52 75.1277 47.324 75.1277 47.164ZM75.0677 48.868C75.2197 48.868 75.3637 48.96 75.4997 49.144C75.6357 49.328 75.7037 49.508 75.7037 49.684C75.7037 49.86 75.5877 50.388 75.3557 51.268C75.1237 52.14 74.8317 53.12 74.4797 54.208C74.3437 54.608 74.1717 54.808 73.9637 54.808C73.8517 54.808 73.7557 54.764 73.6757 54.676C73.5957 54.58 73.5557 54.476 73.5557 54.364C73.5557 54.244 73.5837 54.06 73.6397 53.812C73.7037 53.556 73.7917 53.22 73.9037 52.804C74.0237 52.38 74.1157 52.036 74.1797 51.772C74.2517 51.508 74.3237 51.212 74.3957 50.884C74.4677 50.548 74.5237 50.28 74.5637 50.08C74.6117 49.872 74.6637 49.664 74.7197 49.456C74.8317 49.064 74.9477 48.868 75.0677 48.868ZM84.2151 48.868C84.4551 48.868 84.6671 49.036 84.8511 49.372C85.0431 49.7 85.1391 50.076 85.1391 50.5C85.1391 50.916 85.0631 51.46 84.9111 52.132C84.7671 52.804 84.5711 53.42 84.3231 53.98C84.0751 54.54 83.8311 54.82 83.5911 54.82C83.4231 54.82 83.3391 54.712 83.3391 54.496C83.3391 54.272 83.4751 53.732 83.7471 52.876C84.0271 52.012 84.1671 51.328 84.1671 50.824C84.1671 50.312 84.0871 50.056 83.9271 50.056C83.7271 50.056 83.4951 50.232 83.2311 50.584C82.9751 50.936 82.6991 51.36 82.4031 51.856C82.1071 52.352 81.9471 52.62 81.9231 52.66C81.8991 52.692 81.8671 52.74 81.8271 52.804C81.7951 52.868 81.7551 52.936 81.7071 53.008C81.6671 53.08 81.5551 53.296 81.3711 53.656C81.1951 54.016 81.0391 54.3 80.9031 54.508C80.7671 54.708 80.6471 54.808 80.5431 54.808C80.4471 54.808 80.3391 54.744 80.2191 54.616C80.0991 54.488 80.0391 54.368 80.0391 54.256C80.0391 54.144 80.1111 53.912 80.2551 53.56C80.6711 52.52 80.8791 51.552 80.8791 50.656C80.8791 50.488 80.8431 50.348 80.7711 50.236C80.6991 50.116 80.6191 50.056 80.5311 50.056C80.4431 50.056 80.3511 50.096 80.2551 50.176C80.1591 50.248 80.0391 50.384 79.8951 50.584C79.7511 50.776 79.6231 50.96 79.5111 51.136C79.3991 51.312 79.2271 51.588 78.9951 51.964C78.7711 52.332 78.5991 52.608 78.4791 52.792C78.3671 52.968 78.2351 53.176 78.0831 53.416C77.9311 53.648 77.8111 53.828 77.7231 53.956C77.6431 54.084 77.5511 54.224 77.4471 54.376C77.2311 54.672 77.0711 54.82 76.9671 54.82C76.8711 54.82 76.7431 54.732 76.5831 54.556C76.4231 54.372 76.3431 54.236 76.3431 54.148C76.3431 54.052 76.3591 53.936 76.3911 53.8C76.4231 53.664 76.4551 53.532 76.4871 53.404C76.5271 53.276 76.5831 53.088 76.6551 52.84C76.7351 52.584 76.8231 52.288 76.9191 51.952C77.0231 51.608 77.0991 51.14 77.1471 50.548C77.2031 49.948 77.2431 49.512 77.2671 49.24C77.2911 48.96 77.3591 48.82 77.4711 48.82C77.6471 48.82 77.8191 48.912 77.9871 49.096C78.1631 49.28 78.2511 49.464 78.2511 49.648C78.2511 50.352 77.9871 51.512 77.4591 53.128C78.3551 51.448 78.9191 50.452 79.1511 50.14C79.3831 49.828 79.5831 49.576 79.7511 49.384C80.0631 49.04 80.3791 48.868 80.6991 48.868C80.8911 48.868 81.1191 49.036 81.3831 49.372C81.6551 49.7 81.7911 50.032 81.7911 50.368C81.7911 50.704 81.7431 51.12 81.6471 51.616C82.5911 49.784 83.4471 48.868 84.2151 48.868ZM89.1939 48.868C89.5539 48.868 89.8859 49.052 90.1899 49.42C90.4939 49.78 90.6459 50.108 90.6459 50.404C90.6459 50.692 90.5459 50.988 90.3459 51.292C90.4419 51.412 90.4899 51.516 90.4899 51.604C90.4899 51.828 90.4379 52.212 90.3339 52.756C90.2379 53.3 90.1779 53.656 90.1539 53.824C90.1379 53.992 90.1219 54.128 90.1059 54.232C90.0899 54.328 90.0699 54.424 90.0459 54.52C90.0139 54.72 89.9419 54.82 89.8299 54.82C89.6859 54.82 89.5659 54.696 89.4699 54.448C89.3819 54.192 89.3299 53.864 89.3139 53.464C88.6019 54.368 87.9419 54.82 87.3339 54.82C86.9659 54.82 86.6019 54.664 86.2419 54.352C85.8899 54.032 85.7139 53.704 85.7139 53.368C85.7139 52.888 85.8899 52.296 86.2419 51.592C86.5939 50.88 87.0499 50.248 87.6099 49.696C88.1699 49.144 88.6979 48.868 89.1939 48.868ZM89.7459 50.98C89.7459 50.236 89.5979 49.864 89.3019 49.864C88.9899 49.864 88.6259 50.088 88.2099 50.536C87.7939 50.976 87.4419 51.476 87.1539 52.036C86.8659 52.596 86.7219 53.04 86.7219 53.368C86.7219 53.504 86.7779 53.616 86.8899 53.704C87.0019 53.784 87.1339 53.824 87.2859 53.824C87.6619 53.824 88.0859 53.572 88.5579 53.068C89.0299 52.556 89.3579 51.936 89.5419 51.208C89.5659 51.088 89.6339 51.016 89.7459 50.992V50.98ZM92.3469 50.332L92.3109 49.432C92.3109 49.056 92.3989 48.868 92.5749 48.868C92.7269 48.868 92.8709 48.968 93.0069 49.168C93.1509 49.36 93.2229 49.592 93.2229 49.864C93.2229 50.128 93.2149 50.328 93.1989 50.464C93.8949 49.408 94.5549 48.88 95.1789 48.88C95.5709 48.88 95.7669 48.976 95.7669 49.168C95.7669 49.264 95.7229 49.352 95.6349 49.432C95.5469 49.512 95.4069 49.604 95.2149 49.708C94.7909 49.892 94.4309 50.176 94.1349 50.56C93.8469 50.936 93.6109 51.364 93.4269 51.844C93.2429 52.324 93.0949 52.728 92.9829 53.056C92.8789 53.384 92.7989 53.64 92.7429 53.824C92.6869 54.008 92.6229 54.188 92.5509 54.364C92.4229 54.684 92.2749 54.844 92.1069 54.844C91.9709 54.844 91.8589 54.768 91.7709 54.616C91.6909 54.456 91.6509 54.304 91.6509 54.16C91.6509 54.008 91.7189 53.712 91.8549 53.272C92.1829 52.264 92.3469 51.284 92.3469 50.332ZM100.292 48.868C100.42 48.868 100.556 48.964 100.7 49.156C100.852 49.34 100.928 49.548 100.928 49.78C100.928 49.94 100.764 50.484 100.436 51.412C100.108 52.34 99.8835 52.972 99.7635 53.308C99.6515 53.636 99.4955 54.076 99.2955 54.628C99.1035 55.172 98.9155 55.704 98.7315 56.224C98.3315 57.368 97.7315 57.94 96.9315 57.94C96.4755 57.94 96.0395 57.8 95.6235 57.52C95.2075 57.248 94.9995 56.964 94.9995 56.668C94.9995 56.556 95.0515 56.432 95.1555 56.296C95.2515 56.16 95.3355 56.092 95.4075 56.092C95.4795 56.092 95.5955 56.18 95.7555 56.356C96.2195 56.884 96.6155 57.148 96.9435 57.148C97.1915 57.148 97.4155 56.928 97.6155 56.488C97.8155 56.056 98.0035 55.564 98.1795 55.012C98.3635 54.468 98.4635 54.168 98.4795 54.112C98.5035 54.056 98.5275 53.984 98.5515 53.896C98.5835 53.808 98.6115 53.728 98.6355 53.656C98.0675 54.432 97.5075 54.82 96.9555 54.82C96.6195 54.82 96.3075 54.664 96.0195 54.352C95.7395 54.04 95.5995 53.672 95.5995 53.248C95.5995 52.824 95.7035 52.252 95.9115 51.532C96.1195 50.812 96.3635 50.188 96.6435 49.66C96.9235 49.132 97.1515 48.868 97.3275 48.868C97.4715 48.868 97.6035 48.936 97.7235 49.072C97.8515 49.2 97.9155 49.332 97.9155 49.468C97.9155 49.604 97.8115 49.888 97.6035 50.32C96.9555 51.648 96.6315 52.68 96.6315 53.416C96.6315 53.544 96.6715 53.652 96.7515 53.74C96.8315 53.82 96.9275 53.86 97.0395 53.86C97.3275 53.86 97.6715 53.604 98.0715 53.092C98.4715 52.58 98.8395 51.972 99.1755 51.268C99.4555 50.676 99.7475 49.92 100.052 49C100.084 48.912 100.164 48.868 100.292 48.868ZM109.473 48.868C109.745 48.868 110.001 49.02 110.241 49.324C110.481 49.62 110.601 49.88 110.601 50.104C110.601 50.24 110.537 50.308 110.409 50.308C110.321 50.308 110.185 50.24 110.001 50.104C109.817 49.96 109.629 49.888 109.437 49.888C109.245 49.888 108.941 50 108.525 50.224C108.117 50.448 107.913 50.684 107.913 50.932C107.913 51.116 108.281 51.432 109.017 51.88C109.297 52.056 109.549 52.284 109.773 52.564C110.005 52.836 110.121 53.132 110.121 53.452C110.121 53.764 109.901 54.072 109.461 54.376C109.029 54.672 108.521 54.82 107.937 54.82C107.361 54.82 106.849 54.68 106.401 54.4C105.961 54.12 105.741 53.856 105.741 53.608C105.741 53.504 105.765 53.424 105.813 53.368C105.869 53.304 105.937 53.272 106.017 53.272C106.097 53.272 106.209 53.324 106.353 53.428C106.785 53.74 107.233 53.896 107.697 53.896C108.169 53.896 108.509 53.844 108.717 53.74C108.925 53.628 109.029 53.484 109.029 53.308C109.029 53.124 108.913 52.932 108.681 52.732C108.449 52.524 108.193 52.34 107.913 52.18C107.641 52.02 107.389 51.824 107.157 51.592C106.925 51.36 106.809 51.124 106.809 50.884C106.809 50.46 107.141 50.02 107.805 49.564C108.477 49.1 109.033 48.868 109.473 48.868ZM115.398 49.204C115.43 49.076 115.462 48.988 115.494 48.94C115.526 48.892 115.594 48.868 115.698 48.868C115.81 48.868 115.942 48.972 116.094 49.18C116.254 49.388 116.334 49.588 116.334 49.78C116.334 49.884 116.158 50.5 115.806 51.628C115.454 52.756 115.182 53.652 114.99 54.316C114.894 54.652 114.758 54.82 114.582 54.82C114.478 54.82 114.39 54.776 114.318 54.688C114.246 54.6 114.21 54.44 114.21 54.208C114.21 53.976 114.302 53.556 114.486 52.948C114.15 53.492 113.786 53.94 113.394 54.292C113.002 54.644 112.642 54.82 112.314 54.82C111.994 54.82 111.69 54.668 111.402 54.364C111.114 54.06 110.97 53.748 110.97 53.428C110.97 52.668 111.19 51.72 111.63 50.584C112.078 49.44 112.45 48.868 112.746 48.868C112.89 48.868 113.014 48.936 113.118 49.072C113.23 49.2 113.286 49.348 113.286 49.516C113.286 49.588 113.178 49.848 112.962 50.296C112.746 50.736 112.53 51.256 112.314 51.856C112.098 52.448 111.99 52.968 111.99 53.416C111.99 53.544 112.03 53.652 112.11 53.74C112.19 53.82 112.286 53.86 112.398 53.86C112.702 53.86 113.062 53.592 113.478 53.056C113.902 52.52 114.286 51.896 114.63 51.184C114.974 50.472 115.23 49.812 115.398 49.204ZM117.648 50.332L117.612 49.432C117.612 49.056 117.7 48.868 117.876 48.868C118.028 48.868 118.172 48.968 118.308 49.168C118.452 49.36 118.524 49.592 118.524 49.864C118.524 50.128 118.516 50.328 118.5 50.464C119.196 49.408 119.856 48.88 120.48 48.88C120.872 48.88 121.068 48.976 121.068 49.168C121.068 49.264 121.024 49.352 120.936 49.432C120.848 49.512 120.708 49.604 120.516 49.708C120.092 49.892 119.732 50.176 119.436 50.56C119.148 50.936 118.912 51.364 118.728 51.844C118.544 52.324 118.396 52.728 118.284 53.056C118.18 53.384 118.1 53.64 118.044 53.824C117.988 54.008 117.924 54.188 117.852 54.364C117.724 54.684 117.576 54.844 117.408 54.844C117.272 54.844 117.16 54.768 117.072 54.616C116.992 54.456 116.952 54.304 116.952 54.16C116.952 54.008 117.02 53.712 117.156 53.272C117.484 52.264 117.648 51.284 117.648 50.332ZM121.764 54.844C121.66 54.844 121.548 54.768 121.428 54.616C121.308 54.464 121.248 54.34 121.248 54.244C121.248 54.148 121.288 53.96 121.368 53.68C121.768 52.24 122.04 51.212 122.184 50.596C121.84 50.676 121.604 50.716 121.476 50.716C121.348 50.716 121.22 50.66 121.092 50.548C120.964 50.436 120.9 50.312 120.9 50.176C120.9 50.04 121.08 49.92 121.44 49.816C121.904 49.704 122.224 49.632 122.4 49.6C122.48 49.216 122.54 48.92 122.58 48.712C122.772 47.608 123.032 46.812 123.36 46.324C123.688 45.836 124.132 45.592 124.692 45.592C125.092 45.592 125.42 45.752 125.676 46.072C125.932 46.384 126.06 46.756 126.06 47.188C126.06 47.612 125.948 47.824 125.724 47.824C125.532 47.824 125.376 47.608 125.256 47.176C125.216 47.016 125.148 46.868 125.052 46.732C124.956 46.596 124.84 46.528 124.704 46.528C124.568 46.528 124.444 46.592 124.332 46.72C124.22 46.84 124.12 47.016 124.032 47.248C123.8 47.896 123.64 48.488 123.552 49.024L123.456 49.444C123.752 49.404 124.044 49.384 124.332 49.384C124.628 49.384 124.84 49.416 124.968 49.48C125.104 49.544 125.172 49.624 125.172 49.72C125.172 49.872 125.04 49.988 124.776 50.068C124.512 50.148 123.996 50.252 123.228 50.38C122.66 52.684 122.272 54.056 122.064 54.496C121.952 54.728 121.852 54.844 121.764 54.844ZM128.604 48.868C128.964 48.868 129.296 49.052 129.6 49.42C129.904 49.78 130.056 50.108 130.056 50.404C130.056 50.692 129.956 50.988 129.756 51.292C129.852 51.412 129.9 51.516 129.9 51.604C129.9 51.828 129.848 52.212 129.744 52.756C129.648 53.3 129.588 53.656 129.564 53.824C129.548 53.992 129.532 54.128 129.516 54.232C129.5 54.328 129.48 54.424 129.456 54.52C129.424 54.72 129.352 54.82 129.24 54.82C129.096 54.82 128.976 54.696 128.88 54.448C128.792 54.192 128.74 53.864 128.724 53.464C128.012 54.368 127.352 54.82 126.744 54.82C126.376 54.82 126.012 54.664 125.652 54.352C125.3 54.032 125.124 53.704 125.124 53.368C125.124 52.888 125.3 52.296 125.652 51.592C126.004 50.88 126.46 50.248 127.02 49.696C127.58 49.144 128.108 48.868 128.604 48.868ZM129.156 50.98C129.156 50.236 129.008 49.864 128.712 49.864C128.4 49.864 128.036 50.088 127.62 50.536C127.204 50.976 126.852 51.476 126.564 52.036C126.276 52.596 126.132 53.04 126.132 53.368C126.132 53.504 126.188 53.616 126.3 53.704C126.412 53.784 126.544 53.824 126.696 53.824C127.072 53.824 127.496 53.572 127.968 53.068C128.44 52.556 128.768 51.936 128.952 51.208C128.976 51.088 129.044 51.016 129.156 50.992V50.98ZM132.969 54.82C132.505 54.82 132.069 54.64 131.661 54.28C131.253 53.912 131.049 53.48 131.049 52.984C131.049 52.48 131.217 51.9 131.553 51.244C131.889 50.588 132.321 50.028 132.849 49.564C133.385 49.1 133.905 48.868 134.409 48.868C134.737 48.868 135.025 49.016 135.273 49.312C135.521 49.608 135.645 49.868 135.645 50.092C135.645 50.156 135.625 50.212 135.585 50.26C135.545 50.3 135.485 50.32 135.405 50.32C135.333 50.32 135.201 50.248 135.009 50.104C134.817 49.96 134.645 49.888 134.493 49.888C134.061 49.888 133.557 50.268 132.981 51.028C132.405 51.788 132.117 52.452 132.117 53.02C132.117 53.268 132.193 53.464 132.345 53.608C132.505 53.752 132.757 53.824 133.101 53.824C133.453 53.824 133.773 53.784 134.061 53.704C134.357 53.616 134.585 53.532 134.745 53.452C134.905 53.364 135.029 53.32 135.117 53.32C135.269 53.32 135.345 53.396 135.345 53.548C135.345 53.78 135.065 54.052 134.505 54.364C133.953 54.668 133.441 54.82 132.969 54.82ZM141.169 50.86C141.169 51.284 140.937 51.632 140.473 51.904C140.017 52.168 139.497 52.3 138.913 52.3C138.337 52.3 137.813 52.236 137.341 52.108C137.229 52.46 137.173 52.776 137.173 53.056C137.173 53.328 137.257 53.54 137.425 53.692C137.601 53.844 137.885 53.92 138.277 53.92C138.677 53.92 139.085 53.852 139.501 53.716C139.925 53.572 140.157 53.5 140.197 53.5C140.405 53.5 140.509 53.58 140.509 53.74C140.509 53.956 140.265 54.192 139.777 54.448C139.289 54.696 138.813 54.82 138.349 54.82C137.725 54.82 137.217 54.636 136.825 54.268C136.433 53.892 136.237 53.42 136.237 52.852C136.237 52.284 136.389 51.692 136.693 51.076C136.997 50.452 137.389 49.928 137.869 49.504C138.349 49.08 138.825 48.868 139.297 48.868C139.769 48.868 140.197 49.092 140.581 49.54C140.973 49.988 141.169 50.428 141.169 50.86ZM139.357 49.816C139.061 49.816 138.753 49.972 138.433 50.284C138.113 50.588 137.841 50.968 137.617 51.424C137.937 51.496 138.301 51.532 138.709 51.532C139.117 51.532 139.473 51.468 139.777 51.34C140.081 51.204 140.233 51.028 140.233 50.812C140.233 50.596 140.133 50.376 139.933 50.152C139.741 49.928 139.549 49.816 139.357 49.816Z" fill="black"/>
<path d="M7.7002 73C10.4616 73 12.7002 70.7614 12.7002 68C12.7002 65.2386 10.4616 63 7.7002 63C4.93877 63 2.7002 65.2386 2.7002 68C2.7002 70.7614 4.93877 73 7.7002 73Z" fill="#3A94D8"/>
<path d="M23.5882 72.82C23.4762 72.82 23.3442 72.736 23.1922 72.568C23.0402 72.392 22.9642 72.228 22.9642 72.076C22.9642 71.924 23.0882 71.404 23.3362 70.516C23.5922 69.628 23.8442 68.56 24.0922 67.312C24.3482 66.056 24.4762 64.908 24.4762 63.868C24.4762 63.628 24.5642 63.508 24.7402 63.508C24.8682 63.508 25.0242 63.628 25.2082 63.868C25.3922 64.1 25.4842 64.328 25.4842 64.552C25.4842 65.536 25.2682 66.94 24.8362 68.764C25.7882 67.476 26.6522 66.832 27.4282 66.832C27.8042 66.832 28.1202 67.016 28.3762 67.384C28.6402 67.752 28.7722 68.192 28.7722 68.704C28.7722 69.208 28.6242 69.788 28.3282 70.444C28.0402 71.1 27.6482 71.664 27.1522 72.136C26.6562 72.6 26.1362 72.832 25.5922 72.832C25.0482 72.832 24.5122 72.556 23.9842 72.004L23.9722 72.016C23.7962 72.552 23.6682 72.82 23.5882 72.82ZM25.4962 71.896C26.0162 71.896 26.5242 71.544 27.0202 70.84C27.5242 70.128 27.7762 69.38 27.7762 68.596C27.7762 68.124 27.6322 67.888 27.3442 67.888C26.8802 67.888 26.3602 68.212 25.7842 68.86C25.2162 69.508 24.7242 70.28 24.3082 71.176C24.6842 71.656 25.0802 71.896 25.4962 71.896ZM31.7409 64.516C31.7409 66.02 31.4289 67.972 30.8049 70.372C30.4049 72.004 30.1249 72.82 29.9649 72.82C29.8529 72.82 29.7209 72.732 29.5689 72.556C29.4249 72.38 29.3529 72.244 29.3529 72.148C29.3529 72.052 29.4689 71.556 29.7009 70.66C29.9329 69.764 30.1649 68.664 30.3969 67.36C30.6289 66.048 30.7449 64.868 30.7449 63.82C30.7449 63.708 30.7609 63.628 30.7929 63.58C30.8249 63.532 30.8929 63.508 30.9969 63.508C31.1009 63.508 31.2489 63.624 31.4409 63.856C31.6409 64.08 31.7409 64.3 31.7409 64.516ZM36.5663 67.204C36.5983 67.076 36.6303 66.988 36.6623 66.94C36.6943 66.892 36.7623 66.868 36.8663 66.868C36.9783 66.868 37.1103 66.972 37.2623 67.18C37.4223 67.388 37.5023 67.588 37.5023 67.78C37.5023 67.884 37.3263 68.5 36.9743 69.628C36.6223 70.756 36.3503 71.652 36.1583 72.316C36.0623 72.652 35.9263 72.82 35.7503 72.82C35.6463 72.82 35.5583 72.776 35.4863 72.688C35.4143 72.6 35.3783 72.44 35.3783 72.208C35.3783 71.976 35.4703 71.556 35.6543 70.948C35.3183 71.492 34.9543 71.94 34.5623 72.292C34.1703 72.644 33.8103 72.82 33.4823 72.82C33.1623 72.82 32.8583 72.668 32.5703 72.364C32.2823 72.06 32.1383 71.748 32.1383 71.428C32.1383 70.668 32.3583 69.72 32.7983 68.584C33.2463 67.44 33.6183 66.868 33.9143 66.868C34.0583 66.868 34.1823 66.936 34.2863 67.072C34.3983 67.2 34.4543 67.348 34.4543 67.516C34.4543 67.588 34.3463 67.848 34.1303 68.296C33.9143 68.736 33.6983 69.256 33.4823 69.856C33.2663 70.448 33.1583 70.968 33.1583 71.416C33.1583 71.544 33.1983 71.652 33.2783 71.74C33.3583 71.82 33.4543 71.86 33.5663 71.86C33.8703 71.86 34.2303 71.592 34.6463 71.056C35.0703 70.52 35.4543 69.896 35.7983 69.184C36.1423 68.472 36.3983 67.812 36.5663 67.204ZM42.8836 68.86C42.8836 69.284 42.6516 69.632 42.1876 69.904C41.7316 70.168 41.2116 70.3 40.6276 70.3C40.0516 70.3 39.5276 70.236 39.0556 70.108C38.9436 70.46 38.8876 70.776 38.8876 71.056C38.8876 71.328 38.9716 71.54 39.1396 71.692C39.3156 71.844 39.5996 71.92 39.9916 71.92C40.3916 71.92 40.7996 71.852 41.2156 71.716C41.6396 71.572 41.8716 71.5 41.9116 71.5C42.1196 71.5 42.2236 71.58 42.2236 71.74C42.2236 71.956 41.9796 72.192 41.4916 72.448C41.0036 72.696 40.5276 72.82 40.0636 72.82C39.4396 72.82 38.9316 72.636 38.5396 72.268C38.1476 71.892 37.9516 71.42 37.9516 70.852C37.9516 70.284 38.1036 69.692 38.4076 69.076C38.7116 68.452 39.1036 67.928 39.5836 67.504C40.0636 67.08 40.5396 66.868 41.0116 66.868C41.4836 66.868 41.9116 67.092 42.2956 67.54C42.6876 67.988 42.8836 68.428 42.8836 68.86ZM41.0716 67.816C40.7756 67.816 40.4676 67.972 40.1476 68.284C39.8276 68.588 39.5556 68.968 39.3316 69.424C39.6516 69.496 40.0156 69.532 40.4236 69.532C40.8316 69.532 41.1876 69.468 41.4916 69.34C41.7956 69.204 41.9476 69.028 41.9476 68.812C41.9476 68.596 41.8476 68.376 41.6476 68.152C41.4556 67.928 41.2636 67.816 41.0716 67.816ZM53.4504 63.508C53.5784 63.508 53.7344 63.628 53.9184 63.868C54.1104 64.1 54.2064 64.32 54.2064 64.528C54.2064 64.736 54.1064 65.328 53.9064 66.304C53.7064 67.272 53.4744 68.276 53.2104 69.316C52.6344 71.652 52.2544 72.82 52.0704 72.82C51.9584 72.82 51.8344 72.752 51.6984 72.616C51.5704 72.472 51.5064 72.348 51.5064 72.244C51.5064 72.14 51.5344 71.932 51.5904 71.62C50.8064 72.42 50.1224 72.82 49.5384 72.82C49.1864 72.82 48.8664 72.66 48.5784 72.34C48.2984 72.02 48.1584 71.688 48.1584 71.344C48.1584 70.848 48.2904 70.26 48.5544 69.58C48.8264 68.892 49.2144 68.268 49.7184 67.708C50.2224 67.148 50.7584 66.868 51.3264 66.868C51.8944 66.868 52.2904 67.208 52.5144 67.888C52.9224 66.192 53.1464 64.852 53.1864 63.868C53.1864 63.628 53.2744 63.508 53.4504 63.508ZM52.1304 69.4C52.1304 68.968 52.0544 68.604 51.9024 68.308C51.7584 68.012 51.5824 67.864 51.3744 67.864C51.0304 67.864 50.6784 68.076 50.3184 68.5C49.9584 68.924 49.6704 69.412 49.4544 69.964C49.2464 70.508 49.1424 70.98 49.1424 71.38C49.1424 71.524 49.1944 71.64 49.2984 71.728C49.4024 71.816 49.5264 71.86 49.6704 71.86C49.9824 71.86 50.4024 71.636 50.9304 71.188C51.4664 70.74 51.8544 70.212 52.0944 69.604L52.1304 69.46V69.4ZM57.9267 68.908C57.9267 68.636 57.8827 68.38 57.7947 68.14C57.7067 67.892 57.5787 67.712 57.4107 67.6C56.8587 67.752 56.3827 68.18 55.9827 68.884C55.5907 69.58 55.3947 70.236 55.3947 70.852C55.3947 71.468 55.5467 71.852 55.8507 72.004C56.4267 71.892 56.9147 71.5 57.3147 70.828C57.7227 70.148 57.9267 69.508 57.9267 68.908ZM54.7707 69.016C55.0507 68.392 55.4147 67.88 55.8627 67.48C56.3187 67.072 56.7827 66.868 57.2547 66.868C57.7347 66.868 58.1347 67.072 58.4547 67.48C58.7747 67.88 58.9347 68.372 58.9347 68.956C58.9347 69.532 58.7947 70.124 58.5147 70.732C58.2347 71.332 57.8467 71.832 57.3507 72.232C56.8627 72.624 56.3427 72.82 55.7907 72.82C55.3827 72.82 55.0427 72.632 54.7707 72.256C54.4987 71.88 54.3627 71.404 54.3627 70.828C54.3627 70.244 54.4987 69.64 54.7707 69.016ZM61.0842 71.62C61.0842 71.772 61.1722 71.848 61.3482 71.848C61.6522 71.848 62.0202 71.764 62.4522 71.596C62.8922 71.42 63.1362 71.332 63.1842 71.332C63.3282 71.332 63.4002 71.408 63.4002 71.56C63.4002 71.792 63.1602 72.06 62.6802 72.364C62.2082 72.668 61.7762 72.82 61.3842 72.82C61.0002 72.82 60.6802 72.716 60.4242 72.508C60.1682 72.292 60.0402 72.072 60.0402 71.848C60.0402 71.624 60.0882 71.34 60.1842 70.996C60.2802 70.644 60.4162 70.184 60.5922 69.616C60.7762 69.04 60.9202 68.564 61.0242 68.188C60.6482 68.276 60.3962 68.32 60.2682 68.32C60.1402 68.32 60.0122 68.256 59.8842 68.128C59.7642 67.992 59.7042 67.864 59.7042 67.744C59.7042 67.552 60.2242 67.368 61.2642 67.192C61.4082 66.528 61.4802 65.94 61.4802 65.428C61.4802 65.188 61.5602 65.068 61.7202 65.068C61.8562 65.068 62.0242 65.156 62.2242 65.332C62.4242 65.5 62.5242 65.692 62.5242 65.908C62.5242 66.124 62.4562 66.504 62.3202 67.048C62.7762 67.008 63.1402 66.988 63.4122 66.988C63.8922 66.988 64.1322 67.092 64.1322 67.3C64.1322 67.42 64.0002 67.52 63.7362 67.6C63.4802 67.68 62.9362 67.804 62.1042 67.972C61.9362 68.604 61.7242 69.328 61.4682 70.144C61.2122 70.952 61.0842 71.444 61.0842 71.62ZM69.5092 70.12C69.5092 69.984 70.2692 69.828 71.7892 69.652C73.3092 69.476 74.3332 69.388 74.8612 69.388C75.3972 69.388 75.6652 69.488 75.6652 69.688C75.6652 69.984 74.7332 70.256 72.8692 70.504C71.5252 70.672 70.5572 70.756 69.9652 70.756C69.8612 70.748 69.7572 70.668 69.6532 70.516C69.5572 70.356 69.5092 70.224 69.5092 70.12ZM69.8932 67.768C69.9012 67.6 70.5212 67.452 71.7532 67.324C72.9932 67.196 74.0092 67.132 74.8012 67.132C75.5932 67.132 75.9892 67.256 75.9892 67.504C75.9892 67.64 75.8132 67.748 75.4612 67.828C75.1172 67.908 74.2892 68.024 72.9772 68.176C71.6652 68.328 70.7932 68.404 70.3612 68.404C70.2572 68.404 70.1532 68.328 70.0492 68.176C69.9452 68.016 69.8932 67.88 69.8932 67.768ZM84.7759 66.868C85.1359 66.868 85.4679 67.052 85.7719 67.42C86.0759 67.78 86.2279 68.108 86.2279 68.404C86.2279 68.692 86.1279 68.988 85.9279 69.292C86.0239 69.412 86.0719 69.516 86.0719 69.604C86.0719 69.828 86.0199 70.212 85.9159 70.756C85.8199 71.3 85.7599 71.656 85.7359 71.824C85.7199 71.992 85.7039 72.128 85.6879 72.232C85.6719 72.328 85.6519 72.424 85.6279 72.52C85.5959 72.72 85.5239 72.82 85.4119 72.82C85.2679 72.82 85.1479 72.696 85.0519 72.448C84.9639 72.192 84.9119 71.864 84.8959 71.464C84.1839 72.368 83.5239 72.82 82.9159 72.82C82.5479 72.82 82.1839 72.664 81.8239 72.352C81.4719 72.032 81.2959 71.704 81.2959 71.368C81.2959 70.888 81.4719 70.296 81.8239 69.592C82.1759 68.88 82.6319 68.248 83.1919 67.696C83.7519 67.144 84.2799 66.868 84.7759 66.868ZM85.3279 68.98C85.3279 68.236 85.1799 67.864 84.8839 67.864C84.5719 67.864 84.2079 68.088 83.7919 68.536C83.3759 68.976 83.0239 69.476 82.7359 70.036C82.4479 70.596 82.3039 71.04 82.3039 71.368C82.3039 71.504 82.3599 71.616 82.4719 71.704C82.5839 71.784 82.7159 71.824 82.8679 71.824C83.2439 71.824 83.6679 71.572 84.1399 71.068C84.6119 70.556 84.9399 69.936 85.1239 69.208C85.1479 69.088 85.2159 69.016 85.3279 68.992V68.98ZM89.1409 72.82C88.6769 72.82 88.2409 72.64 87.8329 72.28C87.4249 71.912 87.2209 71.48 87.2209 70.984C87.2209 70.48 87.3889 69.9 87.7249 69.244C88.0609 68.588 88.4929 68.028 89.0209 67.564C89.5569 67.1 90.0769 66.868 90.5809 66.868C90.9089 66.868 91.1969 67.016 91.4449 67.312C91.6929 67.608 91.8169 67.868 91.8169 68.092C91.8169 68.156 91.7969 68.212 91.7569 68.26C91.7169 68.3 91.6569 68.32 91.5769 68.32C91.5049 68.32 91.3729 68.248 91.1809 68.104C90.9889 67.96 90.8169 67.888 90.6649 67.888C90.2329 67.888 89.7289 68.268 89.1529 69.028C88.5769 69.788 88.2889 70.452 88.2889 71.02C88.2889 71.268 88.3649 71.464 88.5169 71.608C88.6769 71.752 88.9289 71.824 89.2729 71.824C89.6249 71.824 89.9449 71.784 90.2329 71.704C90.5289 71.616 90.7569 71.532 90.9169 71.452C91.0769 71.364 91.2009 71.32 91.2889 71.32C91.4409 71.32 91.5169 71.396 91.5169 71.548C91.5169 71.78 91.2369 72.052 90.6769 72.364C90.1249 72.668 89.6129 72.82 89.1409 72.82ZM94.4847 72.82C94.0207 72.82 93.5847 72.64 93.1767 72.28C92.7687 71.912 92.5647 71.48 92.5647 70.984C92.5647 70.48 92.7327 69.9 93.0687 69.244C93.4047 68.588 93.8367 68.028 94.3647 67.564C94.9007 67.1 95.4207 66.868 95.9247 66.868C96.2527 66.868 96.5407 67.016 96.7887 67.312C97.0367 67.608 97.1607 67.868 97.1607 68.092C97.1607 68.156 97.1407 68.212 97.1007 68.26C97.0607 68.3 97.0007 68.32 96.9207 68.32C96.8487 68.32 96.7167 68.248 96.5247 68.104C96.3327 67.96 96.1607 67.888 96.0087 67.888C95.5767 67.888 95.0727 68.268 94.4967 69.028C93.9207 69.788 93.6327 70.452 93.6327 71.02C93.6327 71.268 93.7087 71.464 93.8607 71.608C94.0207 71.752 94.2727 71.824 94.6167 71.824C94.9687 71.824 95.2887 71.784 95.5767 71.704C95.8727 71.616 96.1007 71.532 96.2607 71.452C96.4207 71.364 96.5447 71.32 96.6327 71.32C96.7847 71.32 96.8607 71.396 96.8607 71.548C96.8607 71.78 96.5807 72.052 96.0207 72.364C95.4687 72.668 94.9567 72.82 94.4847 72.82ZM102.684 68.86C102.684 69.284 102.452 69.632 101.988 69.904C101.532 70.168 101.012 70.3 100.428 70.3C99.8524 70.3 99.3284 70.236 98.8564 70.108C98.7444 70.46 98.6884 70.776 98.6884 71.056C98.6884 71.328 98.7724 71.54 98.9404 71.692C99.1164 71.844 99.4004 71.92 99.7924 71.92C100.192 71.92 100.6 71.852 101.016 71.716C101.44 71.572 101.672 71.5 101.712 71.5C101.92 71.5 102.024 71.58 102.024 71.74C102.024 71.956 101.78 72.192 101.292 72.448C100.804 72.696 100.328 72.82 99.8644 72.82C99.2404 72.82 98.7324 72.636 98.3404 72.268C97.9484 71.892 97.7524 71.42 97.7524 70.852C97.7524 70.284 97.9044 69.692 98.2084 69.076C98.5124 68.452 98.9044 67.928 99.3844 67.504C99.8644 67.08 100.34 66.868 100.812 66.868C101.284 66.868 101.712 67.092 102.096 67.54C102.488 67.988 102.684 68.428 102.684 68.86ZM100.872 67.816C100.576 67.816 100.268 67.972 99.9484 68.284C99.6284 68.588 99.3564 68.968 99.1324 69.424C99.4524 69.496 99.8164 69.532 100.224 69.532C100.632 69.532 100.988 69.468 101.292 69.34C101.596 69.204 101.748 69.028 101.748 68.812C101.748 68.596 101.648 68.376 101.448 68.152C101.256 67.928 101.064 67.816 100.872 67.816ZM104.475 70.732C105.243 69.428 105.867 68.46 106.347 67.828C106.835 67.188 107.231 66.868 107.535 66.868C107.847 66.868 108.139 67.032 108.411 67.36C108.691 67.688 108.831 68.036 108.831 68.404C108.831 68.98 108.699 69.684 108.435 70.516C107.955 72.052 107.523 72.82 107.139 72.82C106.963 72.82 106.875 72.7 106.875 72.46C106.875 72.292 106.959 71.952 107.127 71.44C107.303 70.92 107.463 70.412 107.607 69.916C107.759 69.412 107.835 69.036 107.835 68.788C107.835 68.532 107.795 68.344 107.715 68.224C107.643 68.104 107.567 68.044 107.487 68.044C107.415 68.044 107.339 68.068 107.259 68.116C107.179 68.164 107.087 68.244 106.983 68.356C106.887 68.468 106.795 68.58 106.707 68.692C106.619 68.796 106.507 68.948 106.371 69.148C106.243 69.348 106.135 69.52 106.047 69.664C105.959 69.8 105.831 70 105.663 70.264C105.495 70.528 105.367 70.728 105.279 70.864C105.191 71 105.075 71.184 104.931 71.416C104.787 71.648 104.671 71.828 104.583 71.956C104.503 72.084 104.411 72.224 104.307 72.376C104.107 72.672 103.947 72.82 103.827 72.82C103.715 72.82 103.583 72.732 103.431 72.556C103.279 72.372 103.203 72.212 103.203 72.076C103.203 72.036 103.231 71.928 103.287 71.752C103.439 71.288 103.607 70.716 103.791 70.036C103.975 69.348 104.075 68.568 104.091 67.696C104.115 67.112 104.199 66.82 104.343 66.82C104.519 66.82 104.695 66.912 104.871 67.096C105.047 67.28 105.135 67.484 105.135 67.708C105.135 67.924 105.067 68.348 104.931 68.98C104.803 69.604 104.651 70.188 104.475 70.732ZM111.041 71.62C111.041 71.772 111.129 71.848 111.305 71.848C111.609 71.848 111.977 71.764 112.409 71.596C112.849 71.42 113.093 71.332 113.141 71.332C113.285 71.332 113.357 71.408 113.357 71.56C113.357 71.792 113.117 72.06 112.637 72.364C112.165 72.668 111.733 72.82 111.341 72.82C110.957 72.82 110.637 72.716 110.381 72.508C110.125 72.292 109.997 72.072 109.997 71.848C109.997 71.624 110.045 71.34 110.141 70.996C110.237 70.644 110.373 70.184 110.549 69.616C110.733 69.04 110.877 68.564 110.981 68.188C110.605 68.276 110.353 68.32 110.225 68.32C110.097 68.32 109.969 68.256 109.841 68.128C109.721 67.992 109.661 67.864 109.661 67.744C109.661 67.552 110.181 67.368 111.221 67.192C111.365 66.528 111.437 65.94 111.437 65.428C111.437 65.188 111.517 65.068 111.677 65.068C111.813 65.068 111.981 65.156 112.181 65.332C112.381 65.5 112.481 65.692 112.481 65.908C112.481 66.124 112.413 66.504 112.277 67.048C112.733 67.008 113.097 66.988 113.369 66.988C113.849 66.988 114.089 67.092 114.089 67.3C114.089 67.42 113.957 67.52 113.693 67.6C113.437 67.68 112.893 67.804 112.061 67.972C111.893 68.604 111.681 69.328 111.425 70.144C111.169 70.952 111.041 71.444 111.041 71.62ZM121.194 70.396C120.706 71.58 120.326 72.464 120.054 73.048C119.79 73.632 119.61 73.924 119.514 73.924C119.426 73.924 119.31 73.836 119.166 73.66C119.03 73.492 118.962 73.352 118.962 73.24C118.962 72.8 120.226 69.652 122.754 63.796C122.762 63.772 122.774 63.744 122.79 63.712C122.806 63.672 122.818 63.644 122.826 63.628C122.834 63.604 122.842 63.58 122.85 63.556C122.866 63.532 122.878 63.516 122.886 63.508C122.902 63.5 122.918 63.488 122.934 63.472C122.958 63.456 123.006 63.448 123.078 63.448C123.15 63.448 123.274 63.568 123.45 63.808C123.634 64.048 123.726 64.26 123.726 64.444C123.726 64.62 123.622 64.948 123.414 65.428C123.214 65.9 122.914 66.552 122.514 67.384C122.122 68.208 121.682 69.212 121.194 70.396ZM133.481 64.384C133.689 64.384 133.901 64.516 134.117 64.78C134.341 65.044 134.453 65.264 134.453 65.44C134.453 65.608 134.421 65.692 134.357 65.692C134.301 65.692 134.189 65.664 134.021 65.608C133.853 65.544 133.701 65.512 133.565 65.512C133.253 65.512 132.873 65.672 132.425 65.992C131.985 66.312 131.565 66.708 131.165 67.18C130.773 67.652 130.437 68.192 130.157 68.8C129.877 69.4 129.737 69.92 129.737 70.36C129.737 70.8 129.849 71.124 130.073 71.332C130.305 71.532 130.605 71.632 130.973 71.632C131.341 71.632 131.721 71.58 132.113 71.476C132.505 71.364 132.825 71.24 133.073 71.104C133.713 70.76 134.065 70.588 134.129 70.588C134.265 70.588 134.333 70.68 134.333 70.864C134.333 71.04 134.149 71.28 133.781 71.584C133.413 71.88 132.957 72.148 132.413 72.388C131.869 72.628 131.381 72.748 130.949 72.748C130.389 72.748 129.861 72.508 129.365 72.028C128.869 71.54 128.621 71.004 128.621 70.42C128.621 69.668 128.865 68.82 129.353 67.876C129.849 66.924 130.481 66.104 131.249 65.416C132.025 64.728 132.769 64.384 133.481 64.384ZM138.432 65.416L136.38 65.512C136.252 65.512 136.12 65.428 135.984 65.26C135.848 65.092 135.78 64.928 135.78 64.768C135.78 64.624 136.008 64.532 136.464 64.492C136.928 64.452 137.94 64.432 139.5 64.432C140.308 64.432 140.972 64.52 141.492 64.696C142.02 64.872 142.284 65.068 142.284 65.284C142.284 65.436 142.152 65.512 141.888 65.512C141.624 65.512 141.256 65.496 140.784 65.464C140.312 65.432 139.86 65.412 139.428 65.404C139.452 65.484 139.464 65.572 139.464 65.668C139.464 65.964 139.152 67.34 138.528 69.796C138.464 70.052 138.368 70.452 138.24 70.996C138.112 71.54 138.016 71.92 137.952 72.136C137.84 72.56 137.74 72.772 137.652 72.772C137.532 72.772 137.396 72.684 137.244 72.508C137.1 72.324 137.028 72.14 137.028 71.956C137.028 71.772 137.244 70.828 137.676 69.124C138.108 67.412 138.36 66.176 138.432 65.416ZM148.214 68.644C148.214 68.796 147.862 68.972 147.158 69.172C147.222 70.004 147.254 70.712 147.254 71.296C147.254 72.304 147.126 72.808 146.87 72.808C146.734 72.808 146.626 72.724 146.546 72.556C146.466 72.388 146.402 72.096 146.354 71.68C146.298 70.912 146.238 70.16 146.174 69.424C145.814 69.52 145.486 69.608 145.19 69.688C144.894 69.76 144.446 69.88 143.846 70.048C143.142 71.888 142.726 72.808 142.598 72.808C142.47 72.808 142.33 72.732 142.178 72.58C142.034 72.42 141.962 72.252 141.962 72.076C141.962 71.996 142.19 71.428 142.646 70.372H142.562C142.402 70.372 142.258 70.32 142.13 70.216C142.01 70.112 141.95 69.984 141.95 69.832C141.95 69.672 142.346 69.464 143.138 69.208C143.266 68.92 143.37 68.66 143.45 68.428C143.634 67.972 143.89 67.348 144.218 66.556C144.546 65.764 144.754 65.26 144.842 65.044C144.93 64.82 145.082 64.632 145.298 64.48C145.522 64.32 145.738 64.24 145.946 64.24C146.194 64.24 146.414 64.636 146.606 65.428C146.806 66.22 146.966 67.2 147.086 68.368C147.31 68.344 147.506 68.332 147.674 68.332C148.034 68.332 148.214 68.436 148.214 68.644ZM144.29 68.896C144.858 68.744 145.458 68.616 146.09 68.512C145.946 67.144 145.806 66.116 145.67 65.428C145.31 66.252 144.85 67.408 144.29 68.896Z" fill="black"/>
<path d="M380.366 39.95L380.296 41.83C380.296 42.35 380.319 42.7267 380.366 42.96C380.653 42.66 380.899 42.31 381.106 41.91C381.319 41.5033 381.476 41.1267 381.576 40.78C381.683 40.4333 381.773 40.11 381.846 39.81C381.926 39.5033 381.999 39.26 382.066 39.08C382.133 38.9 382.209 38.81 382.296 38.81C382.423 38.81 382.536 38.8633 382.636 38.97C382.736 39.07 382.786 39.1867 382.786 39.32C382.786 39.66 382.633 40.22 382.326 41C382.066 41.72 381.726 42.38 381.306 42.98C380.886 43.5733 380.559 43.87 380.326 43.87C380.093 43.87 379.916 43.74 379.796 43.48C379.683 43.22 379.619 42.7233 379.606 41.99C379.593 41.25 379.603 40.61 379.636 40.07C379.176 41.3233 378.769 42.27 378.416 42.91C378.063 43.55 377.783 43.87 377.576 43.87C377.483 43.87 377.383 43.8267 377.276 43.74C377.176 43.6533 377.096 43.54 377.036 43.4C376.889 43.0467 376.763 42.3733 376.656 41.38C376.556 40.38 376.506 39.6667 376.506 39.24C376.506 38.9667 376.589 38.83 376.756 38.83C376.903 38.83 377.036 38.9133 377.156 39.08C377.283 39.2467 377.356 39.4133 377.376 39.58C377.396 39.74 377.413 40.1933 377.426 40.94C377.446 41.68 377.509 42.34 377.616 42.92C377.889 42.4467 378.163 41.8533 378.436 41.14C378.716 40.4267 378.943 39.8667 379.116 39.46C379.296 39.0533 379.459 38.85 379.606 38.85C379.826 38.85 380.006 38.9533 380.146 39.16C380.293 39.36 380.366 39.6233 380.366 39.95ZM384.355 37.47C384.355 37.3367 384.408 37.21 384.515 37.09C384.621 36.97 384.728 36.91 384.835 36.91C384.948 36.91 385.081 37.0467 385.235 37.32C385.388 37.5867 385.465 37.81 385.465 37.99C385.465 38.0567 385.435 38.1167 385.375 38.17C385.315 38.2233 385.251 38.25 385.185 38.25C385.025 38.25 384.845 38.1533 384.645 37.96C384.451 37.7667 384.355 37.6033 384.355 37.47ZM384.305 38.89C384.431 38.89 384.551 38.9667 384.665 39.12C384.778 39.2733 384.835 39.4233 384.835 39.57C384.835 39.7167 384.738 40.1567 384.545 40.89C384.351 41.6167 384.108 42.4333 383.815 43.34C383.701 43.6733 383.558 43.84 383.385 43.84C383.291 43.84 383.211 43.8033 383.145 43.73C383.078 43.65 383.045 43.5633 383.045 43.47C383.045 43.37 383.068 43.2167 383.115 43.01C383.168 42.7967 383.241 42.5167 383.335 42.17C383.435 41.8167 383.511 41.53 383.565 41.31C383.625 41.09 383.685 40.8433 383.745 40.57C383.805 40.29 383.851 40.0667 383.885 39.9C383.925 39.7267 383.968 39.5533 384.015 39.38C384.108 39.0533 384.205 38.89 384.305 38.89ZM386.057 40.11L386.027 39.36C386.027 39.0467 386.101 38.89 386.247 38.89C386.374 38.89 386.494 38.9733 386.607 39.14C386.727 39.3 386.787 39.4933 386.787 39.72C386.787 39.94 386.781 40.1067 386.767 40.22C387.347 39.34 387.897 38.9 388.417 38.9C388.744 38.9 388.907 38.98 388.907 39.14C388.907 39.22 388.871 39.2933 388.797 39.36C388.724 39.4267 388.607 39.5033 388.447 39.59C388.094 39.7433 387.794 39.98 387.547 40.3C387.307 40.6133 387.111 40.97 386.957 41.37C386.804 41.77 386.681 42.1067 386.587 42.38C386.501 42.6533 386.434 42.8667 386.387 43.02C386.341 43.1733 386.287 43.3233 386.227 43.47C386.121 43.7367 385.997 43.87 385.857 43.87C385.744 43.87 385.651 43.8067 385.577 43.68C385.511 43.5467 385.477 43.42 385.477 43.3C385.477 43.1733 385.534 42.9267 385.647 42.56C385.921 41.72 386.057 40.9033 386.057 40.11ZM392.758 40.55C392.758 40.9033 392.565 41.1933 392.178 41.42C391.798 41.64 391.365 41.75 390.878 41.75C390.398 41.75 389.961 41.6967 389.568 41.59C389.475 41.8833 389.428 42.1467 389.428 42.38C389.428 42.6067 389.498 42.7833 389.638 42.91C389.785 43.0367 390.021 43.1 390.348 43.1C390.681 43.1 391.021 43.0433 391.368 42.93C391.721 42.81 391.915 42.75 391.948 42.75C392.121 42.75 392.208 42.8167 392.208 42.95C392.208 43.13 392.005 43.3267 391.598 43.54C391.191 43.7467 390.795 43.85 390.408 43.85C389.888 43.85 389.465 43.6967 389.138 43.39C388.811 43.0767 388.648 42.6833 388.648 42.21C388.648 41.7367 388.775 41.2433 389.028 40.73C389.281 40.21 389.608 39.7733 390.008 39.42C390.408 39.0667 390.805 38.89 391.198 38.89C391.591 38.89 391.948 39.0767 392.268 39.45C392.595 39.8233 392.758 40.19 392.758 40.55ZM391.248 39.68C391.001 39.68 390.745 39.81 390.478 40.07C390.211 40.3233 389.985 40.64 389.798 41.02C390.065 41.08 390.368 41.11 390.708 41.11C391.048 41.11 391.345 41.0567 391.598 40.95C391.851 40.8367 391.978 40.69 391.978 40.51C391.978 40.33 391.895 40.1467 391.728 39.96C391.568 39.7733 391.408 39.68 391.248 39.68ZM393.99 43.87C393.903 43.87 393.81 43.8067 393.71 43.68C393.61 43.5533 393.56 43.45 393.56 43.37C393.56 43.29 393.593 43.1333 393.66 42.9C393.993 41.7 394.22 40.8433 394.34 40.33C394.053 40.3967 393.857 40.43 393.75 40.43C393.643 40.43 393.537 40.3833 393.43 40.29C393.323 40.1967 393.27 40.0933 393.27 39.98C393.27 39.8667 393.42 39.7667 393.72 39.68C394.107 39.5867 394.373 39.5267 394.52 39.5C394.587 39.18 394.637 38.9333 394.67 38.76C394.83 37.84 395.047 37.1767 395.32 36.77C395.593 36.3633 395.963 36.16 396.43 36.16C396.763 36.16 397.037 36.2933 397.25 36.56C397.463 36.82 397.57 37.13 397.57 37.49C397.57 37.8433 397.477 38.02 397.29 38.02C397.13 38.02 397 37.84 396.9 37.48C396.867 37.3467 396.81 37.2233 396.73 37.11C396.65 36.9967 396.553 36.94 396.44 36.94C396.327 36.94 396.223 36.9933 396.13 37.1C396.037 37.2 395.953 37.3467 395.88 37.54C395.687 38.08 395.553 38.5733 395.48 39.02L395.4 39.37C395.647 39.3367 395.89 39.32 396.13 39.32C396.377 39.32 396.553 39.3467 396.66 39.4C396.773 39.4533 396.83 39.52 396.83 39.6C396.83 39.7267 396.72 39.8233 396.5 39.89C396.28 39.9567 395.85 40.0433 395.21 40.15C394.737 42.07 394.413 43.2133 394.24 43.58C394.147 43.7733 394.063 43.87 393.99 43.87ZM397.63 40.11L397.6 39.36C397.6 39.0467 397.673 38.89 397.82 38.89C397.946 38.89 398.066 38.9733 398.18 39.14C398.3 39.3 398.36 39.4933 398.36 39.72C398.36 39.94 398.353 40.1067 398.34 40.22C398.92 39.34 399.47 38.9 399.99 38.9C400.316 38.9 400.48 38.98 400.48 39.14C400.48 39.22 400.443 39.2933 400.37 39.36C400.296 39.4267 400.18 39.5033 400.02 39.59C399.666 39.7433 399.366 39.98 399.12 40.3C398.88 40.6133 398.683 40.97 398.53 41.37C398.376 41.77 398.253 42.1067 398.16 42.38C398.073 42.6533 398.006 42.8667 397.96 43.02C397.913 43.1733 397.86 43.3233 397.8 43.47C397.693 43.7367 397.57 43.87 397.43 43.87C397.316 43.87 397.223 43.8067 397.15 43.68C397.083 43.5467 397.05 43.42 397.05 43.3C397.05 43.1733 397.106 42.9267 397.22 42.56C397.493 41.72 397.63 40.9033 397.63 40.11ZM403 38.89C403.3 38.89 403.577 39.0433 403.83 39.35C404.084 39.65 404.21 39.9233 404.21 40.17C404.21 40.41 404.127 40.6567 403.96 40.91C404.04 41.01 404.08 41.0967 404.08 41.17C404.08 41.3567 404.037 41.6767 403.95 42.13C403.87 42.5833 403.82 42.88 403.8 43.02C403.787 43.16 403.774 43.2733 403.76 43.36C403.747 43.44 403.73 43.52 403.71 43.6C403.684 43.7667 403.624 43.85 403.53 43.85C403.41 43.85 403.31 43.7467 403.23 43.54C403.157 43.3267 403.114 43.0533 403.1 42.72C402.507 43.4733 401.957 43.85 401.45 43.85C401.144 43.85 400.84 43.72 400.54 43.46C400.247 43.1933 400.1 42.92 400.1 42.64C400.1 42.24 400.247 41.7467 400.54 41.16C400.834 40.5667 401.214 40.04 401.68 39.58C402.147 39.12 402.587 38.89 403 38.89ZM403.46 40.65C403.46 40.03 403.337 39.72 403.09 39.72C402.83 39.72 402.527 39.9067 402.18 40.28C401.834 40.6467 401.54 41.0633 401.3 41.53C401.06 41.9967 400.94 42.3667 400.94 42.64C400.94 42.7533 400.987 42.8467 401.08 42.92C401.174 42.9867 401.284 43.02 401.41 43.02C401.724 43.02 402.077 42.81 402.47 42.39C402.864 41.9633 403.137 41.4467 403.29 40.84C403.31 40.74 403.367 40.68 403.46 40.66V40.65ZM411.498 38.89C411.698 38.89 411.874 39.03 412.028 39.31C412.188 39.5833 412.268 39.8967 412.268 40.25C412.268 40.5967 412.204 41.05 412.078 41.61C411.958 42.17 411.794 42.6833 411.588 43.15C411.381 43.6167 411.178 43.85 410.978 43.85C410.838 43.85 410.768 43.76 410.768 43.58C410.768 43.3933 410.881 42.9433 411.108 42.23C411.341 41.51 411.458 40.94 411.458 40.52C411.458 40.0933 411.391 39.88 411.258 39.88C411.091 39.88 410.898 40.0267 410.678 40.32C410.464 40.6133 410.234 40.9667 409.988 41.38C409.741 41.7933 409.608 42.0167 409.588 42.05C409.568 42.0767 409.541 42.1167 409.508 42.17C409.481 42.2233 409.448 42.28 409.408 42.34C409.374 42.4 409.281 42.58 409.128 42.88C408.981 43.18 408.851 43.4167 408.738 43.59C408.624 43.7567 408.524 43.84 408.438 43.84C408.358 43.84 408.268 43.7867 408.168 43.68C408.068 43.5733 408.018 43.4733 408.018 43.38C408.018 43.2867 408.078 43.0933 408.198 42.8C408.544 41.9333 408.718 41.1267 408.718 40.38C408.718 40.24 408.688 40.1233 408.628 40.03C408.568 39.93 408.501 39.88 408.428 39.88C408.354 39.88 408.278 39.9133 408.198 39.98C408.118 40.04 408.018 40.1533 407.898 40.32C407.778 40.48 407.671 40.6333 407.578 40.78C407.484 40.9267 407.341 41.1567 407.148 41.47C406.961 41.7767 406.818 42.0067 406.718 42.16C406.624 42.3067 406.514 42.48 406.388 42.68C406.261 42.8733 406.161 43.0233 406.088 43.13C406.021 43.2367 405.944 43.3533 405.858 43.48C405.678 43.7267 405.544 43.85 405.458 43.85C405.378 43.85 405.271 43.7767 405.138 43.63C405.004 43.4767 404.938 43.3633 404.938 43.29C404.938 43.21 404.951 43.1133 404.978 43C405.004 42.8867 405.031 42.7767 405.058 42.67C405.091 42.5633 405.138 42.4067 405.198 42.2C405.264 41.9867 405.338 41.74 405.418 41.46C405.504 41.1733 405.568 40.7833 405.608 40.29C405.654 39.79 405.688 39.4267 405.708 39.2C405.728 38.9667 405.784 38.85 405.878 38.85C406.024 38.85 406.168 38.9267 406.308 39.08C406.454 39.2333 406.528 39.3867 406.528 39.54C406.528 40.1267 406.308 41.0933 405.868 42.44C406.614 41.04 407.084 40.21 407.278 39.95C407.471 39.69 407.638 39.48 407.778 39.32C408.038 39.0333 408.301 38.89 408.568 38.89C408.728 38.89 408.918 39.03 409.138 39.31C409.364 39.5833 409.478 39.86 409.478 40.14C409.478 40.42 409.438 40.7667 409.358 41.18C410.144 39.6533 410.858 38.89 411.498 38.89ZM416.977 40.55C416.977 40.9033 416.783 41.1933 416.397 41.42C416.017 41.64 415.583 41.75 415.097 41.75C414.617 41.75 414.18 41.6967 413.787 41.59C413.693 41.8833 413.647 42.1467 413.647 42.38C413.647 42.6067 413.717 42.7833 413.857 42.91C414.003 43.0367 414.24 43.1 414.567 43.1C414.9 43.1 415.24 43.0433 415.587 42.93C415.94 42.81 416.133 42.75 416.167 42.75C416.34 42.75 416.427 42.8167 416.427 42.95C416.427 43.13 416.223 43.3267 415.817 43.54C415.41 43.7467 415.013 43.85 414.627 43.85C414.107 43.85 413.683 43.6967 413.357 43.39C413.03 43.0767 412.867 42.6833 412.867 42.21C412.867 41.7367 412.993 41.2433 413.247 40.73C413.5 40.21 413.827 39.7733 414.227 39.42C414.627 39.0667 415.023 38.89 415.417 38.89C415.81 38.89 416.167 39.0767 416.487 39.45C416.813 39.8233 416.977 40.19 416.977 40.55ZM415.467 39.68C415.22 39.68 414.963 39.81 414.697 40.07C414.43 40.3233 414.203 40.64 414.017 41.02C414.283 41.08 414.587 41.11 414.927 41.11C415.267 41.11 415.563 41.0567 415.817 40.95C416.07 40.8367 416.197 40.69 416.197 40.51C416.197 40.33 416.113 40.1467 415.947 39.96C415.787 39.7733 415.627 39.68 415.467 39.68ZM421.862 41.08C421.862 40.86 422.626 40.6833 424.152 40.55C425.679 40.41 427.326 40.34 429.092 40.34C429.752 40.34 430.082 40.4333 430.082 40.62C430.082 40.7667 429.736 40.8733 429.042 40.94C428.616 40.98 427.969 41.0267 427.102 41.08C426.236 41.1333 425.572 41.1833 425.112 41.23C424.659 41.27 424.089 41.3367 423.402 41.43C422.722 41.5233 422.336 41.5733 422.242 41.58C422.156 41.58 422.069 41.5267 421.982 41.42C421.902 41.3067 421.862 41.1933 421.862 41.08ZM435.666 42.11C436.306 41.0233 436.826 40.2167 437.226 39.69C437.633 39.1567 437.963 38.89 438.216 38.89C438.476 38.89 438.719 39.0267 438.946 39.3C439.179 39.5733 439.296 39.8633 439.296 40.17C439.296 40.65 439.186 41.2367 438.966 41.93C438.566 43.21 438.206 43.85 437.886 43.85C437.739 43.85 437.666 43.75 437.666 43.55C437.666 43.41 437.736 43.1267 437.876 42.7C438.023 42.2667 438.156 41.8433 438.276 41.43C438.403 41.01 438.466 40.6967 438.466 40.49C438.466 40.2767 438.433 40.12 438.366 40.02C438.306 39.92 438.243 39.87 438.176 39.87C438.116 39.87 438.053 39.89 437.986 39.93C437.919 39.97 437.843 40.0367 437.756 40.13C437.676 40.2233 437.599 40.3167 437.526 40.41C437.453 40.4967 437.359 40.6233 437.246 40.79C437.139 40.9567 437.049 41.1 436.976 41.22C436.903 41.3333 436.796 41.5 436.656 41.72C436.516 41.94 436.409 42.1067 436.336 42.22C436.263 42.3333 436.166 42.4867 436.046 42.68C435.926 42.8733 435.829 43.0233 435.756 43.13C435.689 43.2367 435.613 43.3533 435.526 43.48C435.359 43.7267 435.226 43.85 435.126 43.85C435.033 43.85 434.923 43.7767 434.796 43.63C434.669 43.4767 434.606 43.3433 434.606 43.23C434.606 43.1967 434.629 43.1067 434.676 42.96C434.803 42.5733 434.943 42.0967 435.096 41.53C435.249 40.9567 435.333 40.3067 435.346 39.58C435.366 39.0933 435.436 38.85 435.556 38.85C435.703 38.85 435.849 38.9267 435.996 39.08C436.143 39.2333 436.216 39.4033 436.216 39.59C436.216 39.77 436.159 40.1233 436.046 40.65C435.939 41.17 435.813 41.6567 435.666 42.11ZM443.038 40.59C443.038 40.3633 443.001 40.15 442.928 39.95C442.855 39.7433 442.748 39.5933 442.608 39.5C442.148 39.6267 441.751 39.9833 441.418 40.57C441.091 41.15 440.928 41.6967 440.928 42.21C440.928 42.7233 441.055 43.0433 441.308 43.17C441.788 43.0767 442.195 42.75 442.528 42.19C442.868 41.6233 443.038 41.09 443.038 40.59ZM440.408 40.68C440.641 40.16 440.945 39.7333 441.318 39.4C441.698 39.06 442.085 38.89 442.478 38.89C442.878 38.89 443.211 39.06 443.478 39.4C443.745 39.7333 443.878 40.1433 443.878 40.63C443.878 41.11 443.761 41.6033 443.528 42.11C443.295 42.61 442.971 43.0267 442.558 43.36C442.151 43.6867 441.718 43.85 441.258 43.85C440.918 43.85 440.635 43.6933 440.408 43.38C440.181 43.0667 440.068 42.67 440.068 42.19C440.068 41.7033 440.181 41.2 440.408 40.68ZM445.669 42.85C445.669 42.9767 445.743 43.04 445.889 43.04C446.143 43.04 446.449 42.97 446.809 42.83C447.176 42.6833 447.379 42.61 447.419 42.61C447.539 42.61 447.599 42.6733 447.599 42.8C447.599 42.9933 447.399 43.2167 446.999 43.47C446.606 43.7233 446.246 43.85 445.919 43.85C445.599 43.85 445.333 43.7633 445.119 43.59C444.906 43.41 444.799 43.2267 444.799 43.04C444.799 42.8533 444.839 42.6167 444.919 42.33C444.999 42.0367 445.113 41.6533 445.259 41.18C445.413 40.7 445.533 40.3033 445.619 39.99C445.306 40.0633 445.096 40.1 444.989 40.1C444.883 40.1 444.776 40.0467 444.669 39.94C444.569 39.8267 444.519 39.72 444.519 39.62C444.519 39.46 444.953 39.3067 445.819 39.16C445.939 38.6067 445.999 38.1167 445.999 37.69C445.999 37.49 446.066 37.39 446.199 37.39C446.313 37.39 446.453 37.4633 446.619 37.61C446.786 37.75 446.869 37.91 446.869 38.09C446.869 38.27 446.813 38.5867 446.699 39.04C447.079 39.0067 447.383 38.99 447.609 38.99C448.009 38.99 448.209 39.0767 448.209 39.25C448.209 39.35 448.099 39.4333 447.879 39.5C447.666 39.5667 447.213 39.67 446.519 39.81C446.379 40.3367 446.203 40.94 445.989 41.62C445.776 42.2933 445.669 42.7033 445.669 42.85ZM453.53 43.56C453.43 43.7667 453.343 43.87 453.27 43.87C453.197 43.87 453.107 43.81 453 43.69C452.893 43.5633 452.84 43.4567 452.84 43.37C452.84 43.2833 452.877 43.1133 452.95 42.86C453.27 41.7867 453.503 40.9133 453.65 40.24C453.317 40.3 453.103 40.33 453.01 40.33C452.917 40.33 452.817 40.28 452.71 40.18C452.603 40.08 452.55 39.9767 452.55 39.87C452.55 39.7567 452.667 39.6667 452.9 39.6C453.14 39.5333 453.453 39.4667 453.84 39.4C453.867 39.2667 453.907 39.0533 453.96 38.76C454.12 37.82 454.333 37.1533 454.6 36.76C454.867 36.36 455.237 36.16 455.71 36.16C456.063 36.16 456.433 36.3233 456.82 36.65C457.207 36.97 457.4 37.2967 457.4 37.63C457.4 37.9567 457.317 38.12 457.15 38.12C457.03 38.12 456.887 38.0233 456.72 37.83C456.56 37.63 456.39 37.4333 456.21 37.24C456.037 37.04 455.877 36.94 455.73 36.94C455.39 36.94 455.067 37.6333 454.76 39.02L454.7 39.28C455.533 39.1733 456.163 39.12 456.59 39.12C457.023 39.12 457.24 39.2833 457.24 39.61C457.24 39.79 457.09 40.3567 456.79 41.31C456.49 42.2567 456.287 42.9167 456.18 43.29C456.073 43.6567 455.933 43.84 455.76 43.84C455.66 43.84 455.577 43.7967 455.51 43.71C455.45 43.6167 455.42 43.5133 455.42 43.4C455.42 43.28 455.477 43.0033 455.59 42.57C455.703 42.13 455.837 41.63 455.99 41.07C456.143 40.5033 456.25 40.09 456.31 39.83C456.017 39.8433 455.413 39.93 454.5 40.09C454.04 42.01 453.717 43.1667 453.53 43.56ZM458.693 42.11C459.333 41.0233 459.853 40.2167 460.253 39.69C460.66 39.1567 460.99 38.89 461.243 38.89C461.503 38.89 461.747 39.0267 461.973 39.3C462.207 39.5733 462.323 39.8633 462.323 40.17C462.323 40.65 462.213 41.2367 461.993 41.93C461.593 43.21 461.233 43.85 460.913 43.85C460.767 43.85 460.693 43.75 460.693 43.55C460.693 43.41 460.763 43.1267 460.903 42.7C461.05 42.2667 461.183 41.8433 461.303 41.43C461.43 41.01 461.493 40.6967 461.493 40.49C461.493 40.2767 461.46 40.12 461.393 40.02C461.333 39.92 461.27 39.87 461.203 39.87C461.143 39.87 461.08 39.89 461.013 39.93C460.947 39.97 460.87 40.0367 460.783 40.13C460.703 40.2233 460.627 40.3167 460.553 40.41C460.48 40.4967 460.387 40.6233 460.273 40.79C460.167 40.9567 460.077 41.1 460.003 41.22C459.93 41.3333 459.823 41.5 459.683 41.72C459.543 41.94 459.437 42.1067 459.363 42.22C459.29 42.3333 459.193 42.4867 459.073 42.68C458.953 42.8733 458.857 43.0233 458.783 43.13C458.717 43.2367 458.64 43.3533 458.553 43.48C458.387 43.7267 458.253 43.85 458.153 43.85C458.06 43.85 457.95 43.7767 457.823 43.63C457.697 43.4767 457.633 43.3433 457.633 43.23C457.633 43.1967 457.657 43.1067 457.703 42.96C457.83 42.5733 457.97 42.0967 458.123 41.53C458.277 40.9567 458.36 40.3067 458.373 39.58C458.393 39.0933 458.463 38.85 458.583 38.85C458.73 38.85 458.877 38.9267 459.023 39.08C459.17 39.2333 459.243 39.4033 459.243 39.59C459.243 39.77 459.187 40.1233 459.073 40.65C458.967 41.17 458.84 41.6567 458.693 42.11ZM465.705 38.89C466.005 38.89 466.282 39.0433 466.535 39.35C466.789 39.65 466.915 39.9233 466.915 40.17C466.915 40.41 466.832 40.6567 466.665 40.91C466.745 41.01 466.785 41.0967 466.785 41.17C466.785 41.3567 466.742 41.6767 466.655 42.13C466.575 42.5833 466.525 42.88 466.505 43.02C466.492 43.16 466.479 43.2733 466.465 43.36C466.452 43.44 466.435 43.52 466.415 43.6C466.389 43.7667 466.329 43.85 466.235 43.85C466.115 43.85 466.015 43.7467 465.935 43.54C465.862 43.3267 465.819 43.0533 465.805 42.72C465.212 43.4733 464.662 43.85 464.155 43.85C463.849 43.85 463.545 43.72 463.245 43.46C462.952 43.1933 462.805 42.92 462.805 42.64C462.805 42.24 462.952 41.7467 463.245 41.16C463.539 40.5667 463.919 40.04 464.385 39.58C464.852 39.12 465.292 38.89 465.705 38.89ZM466.165 40.65C466.165 40.03 466.042 39.72 465.795 39.72C465.535 39.72 465.232 39.9067 464.885 40.28C464.539 40.6467 464.245 41.0633 464.005 41.53C463.765 41.9967 463.645 42.3667 463.645 42.64C463.645 42.7533 463.692 42.8467 463.785 42.92C463.879 42.9867 463.989 43.02 464.115 43.02C464.429 43.02 464.782 42.81 465.175 42.39C465.569 41.9633 465.842 41.4467 465.995 40.84C466.015 40.74 466.072 40.68 466.165 40.66V40.65ZM469.703 36.93C469.703 38.1833 469.443 39.81 468.923 41.81C468.59 43.17 468.356 43.85 468.223 43.85C468.13 43.85 468.02 43.7767 467.893 43.63C467.773 43.4833 467.713 43.37 467.713 43.29C467.713 43.21 467.81 42.7967 468.003 42.05C468.196 41.3033 468.39 40.3867 468.583 39.3C468.776 38.2067 468.873 37.2233 468.873 36.35C468.873 36.2567 468.886 36.19 468.913 36.15C468.94 36.11 468.996 36.09 469.083 36.09C469.17 36.09 469.293 36.1867 469.453 36.38C469.62 36.5667 469.703 36.75 469.703 36.93ZM477.648 38.89C477.761 38.89 477.871 38.9333 477.978 39.02C478.084 39.1 478.138 39.19 478.138 39.29C478.138 39.47 477.894 40.0933 477.408 41.16C476.928 42.2267 476.584 42.9467 476.378 43.32C476.178 43.6867 476.001 43.87 475.848 43.87C475.761 43.87 475.654 43.8067 475.528 43.68C475.401 43.5533 475.308 43.4167 475.248 43.27C475.068 42.85 474.874 42.1733 474.668 41.24C474.461 40.3067 474.358 39.6233 474.358 39.19C474.358 38.99 474.418 38.89 474.538 38.89C474.684 38.89 474.834 38.9533 474.988 39.08C475.141 39.2 475.248 39.3533 475.308 39.54C475.328 39.6467 475.354 39.9133 475.388 40.34C475.481 41.3933 475.641 42.2033 475.868 42.77C476.048 42.3833 476.278 41.8367 476.558 41.13C476.838 40.4167 477.064 39.8667 477.238 39.48C477.418 39.0867 477.554 38.89 477.648 38.89ZM479.696 37.47C479.696 37.3367 479.75 37.21 479.856 37.09C479.963 36.97 480.07 36.91 480.176 36.91C480.29 36.91 480.423 37.0467 480.576 37.32C480.73 37.5867 480.806 37.81 480.806 37.99C480.806 38.0567 480.776 38.1167 480.716 38.17C480.656 38.2233 480.593 38.25 480.526 38.25C480.366 38.25 480.186 38.1533 479.986 37.96C479.793 37.7667 479.696 37.6033 479.696 37.47ZM479.646 38.89C479.773 38.89 479.893 38.9667 480.006 39.12C480.12 39.2733 480.176 39.4233 480.176 39.57C480.176 39.7167 480.08 40.1567 479.886 40.89C479.693 41.6167 479.45 42.4333 479.156 43.34C479.043 43.6733 478.9 43.84 478.726 43.84C478.633 43.84 478.553 43.8033 478.486 43.73C478.42 43.65 478.386 43.5633 478.386 43.47C478.386 43.37 478.41 43.2167 478.456 43.01C478.51 42.7967 478.583 42.5167 478.676 42.17C478.776 41.8167 478.853 41.53 478.906 41.31C478.966 41.09 479.026 40.8433 479.086 40.57C479.146 40.29 479.193 40.0667 479.226 39.9C479.266 39.7267 479.31 39.5533 479.356 39.38C479.45 39.0533 479.546 38.89 479.646 38.89ZM483.659 38.89C483.886 38.89 484.099 39.0167 484.299 39.27C484.499 39.5167 484.599 39.7333 484.599 39.92C484.599 40.0333 484.546 40.09 484.439 40.09C484.366 40.09 484.253 40.0333 484.099 39.92C483.946 39.8 483.789 39.74 483.629 39.74C483.469 39.74 483.216 39.8333 482.869 40.02C482.529 40.2067 482.359 40.4033 482.359 40.61C482.359 40.7633 482.666 41.0267 483.279 41.4C483.513 41.5467 483.723 41.7367 483.909 41.97C484.103 42.1967 484.199 42.4433 484.199 42.71C484.199 42.97 484.016 43.2267 483.649 43.48C483.289 43.7267 482.866 43.85 482.379 43.85C481.899 43.85 481.473 43.7333 481.099 43.5C480.733 43.2667 480.549 43.0467 480.549 42.84C480.549 42.7533 480.569 42.6867 480.609 42.64C480.656 42.5867 480.713 42.56 480.779 42.56C480.846 42.56 480.939 42.6033 481.059 42.69C481.419 42.95 481.793 43.08 482.179 43.08C482.573 43.08 482.856 43.0367 483.029 42.95C483.203 42.8567 483.289 42.7367 483.289 42.59C483.289 42.4367 483.193 42.2767 482.999 42.11C482.806 41.9367 482.593 41.7833 482.359 41.65C482.133 41.5167 481.923 41.3533 481.729 41.16C481.536 40.9667 481.439 40.77 481.439 40.57C481.439 40.2167 481.716 39.85 482.269 39.47C482.829 39.0833 483.293 38.89 483.659 38.89ZM488.597 39.17C488.624 39.0633 488.65 38.99 488.677 38.95C488.704 38.91 488.76 38.89 488.847 38.89C488.94 38.89 489.05 38.9767 489.177 39.15C489.31 39.3233 489.377 39.49 489.377 39.65C489.377 39.7367 489.23 40.25 488.937 41.19C488.644 42.13 488.417 42.8767 488.257 43.43C488.177 43.71 488.064 43.85 487.917 43.85C487.83 43.85 487.757 43.8133 487.697 43.74C487.637 43.6667 487.607 43.5333 487.607 43.34C487.607 43.1467 487.684 42.7967 487.837 42.29C487.557 42.7433 487.254 43.1167 486.927 43.41C486.6 43.7033 486.3 43.85 486.027 43.85C485.76 43.85 485.507 43.7233 485.267 43.47C485.027 43.2167 484.907 42.9567 484.907 42.69C484.907 42.0567 485.09 41.2667 485.457 40.32C485.83 39.3667 486.14 38.89 486.387 38.89C486.507 38.89 486.61 38.9467 486.697 39.06C486.79 39.1667 486.837 39.29 486.837 39.43C486.837 39.49 486.747 39.7067 486.567 40.08C486.387 40.4467 486.207 40.88 486.027 41.38C485.847 41.8733 485.757 42.3067 485.757 42.68C485.757 42.7867 485.79 42.8767 485.857 42.95C485.924 43.0167 486.004 43.05 486.097 43.05C486.35 43.05 486.65 42.8267 486.997 42.38C487.35 41.9333 487.67 41.4133 487.957 40.82C488.244 40.2267 488.457 39.6767 488.597 39.17ZM492.532 38.89C492.832 38.89 493.108 39.0433 493.362 39.35C493.615 39.65 493.742 39.9233 493.742 40.17C493.742 40.41 493.658 40.6567 493.492 40.91C493.572 41.01 493.612 41.0967 493.612 41.17C493.612 41.3567 493.568 41.6767 493.482 42.13C493.402 42.5833 493.352 42.88 493.332 43.02C493.318 43.16 493.305 43.2733 493.292 43.36C493.278 43.44 493.262 43.52 493.242 43.6C493.215 43.7667 493.155 43.85 493.062 43.85C492.942 43.85 492.842 43.7467 492.762 43.54C492.688 43.3267 492.645 43.0533 492.632 42.72C492.038 43.4733 491.488 43.85 490.982 43.85C490.675 43.85 490.372 43.72 490.072 43.46C489.778 43.1933 489.632 42.92 489.632 42.64C489.632 42.24 489.778 41.7467 490.072 41.16C490.365 40.5667 490.745 40.04 491.212 39.58C491.678 39.12 492.118 38.89 492.532 38.89ZM492.992 40.65C492.992 40.03 492.868 39.72 492.622 39.72C492.362 39.72 492.058 39.9067 491.712 40.28C491.365 40.6467 491.072 41.0633 490.832 41.53C490.592 41.9967 490.472 42.3667 490.472 42.64C490.472 42.7533 490.518 42.8467 490.612 42.92C490.705 42.9867 490.815 43.02 490.942 43.02C491.255 43.02 491.608 42.81 492.002 42.39C492.395 41.9633 492.668 41.4467 492.822 40.84C492.842 40.74 492.898 40.68 492.992 40.66V40.65ZM496.529 36.93C496.529 38.1833 496.269 39.81 495.749 41.81C495.416 43.17 495.182 43.85 495.049 43.85C494.956 43.85 494.846 43.7767 494.719 43.63C494.599 43.4833 494.539 43.37 494.539 43.29C494.539 43.21 494.636 42.7967 494.829 42.05C495.022 41.3033 495.216 40.3867 495.409 39.3C495.602 38.2067 495.699 37.2233 495.699 36.35C495.699 36.2567 495.712 36.19 495.739 36.15C495.766 36.11 495.822 36.09 495.909 36.09C495.996 36.09 496.119 36.1867 496.279 36.38C496.446 36.5667 496.529 36.75 496.529 36.93Z" fill="#7A756D"/>
</svg>
