<svg width="130" height="58" viewBox="0 0 130 58" fill="none" xmlns="http://www.w3.org/2000/svg">
<path d="M61.012 7.804C61.4133 7.804 61.7587 8.06067 62.048 8.574C62.3467 9.08733 62.496 9.61933 62.496 10.17C62.496 10.7113 62.3373 11.2573 62.02 11.808C61.7027 12.3493 61.3107 12.8347 60.844 13.264C60.3773 13.6933 59.8593 14.0527 59.29 14.342C58.73 14.622 58.212 14.762 57.736 14.762C57.5493 14.762 57.372 14.7387 57.204 14.692C57.1667 14.8507 57.1013 15.1353 57.008 15.546C56.9147 15.9567 56.8353 16.2973 56.77 16.568C56.7047 16.8387 56.63 17.128 56.546 17.436C56.378 18.0707 56.2287 18.388 56.098 18.388C55.9673 18.388 55.832 18.2853 55.692 18.08C55.5427 17.884 55.468 17.7067 55.468 17.548C55.468 17.3893 55.6173 16.708 55.916 15.504C56.812 11.8733 57.26 9.428 57.26 8.168C57.26 7.888 57.3627 7.748 57.568 7.748C57.736 7.748 57.9367 7.874 58.17 8.126C58.4127 8.36867 58.534 8.63933 58.534 8.938C58.534 9.08733 58.5153 9.25067 58.478 9.428C59.3087 8.34533 60.1533 7.804 61.012 7.804ZM57.596 13.67C58.0907 13.67 58.6227 13.502 59.192 13.166C59.7707 12.83 60.2607 12.3867 60.662 11.836C61.0727 11.276 61.278 10.7207 61.278 10.17C61.278 9.39533 61.096 9.008 60.732 9.008C60.368 9.008 59.8733 9.32067 59.248 9.946C58.632 10.5713 58.142 11.3833 57.778 12.382L57.456 13.67H57.596ZM63.9595 9.554L63.9175 8.504C63.9175 8.06533 64.0202 7.846 64.2255 7.846C64.4029 7.846 64.5709 7.96267 64.7295 8.196C64.8975 8.42 64.9815 8.69067 64.9815 9.008C64.9815 9.316 64.9722 9.54933 64.9535 9.708C65.7655 8.476 66.5355 7.86 67.2635 7.86C67.7209 7.86 67.9495 7.972 67.9495 8.196C67.9495 8.308 67.8982 8.41067 67.7955 8.504C67.6929 8.59733 67.5295 8.70467 67.3055 8.826C66.8109 9.04067 66.3909 9.372 66.0455 9.82C65.7095 10.2587 65.4342 10.758 65.2195 11.318C65.0049 11.878 64.8322 12.3493 64.7015 12.732C64.5802 13.1147 64.4869 13.4133 64.4215 13.628C64.3562 13.8427 64.2815 14.0527 64.1975 14.258C64.0482 14.6313 63.8755 14.818 63.6795 14.818C63.5209 14.818 63.3902 14.7293 63.2875 14.552C63.1942 14.3653 63.1475 14.188 63.1475 14.02C63.1475 13.8427 63.2269 13.4973 63.3855 12.984C63.7682 11.808 63.9595 10.6647 63.9595 9.554ZM69.5463 5.858C69.5463 5.67133 69.621 5.494 69.7703 5.326C69.9196 5.158 70.069 5.074 70.2183 5.074C70.377 5.074 70.5636 5.26533 70.7783 5.648C70.993 6.02133 71.1003 6.334 71.1003 6.586C71.1003 6.67933 71.0583 6.76333 70.9743 6.838C70.8903 6.91267 70.8016 6.95 70.7083 6.95C70.4843 6.95 70.2323 6.81467 69.9523 6.544C69.6816 6.27333 69.5463 6.04467 69.5463 5.858ZM69.4763 7.846C69.6536 7.846 69.8216 7.95333 69.9803 8.168C70.139 8.38267 70.2183 8.59267 70.2183 8.798C70.2183 9.00333 70.083 9.61933 69.8123 10.646C69.5416 11.6633 69.201 12.8067 68.7903 14.076C68.6316 14.5427 68.431 14.776 68.1883 14.776C68.0576 14.776 67.9456 14.7247 67.8523 14.622C67.759 14.51 67.7123 14.3887 67.7123 14.258C67.7123 14.118 67.745 13.9033 67.8103 13.614C67.885 13.3153 67.9876 12.9233 68.1183 12.438C68.2583 11.9433 68.3656 11.542 68.4403 11.234C68.5243 10.926 68.6083 10.5807 68.6923 10.198C68.7763 9.806 68.8416 9.49333 68.8883 9.26C68.9443 9.01733 69.005 8.77467 69.0703 8.532C69.201 8.07467 69.3363 7.846 69.4763 7.846ZM80.1483 7.846C80.4283 7.846 80.6756 8.042 80.8903 8.434C81.1143 8.81667 81.2263 9.25533 81.2263 9.75C81.2263 10.2353 81.1376 10.87 80.9603 11.654C80.7923 12.438 80.5636 13.1567 80.2743 13.81C79.9849 14.4633 79.7003 14.79 79.4203 14.79C79.2243 14.79 79.1263 14.664 79.1263 14.412C79.1263 14.1507 79.2849 13.5207 79.6023 12.522C79.9289 11.514 80.0923 10.716 80.0923 10.128C80.0923 9.53067 79.9989 9.232 79.8123 9.232C79.5789 9.232 79.3083 9.43733 79.0003 9.848C78.7016 10.2587 78.3796 10.7533 78.0343 11.332C77.6889 11.9107 77.5023 12.2233 77.4743 12.27C77.4463 12.3073 77.4089 12.3633 77.3623 12.438C77.3249 12.5127 77.2783 12.592 77.2223 12.676C77.1756 12.76 77.0449 13.012 76.8303 13.432C76.6249 13.852 76.4429 14.1833 76.2843 14.426C76.1256 14.6593 75.9856 14.776 75.8643 14.776C75.7523 14.776 75.6263 14.7013 75.4863 14.552C75.3463 14.4027 75.2763 14.2627 75.2763 14.132C75.2763 14.0013 75.3603 13.7307 75.5283 13.32C76.0136 12.1067 76.2563 10.9773 76.2563 9.932C76.2563 9.736 76.2143 9.57267 76.1303 9.442C76.0463 9.302 75.9529 9.232 75.8503 9.232C75.7476 9.232 75.6403 9.27867 75.5283 9.372C75.4163 9.456 75.2763 9.61467 75.1083 9.848C74.9403 10.072 74.7909 10.2867 74.6603 10.492C74.5296 10.6973 74.3289 11.0193 74.0583 11.458C73.7969 11.8873 73.5963 12.2093 73.4563 12.424C73.3256 12.6293 73.1716 12.872 72.9943 13.152C72.8169 13.4227 72.6769 13.6327 72.5743 13.782C72.4809 13.9313 72.3736 14.0947 72.2523 14.272C72.0003 14.6173 71.8136 14.79 71.6923 14.79C71.5803 14.79 71.4309 14.6873 71.2443 14.482C71.0576 14.2673 70.9643 14.1087 70.9643 14.006C70.9643 13.894 70.9829 13.7587 71.0203 13.6C71.0576 13.4413 71.0949 13.2873 71.1323 13.138C71.1789 12.9887 71.2443 12.7693 71.3283 12.48C71.4216 12.1813 71.5243 11.836 71.6363 11.444C71.7576 11.0427 71.8463 10.4967 71.9023 9.806C71.9676 9.106 72.0143 8.59733 72.0423 8.28C72.0703 7.95333 72.1496 7.79 72.2803 7.79C72.4856 7.79 72.6863 7.89733 72.8823 8.112C73.0876 8.32667 73.1903 8.54133 73.1903 8.756C73.1903 9.57733 72.8823 10.9307 72.2663 12.816C73.3116 10.856 73.9696 9.694 74.2403 9.33C74.5109 8.966 74.7443 8.672 74.9403 8.448C75.3043 8.04667 75.6729 7.846 76.0463 7.846C76.2703 7.846 76.5363 8.042 76.8443 8.434C77.1616 8.81667 77.3203 9.204 77.3203 9.596C77.3203 9.988 77.2643 10.4733 77.1523 11.052C78.2536 8.91467 79.2523 7.846 80.1483 7.846ZM85.9568 7.846C86.3768 7.846 86.7642 8.06067 87.1188 8.49C87.4735 8.91 87.6508 9.29267 87.6508 9.638C87.6508 9.974 87.5342 10.3193 87.3008 10.674C87.4128 10.814 87.4688 10.9353 87.4688 11.038C87.4688 11.2993 87.4082 11.7473 87.2868 12.382C87.1748 13.0167 87.1048 13.432 87.0768 13.628C87.0582 13.824 87.0395 13.9827 87.0208 14.104C87.0022 14.216 86.9788 14.328 86.9508 14.44C86.9135 14.6733 86.8295 14.79 86.6988 14.79C86.5308 14.79 86.3908 14.6453 86.2788 14.356C86.1762 14.0573 86.1155 13.6747 86.0968 13.208C85.2662 14.2627 84.4962 14.79 83.7868 14.79C83.3575 14.79 82.9328 14.608 82.5128 14.244C82.1022 13.8707 81.8968 13.488 81.8968 13.096C81.8968 12.536 82.1022 11.8453 82.5128 11.024C82.9235 10.1933 83.4555 9.456 84.1088 8.812C84.7622 8.168 85.3782 7.846 85.9568 7.846ZM86.6008 10.31C86.6008 9.442 86.4282 9.008 86.0828 9.008C85.7188 9.008 85.2942 9.26933 84.8088 9.792C84.3235 10.3053 83.9128 10.8887 83.5768 11.542C83.2408 12.1953 83.0728 12.7133 83.0728 13.096C83.0728 13.2547 83.1382 13.3853 83.2688 13.488C83.3995 13.5813 83.5535 13.628 83.7308 13.628C84.1695 13.628 84.6642 13.334 85.2148 12.746C85.7655 12.1487 86.1482 11.4253 86.3628 10.576C86.3908 10.436 86.4702 10.352 86.6008 10.324V10.31ZM89.6353 9.554L89.5933 8.504C89.5933 8.06533 89.696 7.846 89.9013 7.846C90.0787 7.846 90.2467 7.96267 90.4053 8.196C90.5733 8.42 90.6573 8.69067 90.6573 9.008C90.6573 9.316 90.648 9.54933 90.6293 9.708C91.4413 8.476 92.2113 7.86 92.9393 7.86C93.3967 7.86 93.6253 7.972 93.6253 8.196C93.6253 8.308 93.574 8.41067 93.4713 8.504C93.3687 8.59733 93.2053 8.70467 92.9813 8.826C92.4867 9.04067 92.0667 9.372 91.7213 9.82C91.3853 10.2587 91.11 10.758 90.8953 11.318C90.6807 11.878 90.508 12.3493 90.3773 12.732C90.256 13.1147 90.1627 13.4133 90.0973 13.628C90.032 13.8427 89.9573 14.0527 89.8733 14.258C89.724 14.6313 89.5513 14.818 89.3553 14.818C89.1967 14.818 89.066 14.7293 88.9633 14.552C88.87 14.3653 88.8233 14.188 88.8233 14.02C88.8233 13.8427 88.9027 13.4973 89.0613 12.984C89.444 11.808 89.6353 10.6647 89.6353 9.554ZM98.9041 7.846C99.0534 7.846 99.2121 7.958 99.3801 8.182C99.5574 8.39667 99.6461 8.63933 99.6461 8.91C99.6461 9.09667 99.4548 9.73133 99.0721 10.814C98.6894 11.8967 98.4281 12.634 98.2881 13.026C98.1574 13.4087 97.9754 13.922 97.7421 14.566C97.5181 15.2007 97.2988 15.8213 97.0841 16.428C96.6174 17.7627 95.9174 18.43 94.9841 18.43C94.4521 18.43 93.9434 18.2667 93.4581 17.94C92.9728 17.6227 92.7301 17.2913 92.7301 16.946C92.7301 16.8153 92.7908 16.6707 92.9121 16.512C93.0241 16.3533 93.1221 16.274 93.2061 16.274C93.2901 16.274 93.4254 16.3767 93.6121 16.582C94.1534 17.198 94.6154 17.506 94.9981 17.506C95.2874 17.506 95.5488 17.2493 95.7821 16.736C96.0154 16.232 96.2348 15.658 96.4401 15.014C96.6548 14.3793 96.7714 14.0293 96.7901 13.964C96.8181 13.8987 96.8461 13.8147 96.8741 13.712C96.9114 13.6093 96.9441 13.516 96.9721 13.432C96.3094 14.3373 95.6561 14.79 95.0121 14.79C94.6201 14.79 94.2561 14.608 93.9201 14.244C93.5934 13.88 93.4301 13.4507 93.4301 12.956C93.4301 12.4613 93.5514 11.794 93.7941 10.954C94.0368 10.114 94.3214 9.386 94.6481 8.77C94.9748 8.154 95.2408 7.846 95.4461 7.846C95.6141 7.846 95.7681 7.92533 95.9081 8.084C96.0574 8.23333 96.1321 8.38733 96.1321 8.546C96.1321 8.70467 96.0108 9.036 95.7681 9.54C95.0121 11.0893 94.6341 12.2933 94.6341 13.152C94.6341 13.3013 94.6808 13.4273 94.7741 13.53C94.8674 13.6233 94.9794 13.67 95.1101 13.67C95.4461 13.67 95.8474 13.3713 96.3141 12.774C96.7808 12.1767 97.2101 11.4673 97.6021 10.646C97.9288 9.95533 98.2694 9.07333 98.6241 8C98.6614 7.89733 98.7548 7.846 98.9041 7.846ZM111.758 4.948C112 4.948 112.248 5.102 112.5 5.41C112.761 5.718 112.892 5.97467 112.892 6.18C112.892 6.376 112.854 6.474 112.78 6.474C112.714 6.474 112.584 6.44133 112.388 6.376C112.192 6.30133 112.014 6.264 111.856 6.264C111.492 6.264 111.048 6.45067 110.526 6.824C110.012 7.19733 109.522 7.65933 109.056 8.21C108.598 8.76067 108.206 9.39067 107.88 10.1C107.553 10.8 107.39 11.4067 107.39 11.92C107.39 12.4333 107.52 12.8113 107.782 13.054C108.052 13.2873 108.402 13.404 108.832 13.404C109.261 13.404 109.704 13.3433 110.162 13.222C110.619 13.0913 110.992 12.9467 111.282 12.788C112.028 12.3867 112.439 12.186 112.514 12.186C112.672 12.186 112.752 12.2933 112.752 12.508C112.752 12.7133 112.537 12.9933 112.108 13.348C111.678 13.6933 111.146 14.006 110.512 14.286C109.877 14.566 109.308 14.706 108.804 14.706C108.15 14.706 107.534 14.426 106.956 13.866C106.377 13.2967 106.088 12.6713 106.088 11.99C106.088 11.1127 106.372 10.1233 106.942 9.022C107.52 7.91133 108.258 6.95467 109.154 6.152C110.059 5.34933 110.927 4.948 111.758 4.948ZM117.535 6.152L115.141 6.264C114.991 6.264 114.837 6.166 114.679 5.97C114.52 5.774 114.441 5.58267 114.441 5.396C114.441 5.228 114.707 5.12067 115.239 5.074C115.78 5.02733 116.961 5.004 118.781 5.004C119.723 5.004 120.498 5.10667 121.105 5.312C121.721 5.51733 122.029 5.746 122.029 5.998C122.029 6.17533 121.875 6.264 121.567 6.264C121.259 6.264 120.829 6.24533 120.279 6.208C119.728 6.17067 119.201 6.14733 118.697 6.138C118.725 6.23133 118.739 6.334 118.739 6.446C118.739 6.79133 118.375 8.39667 117.647 11.262C117.572 11.5607 117.46 12.0273 117.311 12.662C117.161 13.2967 117.049 13.74 116.975 13.992C116.844 14.4867 116.727 14.734 116.625 14.734C116.485 14.734 116.326 14.6313 116.149 14.426C115.981 14.2113 115.897 13.9967 115.897 13.782C115.897 13.5673 116.149 12.466 116.653 10.478C117.157 8.48067 117.451 7.03867 117.535 6.152ZM128.947 9.918C128.947 10.0953 128.536 10.3007 127.715 10.534C127.789 11.5047 127.827 12.3307 127.827 13.012C127.827 14.188 127.677 14.776 127.379 14.776C127.22 14.776 127.094 14.678 127.001 14.482C126.907 14.286 126.833 13.9453 126.777 13.46C126.711 12.564 126.641 11.6867 126.567 10.828C126.147 10.94 125.764 11.0427 125.419 11.136C125.073 11.22 124.551 11.36 123.851 11.556C123.029 13.7027 122.544 14.776 122.395 14.776C122.245 14.776 122.082 14.6873 121.905 14.51C121.737 14.3233 121.653 14.1273 121.653 13.922C121.653 13.8287 121.919 13.166 122.451 11.934H122.353C122.166 11.934 121.998 11.8733 121.849 11.752C121.709 11.6307 121.639 11.4813 121.639 11.304C121.639 11.1173 122.101 10.8747 123.025 10.576C123.174 10.24 123.295 9.93667 123.389 9.666C123.603 9.134 123.902 8.406 124.285 7.482C124.667 6.558 124.91 5.97 125.013 5.718C125.115 5.45667 125.293 5.23733 125.545 5.06C125.806 4.87333 126.058 4.78 126.301 4.78C126.59 4.78 126.847 5.242 127.071 6.166C127.304 7.09 127.491 8.23333 127.631 9.596C127.892 9.568 128.121 9.554 128.317 9.554C128.737 9.554 128.947 9.67533 128.947 9.918ZM124.369 10.212C125.031 10.0347 125.731 9.88533 126.469 9.764C126.301 8.168 126.137 6.96867 125.979 6.166C125.559 7.12733 125.022 8.476 124.369 10.212Z" fill="#1C1B1A"/>
<path d="M56.938 28.912C56.938 28.604 58.0067 28.3567 60.144 28.17C62.2813 27.974 64.5867 27.876 67.06 27.876C67.984 27.876 68.446 28.0067 68.446 28.268C68.446 28.4733 67.9607 28.6227 66.99 28.716C66.3927 28.772 65.4873 28.8373 64.274 28.912C63.0607 28.9867 62.132 29.0567 61.488 29.122C60.8533 29.178 60.0553 29.2713 59.094 29.402C58.142 29.5327 57.6007 29.6027 57.47 29.612C57.3487 29.612 57.2273 29.5373 57.106 29.388C56.994 29.2293 56.938 29.0707 56.938 28.912ZM77.145 32.79C76.6037 32.79 76.095 32.58 75.619 32.16C75.143 31.7307 74.905 31.2267 74.905 30.648C74.905 30.06 75.101 29.3833 75.493 28.618C75.885 27.8527 76.389 27.1993 77.005 26.658C77.6304 26.1167 78.237 25.846 78.825 25.846C79.2077 25.846 79.5437 26.0187 79.833 26.364C80.1224 26.7093 80.267 27.0127 80.267 27.274C80.267 27.3487 80.2437 27.414 80.197 27.47C80.1504 27.5167 80.0804 27.54 79.987 27.54C79.903 27.54 79.749 27.456 79.525 27.288C79.301 27.12 79.1004 27.036 78.923 27.036C78.419 27.036 77.831 27.4793 77.159 28.366C76.487 29.2527 76.151 30.0273 76.151 30.69C76.151 30.9793 76.2397 31.208 76.417 31.376C76.6037 31.544 76.8977 31.628 77.299 31.628C77.7097 31.628 78.083 31.5813 78.419 31.488C78.7644 31.3853 79.0304 31.2873 79.217 31.194C79.4037 31.0913 79.5484 31.04 79.651 31.04C79.8284 31.04 79.917 31.1287 79.917 31.306C79.917 31.5767 79.5904 31.894 78.937 32.258C78.293 32.6127 77.6957 32.79 77.145 32.79ZM85.3534 28.226C85.3534 27.9087 85.3021 27.61 85.1994 27.33C85.0967 27.0407 84.9474 26.8307 84.7514 26.7C84.1074 26.8773 83.5521 27.3767 83.0854 28.198C82.6281 29.01 82.3994 29.7753 82.3994 30.494C82.3994 31.2127 82.5767 31.6607 82.9314 31.838C83.6034 31.7073 84.1727 31.25 84.6394 30.466C85.1154 29.6727 85.3534 28.926 85.3534 28.226ZM81.6714 28.352C81.9981 27.624 82.4227 27.0267 82.9454 26.56C83.4774 26.084 84.0187 25.846 84.5694 25.846C85.1294 25.846 85.5961 26.084 85.9694 26.56C86.3427 27.0267 86.5294 27.6007 86.5294 28.282C86.5294 28.954 86.3661 29.6447 86.0394 30.354C85.7127 31.054 85.2601 31.6373 84.6814 32.104C84.1121 32.5613 83.5054 32.79 82.8614 32.79C82.3854 32.79 81.9887 32.5707 81.6714 32.132C81.3541 31.6933 81.1954 31.138 81.1954 30.466C81.1954 29.7847 81.3541 29.08 81.6714 28.352ZM88.8412 30.354C89.7372 28.8327 90.4652 27.7033 91.0252 26.966C91.5945 26.2193 92.0565 25.846 92.4112 25.846C92.7752 25.846 93.1158 26.0373 93.4332 26.42C93.7598 26.8027 93.9232 27.2087 93.9232 27.638C93.9232 28.31 93.7692 29.1313 93.4612 30.102C92.9012 31.894 92.3972 32.79 91.9492 32.79C91.7438 32.79 91.6412 32.65 91.6412 32.37C91.6412 32.174 91.7392 31.7773 91.9352 31.18C92.1405 30.5733 92.3272 29.9807 92.4952 29.402C92.6725 28.814 92.7612 28.3753 92.7612 28.086C92.7612 27.7873 92.7145 27.568 92.6212 27.428C92.5372 27.288 92.4485 27.218 92.3552 27.218C92.2712 27.218 92.1825 27.246 92.0892 27.302C91.9958 27.358 91.8885 27.4513 91.7672 27.582C91.6552 27.7127 91.5478 27.8433 91.4452 27.974C91.3425 28.0953 91.2118 28.2727 91.0532 28.506C90.9038 28.7393 90.7778 28.94 90.6752 29.108C90.5725 29.2667 90.4232 29.5 90.2272 29.808C90.0312 30.116 89.8818 30.3493 89.7792 30.508C89.6765 30.6667 89.5412 30.8813 89.3732 31.152C89.2052 31.4227 89.0698 31.6327 88.9672 31.782C88.8738 31.9313 88.7665 32.0947 88.6452 32.272C88.4118 32.6173 88.2252 32.79 88.0852 32.79C87.9545 32.79 87.8005 32.6873 87.6232 32.482C87.4458 32.2673 87.3572 32.0807 87.3572 31.922C87.3572 31.8753 87.3898 31.7493 87.4552 31.544C87.6325 31.0027 87.8285 30.3353 88.0432 29.542C88.2578 28.7393 88.3745 27.8293 88.3932 26.812C88.4212 26.1307 88.5192 25.79 88.6872 25.79C88.8925 25.79 89.0978 25.8973 89.3032 26.112C89.5085 26.3267 89.6112 26.5647 89.6112 26.826C89.6112 27.078 89.5318 27.5727 89.3732 28.31C89.2238 29.038 89.0465 29.7193 88.8412 30.354ZM96.502 31.39C96.502 31.5673 96.6047 31.656 96.81 31.656C97.1647 31.656 97.594 31.558 98.098 31.362C98.6113 31.1567 98.896 31.054 98.952 31.054C99.12 31.054 99.204 31.1427 99.204 31.32C99.204 31.5907 98.924 31.9033 98.364 32.258C97.8133 32.6127 97.3093 32.79 96.852 32.79C96.404 32.79 96.0307 32.6687 95.732 32.426C95.4333 32.174 95.284 31.9173 95.284 31.656C95.284 31.3947 95.34 31.0633 95.452 30.662C95.564 30.2513 95.7227 29.7147 95.928 29.052C96.1427 28.38 96.3107 27.8247 96.432 27.386C95.9933 27.4887 95.6993 27.54 95.55 27.54C95.4007 27.54 95.2513 27.4653 95.102 27.316C94.962 27.1573 94.892 27.008 94.892 26.868C94.892 26.644 95.4987 26.4293 96.712 26.224C96.88 25.4493 96.964 24.7633 96.964 24.166C96.964 23.886 97.0573 23.746 97.244 23.746C97.4027 23.746 97.5987 23.8487 97.832 24.054C98.0653 24.25 98.182 24.474 98.182 24.726C98.182 24.978 98.1027 25.4213 97.944 26.056C98.476 26.0093 98.9007 25.986 99.218 25.986C99.778 25.986 100.058 26.1073 100.058 26.35C100.058 26.49 99.904 26.6067 99.596 26.7C99.2973 26.7933 98.6627 26.938 97.692 27.134C97.496 27.8713 97.2487 28.716 96.95 29.668C96.6513 30.6107 96.502 31.1847 96.502 31.39ZM102.14 23.858C102.14 23.6713 102.215 23.494 102.364 23.326C102.513 23.158 102.663 23.074 102.812 23.074C102.971 23.074 103.157 23.2653 103.372 23.648C103.587 24.0213 103.694 24.334 103.694 24.586C103.694 24.6793 103.652 24.7633 103.568 24.838C103.484 24.9127 103.395 24.95 103.302 24.95C103.078 24.95 102.826 24.8147 102.546 24.544C102.275 24.2733 102.14 24.0447 102.14 23.858ZM102.07 25.846C102.247 25.846 102.415 25.9533 102.574 26.168C102.733 26.3827 102.812 26.5927 102.812 26.798C102.812 27.0033 102.677 27.6193 102.406 28.646C102.135 29.6633 101.795 30.8067 101.384 32.076C101.225 32.5427 101.025 32.776 100.782 32.776C100.651 32.776 100.539 32.7247 100.446 32.622C100.353 32.51 100.306 32.3887 100.306 32.258C100.306 32.118 100.339 31.9033 100.404 31.614C100.479 31.3153 100.581 30.9233 100.712 30.438C100.852 29.9433 100.959 29.542 101.034 29.234C101.118 28.926 101.202 28.5807 101.286 28.198C101.37 27.806 101.435 27.4933 101.482 27.26C101.538 27.0173 101.599 26.7747 101.664 26.532C101.795 26.0747 101.93 25.846 102.07 25.846ZM105.056 30.354C105.952 28.8327 106.68 27.7033 107.24 26.966C107.809 26.2193 108.271 25.846 108.626 25.846C108.99 25.846 109.331 26.0373 109.648 26.42C109.975 26.8027 110.138 27.2087 110.138 27.638C110.138 28.31 109.984 29.1313 109.676 30.102C109.116 31.894 108.612 32.79 108.164 32.79C107.959 32.79 107.856 32.65 107.856 32.37C107.856 32.174 107.954 31.7773 108.15 31.18C108.355 30.5733 108.542 29.9807 108.71 29.402C108.887 28.814 108.976 28.3753 108.976 28.086C108.976 27.7873 108.929 27.568 108.836 27.428C108.752 27.288 108.663 27.218 108.57 27.218C108.486 27.218 108.397 27.246 108.304 27.302C108.211 27.358 108.103 27.4513 107.982 27.582C107.87 27.7127 107.763 27.8433 107.66 27.974C107.557 28.0953 107.427 28.2727 107.268 28.506C107.119 28.7393 106.993 28.94 106.89 29.108C106.787 29.2667 106.638 29.5 106.442 29.808C106.246 30.116 106.097 30.3493 105.994 30.508C105.891 30.6667 105.756 30.8813 105.588 31.152C105.42 31.4227 105.285 31.6327 105.182 31.782C105.089 31.9313 104.981 32.0947 104.86 32.272C104.627 32.6173 104.44 32.79 104.3 32.79C104.169 32.79 104.015 32.6873 103.838 32.482C103.661 32.2673 103.572 32.0807 103.572 31.922C103.572 31.8753 103.605 31.7493 103.67 31.544C103.847 31.0027 104.043 30.3353 104.258 29.542C104.473 28.7393 104.589 27.8293 104.608 26.812C104.636 26.1307 104.734 25.79 104.902 25.79C105.107 25.79 105.313 25.8973 105.518 26.112C105.723 26.3267 105.826 26.5647 105.826 26.826C105.826 27.078 105.747 27.5727 105.588 28.31C105.439 29.038 105.261 29.7193 105.056 30.354ZM116.105 26.238C116.142 26.0887 116.18 25.986 116.217 25.93C116.254 25.874 116.334 25.846 116.455 25.846C116.586 25.846 116.74 25.9673 116.917 26.21C117.104 26.4527 117.197 26.686 117.197 26.91C117.197 27.0313 116.992 27.75 116.581 29.066C116.17 30.382 115.853 31.4273 115.629 32.202C115.517 32.594 115.358 32.79 115.153 32.79C115.032 32.79 114.929 32.7387 114.845 32.636C114.761 32.5333 114.719 32.3467 114.719 32.076C114.719 31.8053 114.826 31.3153 115.041 30.606C114.649 31.2407 114.224 31.7633 113.767 32.174C113.31 32.5847 112.89 32.79 112.507 32.79C112.134 32.79 111.779 32.6127 111.443 32.258C111.107 31.9033 110.939 31.5393 110.939 31.166C110.939 30.2793 111.196 29.1733 111.709 27.848C112.232 26.5133 112.666 25.846 113.011 25.846C113.179 25.846 113.324 25.9253 113.445 26.084C113.576 26.2333 113.641 26.406 113.641 26.602C113.641 26.686 113.515 26.9893 113.263 27.512C113.011 28.0253 112.759 28.632 112.507 29.332C112.255 30.0227 112.129 30.6293 112.129 31.152C112.129 31.3013 112.176 31.4273 112.269 31.53C112.362 31.6233 112.474 31.67 112.605 31.67C112.96 31.67 113.38 31.3573 113.865 30.732C114.36 30.1067 114.808 29.3787 115.209 28.548C115.61 27.7173 115.909 26.9473 116.105 26.238ZM123.475 28.17C123.475 28.6647 123.204 29.0707 122.663 29.388C122.131 29.696 121.524 29.85 120.843 29.85C120.171 29.85 119.56 29.7753 119.009 29.626C118.878 30.0367 118.813 30.4053 118.813 30.732C118.813 31.0493 118.911 31.2967 119.107 31.474C119.312 31.6513 119.644 31.74 120.101 31.74C120.568 31.74 121.044 31.6607 121.529 31.502C122.024 31.334 122.294 31.25 122.341 31.25C122.584 31.25 122.705 31.3433 122.705 31.53C122.705 31.782 122.42 32.0573 121.851 32.356C121.282 32.6453 120.726 32.79 120.185 32.79C119.457 32.79 118.864 32.5753 118.407 32.146C117.95 31.7073 117.721 31.1567 117.721 30.494C117.721 29.8313 117.898 29.1407 118.253 28.422C118.608 27.694 119.065 27.0827 119.625 26.588C120.185 26.0933 120.74 25.846 121.291 25.846C121.842 25.846 122.341 26.1073 122.789 26.63C123.246 27.1527 123.475 27.666 123.475 28.17ZM121.361 26.952C121.016 26.952 120.656 27.134 120.283 27.498C119.91 27.8527 119.592 28.296 119.331 28.828C119.704 28.912 120.129 28.954 120.605 28.954C121.081 28.954 121.496 28.8793 121.851 28.73C122.206 28.5713 122.383 28.366 122.383 28.114C122.383 27.862 122.266 27.6053 122.033 27.344C121.809 27.0827 121.585 26.952 121.361 26.952ZM128.196 25.846C128.513 25.846 128.812 26.0233 129.092 26.378C129.372 26.7233 129.512 27.0267 129.512 27.288C129.512 27.4467 129.437 27.526 129.288 27.526C129.185 27.526 129.026 27.4467 128.812 27.288C128.597 27.12 128.378 27.036 128.154 27.036C127.93 27.036 127.575 27.1667 127.09 27.428C126.614 27.6893 126.376 27.9647 126.376 28.254C126.376 28.4687 126.805 28.8373 127.664 29.36C127.99 29.5653 128.284 29.8313 128.546 30.158C128.816 30.4753 128.952 30.8207 128.952 31.194C128.952 31.558 128.695 31.9173 128.182 32.272C127.678 32.6173 127.085 32.79 126.404 32.79C125.732 32.79 125.134 32.6267 124.612 32.3C124.098 31.9733 123.842 31.6653 123.842 31.376C123.842 31.2547 123.87 31.1613 123.926 31.096C123.991 31.0213 124.07 30.984 124.164 30.984C124.257 30.984 124.388 31.0447 124.556 31.166C125.06 31.53 125.582 31.712 126.124 31.712C126.674 31.712 127.071 31.6513 127.314 31.53C127.556 31.3993 127.678 31.2313 127.678 31.026C127.678 30.8113 127.542 30.5873 127.272 30.354C127.001 30.1113 126.702 29.8967 126.376 29.71C126.058 29.5233 125.764 29.2947 125.494 29.024C125.223 28.7533 125.088 28.478 125.088 28.198C125.088 27.7033 125.475 27.19 126.25 26.658C127.034 26.1167 127.682 25.846 128.196 25.846Z" fill="#1C1B1A"/>
<path d="M58.478 42.194C58.5713 41.4567 58.7813 40.9107 59.108 40.556C59.444 40.2013 59.8267 40.024 60.256 40.024C60.6947 40.024 61.0213 40.1407 61.236 40.374C61.46 40.598 61.572 40.878 61.572 41.214C61.572 41.55 61.46 41.718 61.236 41.718C61.1333 41.718 61.0167 41.62 60.886 41.424C60.7647 41.2187 60.606 41.116 60.41 41.116C60.214 41.116 60.0507 41.2653 59.92 41.564C59.7987 41.8627 59.6913 42.3247 59.598 42.95C59.5047 43.566 59.4347 44 59.388 44.252C59.892 44.168 60.3027 44.0747 60.62 43.972C60.9467 43.86 61.2453 43.7013 61.516 43.496C62.048 43.104 62.314 42.4273 62.314 41.466C62.314 40.5047 62.4307 40.024 62.664 40.024C62.86 40.024 63.056 40.122 63.252 40.318C63.448 40.514 63.546 40.7567 63.546 41.046C63.546 41.774 63.4107 42.9173 63.14 44.476C62.8787 46.0347 62.5613 47.4767 62.188 48.802C61.8147 50.1273 61.502 50.79 61.25 50.79C61.1007 50.79 60.9607 50.7107 60.83 50.552C60.7087 50.3933 60.648 50.23 60.648 50.062C60.648 49.894 60.732 49.5347 60.9 48.984C61.46 47.08 61.824 45.54 61.992 44.364C61.432 44.8493 60.4893 45.1993 59.164 45.414C58.52 48.69 57.9133 50.4027 57.344 50.552C57.2133 50.58 57.1247 50.5333 57.078 50.412C57.0127 50.384 56.952 50.328 56.896 50.244C56.84 50.16 56.8213 50.0667 56.84 49.964C56.8587 49.852 56.9893 49.292 57.232 48.284C57.484 47.276 57.6987 46.3753 57.876 45.582C57.7453 45.5913 57.582 45.596 57.386 45.596C57.1993 45.596 57.0313 45.5213 56.882 45.372C56.7327 45.2133 56.658 45.0733 56.658 44.952C56.658 44.728 56.9847 44.5833 57.638 44.518L58.114 44.448C58.2633 43.6733 58.3847 42.922 58.478 42.194ZM68.2636 46.226C68.2636 45.9087 68.2122 45.61 68.1096 45.33C68.0069 45.0407 67.8576 44.8307 67.6616 44.7C67.0176 44.8773 66.4622 45.3767 65.9956 46.198C65.5382 47.01 65.3096 47.7753 65.3096 48.494C65.3096 49.2127 65.4869 49.6607 65.8416 49.838C66.5136 49.7073 67.0829 49.25 67.5496 48.466C68.0256 47.6727 68.2636 46.926 68.2636 46.226ZM64.5816 46.352C64.9082 45.624 65.3329 45.0267 65.8556 44.56C66.3876 44.084 66.9289 43.846 67.4796 43.846C68.0396 43.846 68.5062 44.084 68.8796 44.56C69.2529 45.0267 69.4396 45.6007 69.4396 46.282C69.4396 46.954 69.2762 47.6447 68.9496 48.354C68.6229 49.054 68.1702 49.6373 67.5916 50.104C67.0222 50.5613 66.4156 50.79 65.7716 50.79C65.2956 50.79 64.8989 50.5707 64.5816 50.132C64.2642 49.6933 64.1056 49.138 64.1056 48.466C64.1056 47.7847 64.2642 47.08 64.5816 46.352ZM76.0073 45.33L75.9093 47.962C75.9093 48.69 75.942 49.2173 76.0073 49.544C76.4086 49.124 76.754 48.634 77.0433 48.074C77.342 47.5047 77.5613 46.9773 77.7013 46.492C77.8506 46.0067 77.9766 45.554 78.0793 45.134C78.1913 44.7047 78.294 44.364 78.3873 44.112C78.4806 43.86 78.588 43.734 78.7093 43.734C78.8866 43.734 79.0453 43.8087 79.1853 43.958C79.3253 44.098 79.3953 44.2613 79.3953 44.448C79.3953 44.924 79.1806 45.708 78.7513 46.8C78.3873 47.808 77.9113 48.732 77.3233 49.572C76.7353 50.4027 76.278 50.818 75.9513 50.818C75.6246 50.818 75.3773 50.636 75.2093 50.272C75.0506 49.908 74.962 49.2127 74.9433 48.186C74.9246 47.15 74.9386 46.254 74.9853 45.498C74.3413 47.2527 73.772 48.578 73.2773 49.474C72.7826 50.37 72.3906 50.818 72.1013 50.818C71.9706 50.818 71.8306 50.7573 71.6813 50.636C71.5413 50.5147 71.4293 50.356 71.3453 50.16C71.14 49.6653 70.9626 48.7227 70.8133 47.332C70.6733 45.932 70.6033 44.9333 70.6033 44.336C70.6033 43.9533 70.72 43.762 70.9533 43.762C71.1586 43.762 71.3453 43.8787 71.5133 44.112C71.6906 44.3453 71.7933 44.5787 71.8213 44.812C71.8493 45.036 71.8726 45.6707 71.8913 46.716C71.9193 47.752 72.008 48.676 72.1573 49.488C72.54 48.8253 72.9226 47.9947 73.3053 46.996C73.6973 45.9973 74.0146 45.2133 74.2573 44.644C74.5093 44.0747 74.738 43.79 74.9433 43.79C75.2513 43.79 75.5033 43.9347 75.6993 44.224C75.9046 44.504 76.0073 44.8727 76.0073 45.33ZM89.6464 46.226C89.6464 45.9087 89.595 45.61 89.4924 45.33C89.3897 45.0407 89.2404 44.8307 89.0444 44.7C88.4004 44.8773 87.845 45.3767 87.3784 46.198C86.921 47.01 86.6924 47.7753 86.6924 48.494C86.6924 49.2127 86.8697 49.6607 87.2244 49.838C87.8964 49.7073 88.4657 49.25 88.9324 48.466C89.4084 47.6727 89.6464 46.926 89.6464 46.226ZM85.9644 46.352C86.291 45.624 86.7157 45.0267 87.2384 44.56C87.7704 44.084 88.3117 43.846 88.8624 43.846C89.4224 43.846 89.889 44.084 90.2624 44.56C90.6357 45.0267 90.8224 45.6007 90.8224 46.282C90.8224 46.954 90.659 47.6447 90.3324 48.354C90.0057 49.054 89.553 49.6373 88.9744 50.104C88.405 50.5613 87.7984 50.79 87.1544 50.79C86.6784 50.79 86.2817 50.5707 85.9644 50.132C85.647 49.6933 85.4884 49.138 85.4884 48.466C85.4884 47.7847 85.647 47.08 85.9644 46.352ZM93.1341 48.354C94.0301 46.8327 94.7581 45.7033 95.3181 44.966C95.8875 44.2193 96.3495 43.846 96.7041 43.846C97.0681 43.846 97.4088 44.0373 97.7261 44.42C98.0528 44.8027 98.2161 45.2087 98.2161 45.638C98.2161 46.31 98.0621 47.1313 97.7541 48.102C97.1941 49.894 96.6901 50.79 96.2421 50.79C96.0368 50.79 95.9341 50.65 95.9341 50.37C95.9341 50.174 96.0321 49.7773 96.2281 49.18C96.4335 48.5733 96.6201 47.9807 96.7881 47.402C96.9655 46.814 97.0541 46.3753 97.0541 46.086C97.0541 45.7873 97.0075 45.568 96.9141 45.428C96.8301 45.288 96.7415 45.218 96.6481 45.218C96.5641 45.218 96.4755 45.246 96.3821 45.302C96.2888 45.358 96.1815 45.4513 96.0601 45.582C95.9481 45.7127 95.8408 45.8433 95.7381 45.974C95.6355 46.0953 95.5048 46.2727 95.3461 46.506C95.1968 46.7393 95.0708 46.94 94.9681 47.108C94.8655 47.2667 94.7161 47.5 94.5201 47.808C94.3241 48.116 94.1748 48.3493 94.0721 48.508C93.9695 48.6667 93.8341 48.8813 93.6661 49.152C93.4981 49.4227 93.3628 49.6327 93.2601 49.782C93.1668 49.9313 93.0595 50.0947 92.9381 50.272C92.7048 50.6173 92.5181 50.79 92.3781 50.79C92.2475 50.79 92.0935 50.6873 91.9161 50.482C91.7388 50.2673 91.6501 50.0807 91.6501 49.922C91.6501 49.8753 91.6828 49.7493 91.7481 49.544C91.9255 49.0027 92.1215 48.3353 92.3361 47.542C92.5508 46.7393 92.6675 45.8293 92.6861 44.812C92.7141 44.1307 92.8121 43.79 92.9801 43.79C93.1855 43.79 93.3908 43.8973 93.5961 44.112C93.8015 44.3267 93.9041 44.5647 93.9041 44.826C93.9041 45.078 93.8248 45.5727 93.6661 46.31C93.5168 47.038 93.3395 47.7193 93.1341 48.354ZM101.985 41.102C101.985 42.8567 101.621 45.134 100.893 47.934C100.426 49.838 100.1 50.79 99.913 50.79C99.7823 50.79 99.6283 50.6873 99.451 50.482C99.283 50.2767 99.199 50.118 99.199 50.006C99.199 49.894 99.3343 49.3153 99.605 48.27C99.8756 47.2247 100.146 45.9413 100.417 44.42C100.688 42.8893 100.823 41.5127 100.823 40.29C100.823 40.1593 100.842 40.066 100.879 40.01C100.916 39.954 100.996 39.926 101.117 39.926C101.238 39.926 101.411 40.0613 101.635 40.332C101.868 40.5933 101.985 40.85 101.985 41.102ZM108.133 43.846C108.282 43.846 108.441 43.958 108.609 44.182C108.786 44.3967 108.875 44.6393 108.875 44.91C108.875 45.0967 108.683 45.7313 108.301 46.814C107.918 47.8967 107.657 48.634 107.517 49.026C107.386 49.4087 107.204 49.922 106.971 50.566C106.747 51.2007 106.527 51.8213 106.313 52.428C105.846 53.7627 105.146 54.43 104.213 54.43C103.681 54.43 103.172 54.2667 102.687 53.94C102.201 53.6227 101.959 53.2913 101.959 52.946C101.959 52.8153 102.019 52.6707 102.141 52.512C102.253 52.3533 102.351 52.274 102.435 52.274C102.519 52.274 102.654 52.3767 102.841 52.582C103.382 53.198 103.844 53.506 104.227 53.506C104.516 53.506 104.777 53.2493 105.011 52.736C105.244 52.232 105.463 51.658 105.669 51.014C105.883 50.3793 106 50.0293 106.019 49.964C106.047 49.8987 106.075 49.8147 106.103 49.712C106.14 49.6093 106.173 49.516 106.201 49.432C105.538 50.3373 104.885 50.79 104.241 50.79C103.849 50.79 103.485 50.608 103.149 50.244C102.822 49.88 102.659 49.4507 102.659 48.956C102.659 48.4613 102.78 47.794 103.023 46.954C103.265 46.114 103.55 45.386 103.877 44.77C104.203 44.154 104.469 43.846 104.675 43.846C104.843 43.846 104.997 43.9253 105.137 44.084C105.286 44.2333 105.361 44.3873 105.361 44.546C105.361 44.7047 105.239 45.036 104.997 45.54C104.241 47.0893 103.863 48.2933 103.863 49.152C103.863 49.3013 103.909 49.4273 104.003 49.53C104.096 49.6233 104.208 49.67 104.339 49.67C104.675 49.67 105.076 49.3713 105.543 48.774C106.009 48.1767 106.439 47.4673 106.831 46.646C107.157 45.9553 107.498 45.0733 107.853 44C107.89 43.8973 107.983 43.846 108.133 43.846Z" fill="#1C1B1A"/>
<path d="M52 36C28 40 12 42 0 40L52 36Z" fill="black"/>
<path d="M0 40L6 36V46L0 40Z" fill="#1C1B1A"/>
</svg>
