<svg width="118" height="58" viewBox="0 0 118 58" fill="none" xmlns="http://www.w3.org/2000/svg">
<path d="M50.688 14.79C50.1467 14.79 49.638 14.58 49.162 14.16C48.686 13.7307 48.448 13.2267 48.448 12.648C48.448 12.06 48.644 11.3833 49.036 10.618C49.428 9.85267 49.932 9.19933 50.548 8.658C51.1733 8.11667 51.78 7.846 52.368 7.846C52.7507 7.846 53.0867 8.01867 53.376 8.364C53.6653 8.70933 53.81 9.01267 53.81 9.274C53.81 9.34867 53.7867 9.414 53.74 9.47C53.6933 9.51667 53.6233 9.54 53.53 9.54C53.446 9.54 53.292 9.456 53.068 9.288C52.844 9.12 52.6433 9.036 52.466 9.036C51.962 9.036 51.374 9.47933 50.702 10.366C50.03 11.2527 49.694 12.0273 49.694 12.69C49.694 12.9793 49.7827 13.208 49.96 13.376C50.1467 13.544 50.4407 13.628 50.842 13.628C51.2527 13.628 51.626 13.5813 51.962 13.488C52.3073 13.3853 52.5733 13.2873 52.76 13.194C52.9467 13.0913 53.0913 13.04 53.194 13.04C53.3713 13.04 53.46 13.1287 53.46 13.306C53.46 13.5767 53.1333 13.894 52.48 14.258C51.836 14.6127 51.2387 14.79 50.688 14.79ZM58.3924 7.846C58.8124 7.846 59.1997 8.06067 59.5544 8.49C59.909 8.91 60.0864 9.29267 60.0864 9.638C60.0864 9.974 59.9697 10.3193 59.7364 10.674C59.8484 10.814 59.9044 10.9353 59.9044 11.038C59.9044 11.2993 59.8437 11.7473 59.7224 12.382C59.6104 13.0167 59.5404 13.432 59.5124 13.628C59.4937 13.824 59.475 13.9827 59.4564 14.104C59.4377 14.216 59.4144 14.328 59.3864 14.44C59.349 14.6733 59.265 14.79 59.1344 14.79C58.9664 14.79 58.8264 14.6453 58.7144 14.356C58.6117 14.0573 58.551 13.6747 58.5324 13.208C57.7017 14.2627 56.9317 14.79 56.2224 14.79C55.793 14.79 55.3684 14.608 54.9484 14.244C54.5377 13.8707 54.3324 13.488 54.3324 13.096C54.3324 12.536 54.5377 11.8453 54.9484 11.024C55.359 10.1933 55.891 9.456 56.5444 8.812C57.1977 8.168 57.8137 7.846 58.3924 7.846ZM59.0364 10.31C59.0364 9.442 58.8637 9.008 58.5184 9.008C58.1544 9.008 57.7297 9.26933 57.2444 9.792C56.759 10.3053 56.3484 10.8887 56.0124 11.542C55.6764 12.1953 55.5084 12.7133 55.5084 13.096C55.5084 13.2547 55.5737 13.3853 55.7044 13.488C55.835 13.5813 55.989 13.628 56.1664 13.628C56.605 13.628 57.0997 13.334 57.6504 12.746C58.201 12.1487 58.5837 11.4253 58.7984 10.576C58.8264 10.436 58.9057 10.352 59.0364 10.324V10.31ZM65.8089 7.804C66.2102 7.804 66.5555 8.06067 66.8449 8.574C67.1435 9.08733 67.2929 9.61933 67.2929 10.17C67.2929 10.7113 67.1342 11.2573 66.8169 11.808C66.4995 12.3493 66.1075 12.8347 65.6409 13.264C65.1742 13.6933 64.6562 14.0527 64.0869 14.342C63.5269 14.622 63.0089 14.762 62.5329 14.762C62.3462 14.762 62.1689 14.7387 62.0009 14.692C61.9635 14.8507 61.8982 15.1353 61.8049 15.546C61.7115 15.9567 61.6322 16.2973 61.5669 16.568C61.5015 16.8387 61.4269 17.128 61.3429 17.436C61.1749 18.0707 61.0255 18.388 60.8949 18.388C60.7642 18.388 60.6289 18.2853 60.4889 18.08C60.3395 17.884 60.2649 17.7067 60.2649 17.548C60.2649 17.3893 60.4142 16.708 60.7129 15.504C61.6089 11.8733 62.0569 9.428 62.0569 8.168C62.0569 7.888 62.1595 7.748 62.3649 7.748C62.5329 7.748 62.7335 7.874 62.9669 8.126C63.2095 8.36867 63.3309 8.63933 63.3309 8.938C63.3309 9.08733 63.3122 9.25067 63.2749 9.428C64.1055 8.34533 64.9502 7.804 65.8089 7.804ZM62.3929 13.67C62.8875 13.67 63.4195 13.502 63.9889 13.166C64.5675 12.83 65.0575 12.3867 65.4589 11.836C65.8695 11.276 66.0749 10.7207 66.0749 10.17C66.0749 9.39533 65.8929 9.008 65.5289 9.008C65.1649 9.008 64.6702 9.32067 64.0449 9.946C63.4289 10.5713 62.9389 11.3833 62.5749 12.382L62.2529 13.67H62.3929ZM69.4844 13.39C69.4844 13.5673 69.5871 13.656 69.7924 13.656C70.1471 13.656 70.5764 13.558 71.0804 13.362C71.5938 13.1567 71.8784 13.054 71.9344 13.054C72.1024 13.054 72.1864 13.1427 72.1864 13.32C72.1864 13.5907 71.9064 13.9033 71.3464 14.258C70.7958 14.6127 70.2918 14.79 69.8344 14.79C69.3864 14.79 69.0131 14.6687 68.7144 14.426C68.4158 14.174 68.2664 13.9173 68.2664 13.656C68.2664 13.3947 68.3224 13.0633 68.4344 12.662C68.5464 12.2513 68.7051 11.7147 68.9104 11.052C69.1251 10.38 69.2931 9.82467 69.4144 9.386C68.9758 9.48867 68.6818 9.54 68.5324 9.54C68.3831 9.54 68.2338 9.46533 68.0844 9.316C67.9444 9.15733 67.8744 9.008 67.8744 8.868C67.8744 8.644 68.4811 8.42933 69.6944 8.224C69.8624 7.44933 69.9464 6.76333 69.9464 6.166C69.9464 5.886 70.0398 5.746 70.2264 5.746C70.3851 5.746 70.5811 5.84867 70.8144 6.054C71.0478 6.25 71.1644 6.474 71.1644 6.726C71.1644 6.978 71.0851 7.42133 70.9264 8.056C71.4584 8.00933 71.8831 7.986 72.2004 7.986C72.7604 7.986 73.0404 8.10733 73.0404 8.35C73.0404 8.49 72.8864 8.60667 72.5784 8.7C72.2798 8.79333 71.6451 8.938 70.6744 9.134C70.4784 9.87133 70.2311 10.716 69.9324 11.668C69.6338 12.6107 69.4844 13.1847 69.4844 13.39ZM75.1225 5.858C75.1225 5.67133 75.1972 5.494 75.3465 5.326C75.4958 5.158 75.6452 5.074 75.7945 5.074C75.9532 5.074 76.1398 5.26533 76.3545 5.648C76.5692 6.02133 76.6765 6.334 76.6765 6.586C76.6765 6.67933 76.6345 6.76333 76.5505 6.838C76.4665 6.91267 76.3778 6.95 76.2845 6.95C76.0605 6.95 75.8085 6.81467 75.5285 6.544C75.2578 6.27333 75.1225 6.04467 75.1225 5.858ZM75.0525 7.846C75.2298 7.846 75.3978 7.95333 75.5565 8.168C75.7152 8.38267 75.7945 8.59267 75.7945 8.798C75.7945 9.00333 75.6592 9.61933 75.3885 10.646C75.1178 11.6633 74.7772 12.8067 74.3665 14.076C74.2078 14.5427 74.0072 14.776 73.7645 14.776C73.6338 14.776 73.5218 14.7247 73.4285 14.622C73.3352 14.51 73.2885 14.3887 73.2885 14.258C73.2885 14.118 73.3212 13.9033 73.3865 13.614C73.4612 13.3153 73.5638 12.9233 73.6945 12.438C73.8345 11.9433 73.9418 11.542 74.0165 11.234C74.1005 10.926 74.1845 10.5807 74.2685 10.198C74.3525 9.806 74.4178 9.49333 74.4645 9.26C74.5205 9.01733 74.5812 8.77467 74.6465 8.532C74.7772 8.07467 74.9125 7.846 75.0525 7.846ZM80.8944 10.226C80.8944 9.90867 80.8431 9.61 80.7404 9.33C80.6378 9.04067 80.4884 8.83067 80.2924 8.7C79.6484 8.87733 79.0931 9.37667 78.6264 10.198C78.1691 11.01 77.9404 11.7753 77.9404 12.494C77.9404 13.2127 78.1178 13.6607 78.4724 13.838C79.1444 13.7073 79.7138 13.25 80.1804 12.466C80.6564 11.6727 80.8944 10.926 80.8944 10.226ZM77.2124 10.352C77.5391 9.624 77.9638 9.02667 78.4864 8.56C79.0184 8.084 79.5598 7.846 80.1104 7.846C80.6704 7.846 81.1371 8.084 81.5104 8.56C81.8838 9.02667 82.0704 9.60067 82.0704 10.282C82.0704 10.954 81.9071 11.6447 81.5804 12.354C81.2538 13.054 80.8011 13.6373 80.2224 14.104C79.6531 14.5613 79.0464 14.79 78.4024 14.79C77.9264 14.79 77.5298 14.5707 77.2124 14.132C76.8951 13.6933 76.7364 13.138 76.7364 12.466C76.7364 11.7847 76.8951 11.08 77.2124 10.352ZM84.3822 12.354C85.2782 10.8327 86.0062 9.70333 86.5662 8.966C87.1355 8.21933 87.5975 7.846 87.9522 7.846C88.3162 7.846 88.6568 8.03733 88.9742 8.42C89.3008 8.80267 89.4642 9.20867 89.4642 9.638C89.4642 10.31 89.3102 11.1313 89.0022 12.102C88.4422 13.894 87.9382 14.79 87.4902 14.79C87.2848 14.79 87.1822 14.65 87.1822 14.37C87.1822 14.174 87.2802 13.7773 87.4762 13.18C87.6815 12.5733 87.8682 11.9807 88.0362 11.402C88.2135 10.814 88.3022 10.3753 88.3022 10.086C88.3022 9.78733 88.2555 9.568 88.1622 9.428C88.0782 9.288 87.9895 9.218 87.8962 9.218C87.8122 9.218 87.7235 9.246 87.6302 9.302C87.5368 9.358 87.4295 9.45133 87.3082 9.582C87.1962 9.71267 87.0888 9.84333 86.9862 9.974C86.8835 10.0953 86.7528 10.2727 86.5942 10.506C86.4448 10.7393 86.3188 10.94 86.2162 11.108C86.1135 11.2667 85.9642 11.5 85.7682 11.808C85.5722 12.116 85.4228 12.3493 85.3202 12.508C85.2175 12.6667 85.0822 12.8813 84.9142 13.152C84.7462 13.4227 84.6108 13.6327 84.5082 13.782C84.4148 13.9313 84.3075 14.0947 84.1862 14.272C83.9528 14.6173 83.7662 14.79 83.6262 14.79C83.4955 14.79 83.3415 14.6873 83.1642 14.482C82.9868 14.2673 82.8982 14.0807 82.8982 13.922C82.8982 13.8753 82.9308 13.7493 82.9962 13.544C83.1735 13.0027 83.3695 12.3353 83.5842 11.542C83.7988 10.7393 83.9155 9.82933 83.9342 8.812C83.9622 8.13067 84.0602 7.79 84.2282 7.79C84.4335 7.79 84.6388 7.89733 84.8442 8.112C85.0495 8.32667 85.1522 8.56467 85.1522 8.826C85.1522 9.078 85.0728 9.57267 84.9142 10.31C84.7648 11.038 84.5875 11.7193 84.3822 12.354ZM96.6962 14.79C96.5655 14.79 96.4115 14.692 96.2342 14.496C96.0568 14.2907 95.9682 14.0993 95.9682 13.922C95.9682 13.7447 96.1128 13.138 96.4022 12.102C96.7008 11.066 96.9948 9.82 97.2842 8.364C97.5828 6.89867 97.7322 5.55933 97.7322 4.346C97.7322 4.066 97.8348 3.926 98.0402 3.926C98.1895 3.926 98.3715 4.066 98.5862 4.346C98.8008 4.61667 98.9082 4.88267 98.9082 5.144C98.9082 6.292 98.6562 7.93 98.1522 10.058C99.2628 8.55533 100.271 7.804 101.176 7.804C101.615 7.804 101.983 8.01867 102.282 8.448C102.59 8.87733 102.744 9.39067 102.744 9.988C102.744 10.576 102.571 11.2527 102.226 12.018C101.89 12.7833 101.433 13.4413 100.854 13.992C100.275 14.5333 99.6688 14.804 99.0342 14.804C98.3995 14.804 97.7742 14.482 97.1582 13.838L97.1442 13.852C96.9388 14.4773 96.7895 14.79 96.6962 14.79ZM98.9222 13.712C99.5288 13.712 100.121 13.3013 100.7 12.48C101.288 11.6493 101.582 10.7767 101.582 9.862C101.582 9.31133 101.414 9.036 101.078 9.036C100.537 9.036 99.9302 9.414 99.2582 10.17C98.5955 10.926 98.0215 11.8267 97.5362 12.872C97.9748 13.432 98.4368 13.712 98.9222 13.712ZM107.174 7.846C107.594 7.846 107.981 8.06067 108.336 8.49C108.69 8.91 108.868 9.29267 108.868 9.638C108.868 9.974 108.751 10.3193 108.518 10.674C108.63 10.814 108.686 10.9353 108.686 11.038C108.686 11.2993 108.625 11.7473 108.504 12.382C108.392 13.0167 108.322 13.432 108.294 13.628C108.275 13.824 108.256 13.9827 108.238 14.104C108.219 14.216 108.196 14.328 108.168 14.44C108.13 14.6733 108.046 14.79 107.916 14.79C107.748 14.79 107.608 14.6453 107.496 14.356C107.393 14.0573 107.332 13.6747 107.314 13.208C106.483 14.2627 105.713 14.79 105.004 14.79C104.574 14.79 104.15 14.608 103.73 14.244C103.319 13.8707 103.114 13.488 103.114 13.096C103.114 12.536 103.319 11.8453 103.73 11.024C104.14 10.1933 104.672 9.456 105.326 8.812C105.979 8.168 106.595 7.846 107.174 7.846ZM107.818 10.31C107.818 9.442 107.645 9.008 107.3 9.008C106.936 9.008 106.511 9.26933 106.026 9.792C105.54 10.3053 105.13 10.8887 104.794 11.542C104.458 12.1953 104.29 12.7133 104.29 13.096C104.29 13.2547 104.355 13.3853 104.486 13.488C104.616 13.5813 104.77 13.628 104.948 13.628C105.386 13.628 105.881 13.334 106.432 12.746C106.982 12.1487 107.365 11.4253 107.58 10.576C107.608 10.436 107.687 10.352 107.818 10.324V10.31ZM110.852 9.554L110.81 8.504C110.81 8.06533 110.913 7.846 111.118 7.846C111.295 7.846 111.463 7.96267 111.622 8.196C111.79 8.42 111.874 8.69067 111.874 9.008C111.874 9.316 111.865 9.54933 111.846 9.708C112.658 8.476 113.428 7.86 114.156 7.86C114.613 7.86 114.842 7.972 114.842 8.196C114.842 8.308 114.791 8.41067 114.688 8.504C114.585 8.59733 114.422 8.70467 114.198 8.826C113.703 9.04067 113.283 9.372 112.938 9.82C112.602 10.2587 112.327 10.758 112.112 11.318C111.897 11.878 111.725 12.3493 111.594 12.732C111.473 13.1147 111.379 13.4133 111.314 13.628C111.249 13.8427 111.174 14.0527 111.09 14.258C110.941 14.6313 110.768 14.818 110.572 14.818C110.413 14.818 110.283 14.7293 110.18 14.552C110.087 14.3653 110.04 14.188 110.04 14.02C110.04 13.8427 110.119 13.4973 110.278 12.984C110.661 11.808 110.852 10.6647 110.852 9.554Z" fill="#1C1B1A"/>
<path d="M50.086 22.472C50.086 22.108 50.198 21.926 50.422 21.926C50.5993 21.926 50.786 22.066 50.982 22.346C51.1873 22.626 51.29 22.8967 51.29 23.158C51.29 23.7647 51.136 24.8007 50.828 26.266C50.5293 27.722 50.1373 29.178 49.652 30.634C50.5853 28.9447 51.3647 27.7267 51.99 26.98C52.6247 26.224 53.166 25.846 53.614 25.846C53.8567 25.846 54.1367 26.056 54.454 26.476C54.7807 26.896 54.944 27.316 54.944 27.736C54.944 28.156 54.8273 28.786 54.594 29.626C54.0153 31.7353 53.4693 32.79 52.956 32.79C52.7507 32.79 52.648 32.65 52.648 32.37C52.648 32.09 52.76 31.6187 52.984 30.956C53.4787 29.5093 53.726 28.534 53.726 28.03C53.726 27.862 53.684 27.722 53.6 27.61C53.516 27.498 53.4133 27.442 53.292 27.442C53.1707 27.442 53.0213 27.5073 52.844 27.638C52.6667 27.7687 52.452 27.9973 52.2 28.324C51.8827 28.744 51.5513 29.2153 51.206 29.738C50.87 30.2607 50.6647 30.578 50.59 30.69C50.5247 30.7927 50.4033 30.984 50.226 31.264C50.058 31.544 49.932 31.754 49.848 31.894C49.764 32.0247 49.6613 32.1693 49.54 32.328C49.3253 32.636 49.162 32.79 49.05 32.79C48.938 32.79 48.7887 32.6873 48.602 32.482C48.4153 32.2673 48.322 32.09 48.322 31.95C48.322 31.8007 48.3733 31.5253 48.476 31.124C48.9427 29.332 49.2367 28.1047 49.358 27.442C49.8433 25.0153 50.086 23.3587 50.086 22.472ZM60.1679 28.226C60.1679 27.9087 60.1165 27.61 60.0139 27.33C59.9112 27.0407 59.7619 26.8307 59.5659 26.7C58.9219 26.8773 58.3665 27.3767 57.8999 28.198C57.4425 29.01 57.2139 29.7753 57.2139 30.494C57.2139 31.2127 57.3912 31.6607 57.7459 31.838C58.4179 31.7073 58.9872 31.25 59.4539 30.466C59.9299 29.6727 60.1679 28.926 60.1679 28.226ZM56.4859 28.352C56.8125 27.624 57.2372 27.0267 57.7599 26.56C58.2919 26.084 58.8332 25.846 59.3839 25.846C59.9439 25.846 60.4105 26.084 60.7839 26.56C61.1572 27.0267 61.3439 27.6007 61.3439 28.282C61.3439 28.954 61.1805 29.6447 60.8539 30.354C60.5272 31.054 60.0745 31.6373 59.4959 32.104C58.9265 32.5613 58.3199 32.79 57.6759 32.79C57.1999 32.79 56.8032 32.5707 56.4859 32.132C56.1685 31.6933 56.0099 31.138 56.0099 30.466C56.0099 29.7847 56.1685 29.08 56.4859 28.352ZM65.0416 23.102C65.0416 24.8567 64.6776 27.134 63.9496 29.934C63.4829 31.838 63.1563 32.79 62.9696 32.79C62.8389 32.79 62.6849 32.6873 62.5076 32.482C62.3396 32.2767 62.2556 32.118 62.2556 32.006C62.2556 31.894 62.3909 31.3153 62.6616 30.27C62.9323 29.2247 63.2029 27.9413 63.4736 26.42C63.7443 24.8893 63.8796 23.5127 63.8796 22.29C63.8796 22.1593 63.8983 22.066 63.9356 22.01C63.9729 21.954 64.0523 21.926 64.1736 21.926C64.2949 21.926 64.4676 22.0613 64.6916 22.332C64.9249 22.5933 65.0416 22.85 65.0416 23.102ZM71.7073 21.926C71.8566 21.926 72.0386 22.066 72.2533 22.346C72.4773 22.6167 72.5893 22.8733 72.5893 23.116C72.5893 23.3587 72.4726 24.0493 72.2393 25.188C72.0059 26.3173 71.7353 27.4887 71.4273 28.702C70.7553 31.4273 70.3119 32.79 70.0973 32.79C69.9666 32.79 69.8219 32.7107 69.6633 32.552C69.5139 32.384 69.4393 32.2393 69.4393 32.118C69.4393 31.9967 69.4719 31.754 69.5373 31.39C68.6226 32.3233 67.8246 32.79 67.1433 32.79C66.7326 32.79 66.3593 32.6033 66.0233 32.23C65.6966 31.8567 65.5333 31.4693 65.5333 31.068C65.5333 30.4893 65.6873 29.8033 65.9953 29.01C66.3126 28.2073 66.7653 27.4793 67.3533 26.826C67.9413 26.1727 68.5666 25.846 69.2293 25.846C69.8919 25.846 70.3539 26.2427 70.6153 27.036C71.0913 25.0573 71.3526 23.494 71.3993 22.346C71.3993 22.066 71.5019 21.926 71.7073 21.926ZM70.1673 28.8C70.1673 28.296 70.0786 27.8713 69.9013 27.526C69.7333 27.1807 69.5279 27.008 69.2853 27.008C68.8839 27.008 68.4733 27.2553 68.0533 27.75C67.6333 28.2447 67.2973 28.814 67.0453 29.458C66.8026 30.0927 66.6813 30.6433 66.6813 31.11C66.6813 31.278 66.7419 31.4133 66.8633 31.516C66.9846 31.6187 67.1293 31.67 67.2973 31.67C67.6613 31.67 68.1513 31.4087 68.7673 30.886C69.3926 30.3633 69.8453 29.7473 70.1253 29.038L70.1673 28.87V28.8ZM76.7056 25.846C77.0229 25.846 77.3216 26.0233 77.6016 26.378C77.8816 26.7233 78.0216 27.0267 78.0216 27.288C78.0216 27.4467 77.9469 27.526 77.7976 27.526C77.6949 27.526 77.5362 27.4467 77.3216 27.288C77.1069 27.12 76.8876 27.036 76.6636 27.036C76.4396 27.036 76.0849 27.1667 75.5996 27.428C75.1236 27.6893 74.8856 27.9647 74.8856 28.254C74.8856 28.4687 75.3149 28.8373 76.1736 29.36C76.5002 29.5653 76.7942 29.8313 77.0556 30.158C77.3262 30.4753 77.4616 30.8207 77.4616 31.194C77.4616 31.558 77.2049 31.9173 76.6916 32.272C76.1876 32.6173 75.5949 32.79 74.9136 32.79C74.2416 32.79 73.6442 32.6267 73.1216 32.3C72.6082 31.9733 72.3516 31.6653 72.3516 31.376C72.3516 31.2547 72.3796 31.1613 72.4356 31.096C72.5009 31.0213 72.5802 30.984 72.6736 30.984C72.7669 30.984 72.8976 31.0447 73.0656 31.166C73.5696 31.53 74.0922 31.712 74.6336 31.712C75.1842 31.712 75.5809 31.6513 75.8236 31.53C76.0662 31.3993 76.1876 31.2313 76.1876 31.026C76.1876 30.8113 76.0522 30.5873 75.7816 30.354C75.5109 30.1113 75.2122 29.8967 74.8856 29.71C74.5682 29.5233 74.2742 29.2947 74.0036 29.024C73.7329 28.7533 73.5976 28.478 73.5976 28.198C73.5976 27.7033 73.9849 27.19 74.7596 26.658C75.5436 26.1167 76.1922 25.846 76.7056 25.846ZM88.0057 25.846C88.4257 25.846 88.813 26.0607 89.1677 26.49C89.5223 26.91 89.6997 27.2927 89.6997 27.638C89.6997 27.974 89.583 28.3193 89.3497 28.674C89.4617 28.814 89.5177 28.9353 89.5177 29.038C89.5177 29.2993 89.457 29.7473 89.3357 30.382C89.2237 31.0167 89.1537 31.432 89.1257 31.628C89.107 31.824 89.0883 31.9827 89.0697 32.104C89.051 32.216 89.0277 32.328 88.9997 32.44C88.9623 32.6733 88.8783 32.79 88.7477 32.79C88.5797 32.79 88.4397 32.6453 88.3277 32.356C88.225 32.0573 88.1643 31.6747 88.1457 31.208C87.315 32.2627 86.545 32.79 85.8357 32.79C85.4063 32.79 84.9817 32.608 84.5617 32.244C84.151 31.8707 83.9457 31.488 83.9457 31.096C83.9457 30.536 84.151 29.8453 84.5617 29.024C84.9723 28.1933 85.5043 27.456 86.1577 26.812C86.811 26.168 87.427 25.846 88.0057 25.846ZM88.6497 28.31C88.6497 27.442 88.477 27.008 88.1317 27.008C87.7677 27.008 87.343 27.2693 86.8577 27.792C86.3723 28.3053 85.9617 28.8887 85.6257 29.542C85.2897 30.1953 85.1217 30.7133 85.1217 31.096C85.1217 31.2547 85.187 31.3853 85.3177 31.488C85.4483 31.5813 85.6023 31.628 85.7797 31.628C86.2183 31.628 86.713 31.334 87.2637 30.746C87.8143 30.1487 88.197 29.4253 88.4117 28.576C88.4397 28.436 88.519 28.352 88.6497 28.324V28.31ZM96.3882 29.01C96.3882 29.3833 96.2248 29.808 95.8982 30.284C95.6462 30.8533 95.3755 31.6747 95.0862 32.748C94.7968 33.812 94.5542 34.5727 94.3582 35.03C93.9662 35.982 93.3642 36.458 92.5522 36.458C91.8895 36.458 91.3295 36.276 90.8722 35.912C90.4242 35.5573 90.2002 35.2027 90.2002 34.848C90.2002 34.6987 90.2468 34.5493 90.3402 34.4C90.4242 34.2507 90.5128 34.176 90.6062 34.176C90.7088 34.176 90.8208 34.246 90.9422 34.386C91.0635 34.526 91.1755 34.6753 91.2782 34.834C91.3902 35.002 91.5535 35.156 91.7682 35.296C91.9922 35.436 92.2068 35.506 92.4122 35.506C92.6175 35.506 92.7715 35.4733 92.8742 35.408C92.9768 35.352 93.0748 35.254 93.1682 35.114C93.2615 34.9833 93.3408 34.848 93.4062 34.708C93.4715 34.5773 93.5415 34.386 93.6162 34.134C93.7002 33.8913 93.7655 33.6813 93.8122 33.504C93.8588 33.3267 93.9242 33.0793 94.0082 32.762C94.0922 32.4353 94.1622 32.174 94.2182 31.978C93.4902 32.5193 92.8975 32.79 92.4402 32.79C91.9828 32.79 91.5862 32.608 91.2502 32.244C90.9142 31.8707 90.7462 31.4413 90.7462 30.956C90.7462 30.4613 90.9282 29.808 91.2922 28.996C91.6655 28.184 92.1648 27.456 92.7902 26.812C93.4155 26.168 94.0268 25.846 94.6242 25.846C95.0068 25.846 95.3288 25.9907 95.5902 26.28C96.0195 26.756 96.2342 27.4327 96.2342 28.31C96.2342 28.422 96.2295 28.5013 96.2202 28.548C96.3322 28.7067 96.3882 28.8607 96.3882 29.01ZM91.8802 31.096C91.8802 31.2547 91.9315 31.3853 92.0342 31.488C92.1368 31.5813 92.2675 31.628 92.4262 31.628C92.8928 31.628 93.4435 31.3527 94.0782 30.802C94.7128 30.242 95.1608 29.5933 95.4222 28.856C95.3848 28.7347 95.3522 28.548 95.3242 28.296C95.2962 28.044 95.2682 27.8433 95.2402 27.694C95.2122 27.5447 95.1515 27.3953 95.0582 27.246C94.9648 27.0873 94.8435 27.008 94.6942 27.008C94.3302 27.008 93.9195 27.2693 93.4622 27.792C93.0048 28.3147 92.6268 28.898 92.3282 29.542C92.0295 30.186 91.8802 30.704 91.8802 31.096ZM103.075 28.17C103.075 28.6647 102.804 29.0707 102.263 29.388C101.731 29.696 101.124 29.85 100.443 29.85C99.7707 29.85 99.1594 29.7753 98.6087 29.626C98.478 30.0367 98.4127 30.4053 98.4127 30.732C98.4127 31.0493 98.5107 31.2967 98.7067 31.474C98.912 31.6513 99.2434 31.74 99.7007 31.74C100.167 31.74 100.643 31.6607 101.129 31.502C101.623 31.334 101.894 31.25 101.941 31.25C102.183 31.25 102.305 31.3433 102.305 31.53C102.305 31.782 102.02 32.0573 101.451 32.356C100.881 32.6453 100.326 32.79 99.7847 32.79C99.0567 32.79 98.464 32.5753 98.0067 32.146C97.5494 31.7073 97.3207 31.1567 97.3207 30.494C97.3207 29.8313 97.498 29.1407 97.8527 28.422C98.2074 27.694 98.6647 27.0827 99.2247 26.588C99.7847 26.0933 100.34 25.846 100.891 25.846C101.441 25.846 101.941 26.1073 102.389 26.63C102.846 27.1527 103.075 27.666 103.075 28.17ZM100.961 26.952C100.615 26.952 100.256 27.134 99.8827 27.498C99.5094 27.8527 99.192 28.296 98.9307 28.828C99.304 28.912 99.7287 28.954 100.205 28.954C100.681 28.954 101.096 28.8793 101.451 28.73C101.805 28.5713 101.983 28.366 101.983 28.114C101.983 27.862 101.866 27.6053 101.633 27.344C101.409 27.0827 101.185 26.952 100.961 26.952ZM117.461 27.932C117.461 28.3427 116.285 28.6647 113.933 28.898C113.587 30.5687 113.382 31.5067 113.317 31.712C113.251 31.9173 113.167 32.02 113.065 32.02C112.934 32.02 112.794 31.9313 112.645 31.754C112.495 31.5673 112.421 31.404 112.421 31.264C112.421 31.1147 112.435 30.9607 112.463 30.802C112.491 30.634 112.533 30.382 112.589 30.046C112.654 29.7007 112.715 29.3507 112.771 28.996C111.968 29.052 111.249 29.08 110.615 29.08C110.391 29.08 110.19 28.9867 110.013 28.8C109.835 28.6133 109.747 28.422 109.747 28.226C109.747 28.03 109.877 27.932 110.139 27.932C111.52 27.932 112.449 27.9133 112.925 27.876C113.009 27.176 113.093 26.3313 113.177 25.342C113.186 25.062 113.279 24.922 113.457 24.922C113.634 24.922 113.853 25.0527 114.115 25.314C114.385 25.5753 114.521 25.804 114.521 26C114.521 26.1867 114.409 26.784 114.185 27.792C115.51 27.68 116.28 27.624 116.495 27.624C117.139 27.624 117.461 27.7267 117.461 27.932Z" fill="#1C1B1A"/>
<path d="M52.158 43.846C52.578 43.846 52.9653 44.0607 53.32 44.49C53.6747 44.91 53.852 45.2927 53.852 45.638C53.852 45.974 53.7353 46.3193 53.502 46.674C53.614 46.814 53.67 46.9353 53.67 47.038C53.67 47.2993 53.6093 47.7473 53.488 48.382C53.376 49.0167 53.306 49.432 53.278 49.628C53.2593 49.824 53.2407 49.9827 53.222 50.104C53.2033 50.216 53.18 50.328 53.152 50.44C53.1147 50.6733 53.0307 50.79 52.9 50.79C52.732 50.79 52.592 50.6453 52.48 50.356C52.3773 50.0573 52.3167 49.6747 52.298 49.208C51.4673 50.2627 50.6973 50.79 49.988 50.79C49.5587 50.79 49.134 50.608 48.714 50.244C48.3033 49.8707 48.098 49.488 48.098 49.096C48.098 48.536 48.3033 47.8453 48.714 47.024C49.1247 46.1933 49.6567 45.456 50.31 44.812C50.9633 44.168 51.5793 43.846 52.158 43.846ZM52.802 46.31C52.802 45.442 52.6293 45.008 52.284 45.008C51.92 45.008 51.4953 45.2693 51.01 45.792C50.5247 46.3053 50.114 46.8887 49.778 47.542C49.442 48.1953 49.274 48.7133 49.274 49.096C49.274 49.2547 49.3393 49.3853 49.47 49.488C49.6007 49.5813 49.7547 49.628 49.932 49.628C50.3707 49.628 50.8653 49.334 51.416 48.746C51.9667 48.1487 52.3493 47.4253 52.564 46.576C52.592 46.436 52.6713 46.352 52.802 46.324V46.31ZM55.8365 45.554L55.7945 44.504C55.7945 44.0653 55.8972 43.846 56.1025 43.846C56.2798 43.846 56.4478 43.9627 56.6065 44.196C56.7745 44.42 56.8585 44.6907 56.8585 45.008C56.8585 45.316 56.8492 45.5493 56.8305 45.708C57.6425 44.476 58.4125 43.86 59.1405 43.86C59.5978 43.86 59.8265 43.972 59.8265 44.196C59.8265 44.308 59.7752 44.4107 59.6725 44.504C59.5698 44.5973 59.4065 44.7047 59.1825 44.826C58.6878 45.0407 58.2678 45.372 57.9225 45.82C57.5865 46.2587 57.3112 46.758 57.0965 47.318C56.8818 47.878 56.7092 48.3493 56.5785 48.732C56.4572 49.1147 56.3638 49.4133 56.2985 49.628C56.2332 49.8427 56.1585 50.0527 56.0745 50.258C55.9252 50.6313 55.7525 50.818 55.5565 50.818C55.3978 50.818 55.2672 50.7293 55.1645 50.552C55.0712 50.3653 55.0245 50.188 55.0245 50.02C55.0245 49.8427 55.1038 49.4973 55.2625 48.984C55.6452 47.808 55.8365 46.6647 55.8365 45.554ZM60.4713 45.554L60.4293 44.504C60.4293 44.0653 60.5319 43.846 60.7373 43.846C60.9146 43.846 61.0826 43.9627 61.2413 44.196C61.4093 44.42 61.4933 44.6907 61.4933 45.008C61.4933 45.316 61.4839 45.5493 61.4653 45.708C62.2773 44.476 63.0473 43.86 63.7753 43.86C64.2326 43.86 64.4613 43.972 64.4613 44.196C64.4613 44.308 64.4099 44.4107 64.3073 44.504C64.2046 44.5973 64.0413 44.7047 63.8173 44.826C63.3226 45.0407 62.9026 45.372 62.5573 45.82C62.2213 46.2587 61.9459 46.758 61.7313 47.318C61.5166 47.878 61.3439 48.3493 61.2133 48.732C61.0919 49.1147 60.9986 49.4133 60.9333 49.628C60.8679 49.8427 60.7933 50.0527 60.7093 50.258C60.5599 50.6313 60.3873 50.818 60.1913 50.818C60.0326 50.818 59.9019 50.7293 59.7993 50.552C59.7059 50.3653 59.6593 50.188 59.6593 50.02C59.6593 49.8427 59.7386 49.4973 59.8973 48.984C60.2799 47.808 60.4713 46.6647 60.4713 45.554ZM68.494 46.226C68.494 45.9087 68.4427 45.61 68.34 45.33C68.2374 45.0407 68.088 44.8307 67.892 44.7C67.248 44.8773 66.6927 45.3767 66.226 46.198C65.7687 47.01 65.54 47.7753 65.54 48.494C65.54 49.2127 65.7174 49.6607 66.072 49.838C66.744 49.7073 67.3134 49.25 67.78 48.466C68.256 47.6727 68.494 46.926 68.494 46.226ZM64.812 46.352C65.1387 45.624 65.5634 45.0267 66.086 44.56C66.618 44.084 67.1594 43.846 67.71 43.846C68.27 43.846 68.7367 44.084 69.11 44.56C69.4834 45.0267 69.67 45.6007 69.67 46.282C69.67 46.954 69.5067 47.6447 69.18 48.354C68.8534 49.054 68.4007 49.6373 67.822 50.104C67.2527 50.5613 66.646 50.79 66.002 50.79C65.526 50.79 65.1294 50.5707 64.812 50.132C64.4947 49.6933 64.336 49.138 64.336 48.466C64.336 47.7847 64.4947 47.08 64.812 46.352ZM76.2378 45.33L76.1398 47.962C76.1398 48.69 76.1724 49.2173 76.2378 49.544C76.6391 49.124 76.9844 48.634 77.2738 48.074C77.5724 47.5047 77.7918 46.9773 77.9318 46.492C78.0811 46.0067 78.2071 45.554 78.3098 45.134C78.4218 44.7047 78.5244 44.364 78.6178 44.112C78.7111 43.86 78.8184 43.734 78.9398 43.734C79.1171 43.734 79.2758 43.8087 79.4158 43.958C79.5558 44.098 79.6258 44.2613 79.6258 44.448C79.6258 44.924 79.4111 45.708 78.9818 46.8C78.6178 47.808 78.1418 48.732 77.5538 49.572C76.9658 50.4027 76.5084 50.818 76.1818 50.818C75.8551 50.818 75.6078 50.636 75.4398 50.272C75.2811 49.908 75.1924 49.2127 75.1738 48.186C75.1551 47.15 75.1691 46.254 75.2158 45.498C74.5718 47.2527 74.0024 48.578 73.5078 49.474C73.0131 50.37 72.6211 50.818 72.3318 50.818C72.2011 50.818 72.0611 50.7573 71.9118 50.636C71.7718 50.5147 71.6598 50.356 71.5758 50.16C71.3704 49.6653 71.1931 48.7227 71.0438 47.332C70.9038 45.932 70.8338 44.9333 70.8338 44.336C70.8338 43.9533 70.9504 43.762 71.1838 43.762C71.3891 43.762 71.5758 43.8787 71.7438 44.112C71.9211 44.3453 72.0238 44.5787 72.0518 44.812C72.0798 45.036 72.1031 45.6707 72.1218 46.716C72.1498 47.752 72.2384 48.676 72.3878 49.488C72.7704 48.8253 73.1531 47.9947 73.5358 46.996C73.9278 45.9973 74.2451 45.2133 74.4878 44.644C74.7398 44.0747 74.9684 43.79 75.1738 43.79C75.4818 43.79 75.7338 43.9347 75.9298 44.224C76.1351 44.504 76.2378 44.8727 76.2378 45.33ZM87.9028 50.79C87.3615 50.79 86.8528 50.58 86.3768 50.16C85.9008 49.7307 85.6628 49.2267 85.6628 48.648C85.6628 48.06 85.8588 47.3833 86.2508 46.618C86.6428 45.8527 87.1468 45.1993 87.7628 44.658C88.3882 44.1167 88.9948 43.846 89.5828 43.846C89.9655 43.846 90.3015 44.0187 90.5908 44.364C90.8802 44.7093 91.0248 45.0127 91.0248 45.274C91.0248 45.3487 91.0015 45.414 90.9548 45.47C90.9082 45.5167 90.8382 45.54 90.7448 45.54C90.6608 45.54 90.5068 45.456 90.2828 45.288C90.0588 45.12 89.8582 45.036 89.6808 45.036C89.1768 45.036 88.5888 45.4793 87.9168 46.366C87.2448 47.2527 86.9088 48.0273 86.9088 48.69C86.9088 48.9793 86.9975 49.208 87.1748 49.376C87.3615 49.544 87.6555 49.628 88.0568 49.628C88.4675 49.628 88.8408 49.5813 89.1768 49.488C89.5222 49.3853 89.7882 49.2873 89.9748 49.194C90.1615 49.0913 90.3062 49.04 90.4088 49.04C90.5862 49.04 90.6748 49.1287 90.6748 49.306C90.6748 49.5767 90.3482 49.894 89.6948 50.258C89.0508 50.6127 88.4535 50.79 87.9028 50.79ZM93.5352 40.472C93.5352 40.108 93.6472 39.926 93.8712 39.926C94.0486 39.926 94.2352 40.066 94.4312 40.346C94.6366 40.626 94.7392 40.8967 94.7392 41.158C94.7392 41.7647 94.5852 42.8007 94.2772 44.266C93.9786 45.722 93.5866 47.178 93.1012 48.634C94.0346 46.9447 94.8139 45.7267 95.4392 44.98C96.0739 44.224 96.6152 43.846 97.0632 43.846C97.3059 43.846 97.5859 44.056 97.9032 44.476C98.2299 44.896 98.3932 45.316 98.3932 45.736C98.3932 46.156 98.2766 46.786 98.0432 47.626C97.4646 49.7353 96.9186 50.79 96.4052 50.79C96.1999 50.79 96.0972 50.65 96.0972 50.37C96.0972 50.09 96.2092 49.6187 96.4332 48.956C96.9279 47.5093 97.1752 46.534 97.1752 46.03C97.1752 45.862 97.1332 45.722 97.0492 45.61C96.9652 45.498 96.8626 45.442 96.7412 45.442C96.6199 45.442 96.4706 45.5073 96.2932 45.638C96.1159 45.7687 95.9012 45.9973 95.6492 46.324C95.3319 46.744 95.0006 47.2153 94.6552 47.738C94.3192 48.2607 94.1139 48.578 94.0392 48.69C93.9739 48.7927 93.8526 48.984 93.6752 49.264C93.5072 49.544 93.3812 49.754 93.2972 49.894C93.2132 50.0247 93.1106 50.1693 92.9892 50.328C92.7746 50.636 92.6112 50.79 92.4992 50.79C92.3872 50.79 92.2379 50.6873 92.0512 50.482C91.8646 50.2673 91.7712 50.09 91.7712 49.95C91.7712 49.8007 91.8226 49.5253 91.9252 49.124C92.3919 47.332 92.6859 46.1047 92.8072 45.442C93.2926 43.0153 93.5352 41.3587 93.5352 40.472ZM101.181 41.858C101.181 41.6713 101.256 41.494 101.405 41.326C101.554 41.158 101.704 41.074 101.853 41.074C102.012 41.074 102.198 41.2653 102.413 41.648C102.628 42.0213 102.735 42.334 102.735 42.586C102.735 42.6793 102.693 42.7633 102.609 42.838C102.525 42.9127 102.436 42.95 102.343 42.95C102.119 42.95 101.867 42.8147 101.587 42.544C101.316 42.2733 101.181 42.0447 101.181 41.858ZM101.111 43.846C101.288 43.846 101.456 43.9533 101.615 44.168C101.774 44.3827 101.853 44.5927 101.853 44.798C101.853 45.0033 101.718 45.6193 101.447 46.646C101.176 47.6633 100.836 48.8067 100.425 50.076C100.266 50.5427 100.066 50.776 99.8231 50.776C99.6924 50.776 99.5804 50.7247 99.4871 50.622C99.3937 50.51 99.3471 50.3887 99.3471 50.258C99.3471 50.118 99.3797 49.9033 99.4451 49.614C99.5197 49.3153 99.6224 48.9233 99.7531 48.438C99.8931 47.9433 100 47.542 100.075 47.234C100.159 46.926 100.243 46.5807 100.327 46.198C100.411 45.806 100.476 45.4933 100.523 45.26C100.579 45.0173 100.64 44.7747 100.705 44.532C100.836 44.0747 100.971 43.846 101.111 43.846ZM107.303 43.804C107.704 43.804 108.05 44.0607 108.339 44.574C108.638 45.0873 108.787 45.6193 108.787 46.17C108.787 46.7113 108.628 47.2573 108.311 47.808C107.994 48.3493 107.602 48.8347 107.135 49.264C106.668 49.6933 106.15 50.0527 105.581 50.342C105.021 50.622 104.503 50.762 104.027 50.762C103.84 50.762 103.663 50.7387 103.495 50.692C103.458 50.8507 103.392 51.1353 103.299 51.546C103.206 51.9567 103.126 52.2973 103.061 52.568C102.996 52.8387 102.921 53.128 102.837 53.436C102.669 54.0707 102.52 54.388 102.389 54.388C102.258 54.388 102.123 54.2853 101.983 54.08C101.834 53.884 101.759 53.7067 101.759 53.548C101.759 53.3893 101.908 52.708 102.207 51.504C103.103 47.8733 103.551 45.428 103.551 44.168C103.551 43.888 103.654 43.748 103.859 43.748C104.027 43.748 104.228 43.874 104.461 44.126C104.704 44.3687 104.825 44.6393 104.825 44.938C104.825 45.0873 104.806 45.2507 104.769 45.428C105.6 44.3453 106.444 43.804 107.303 43.804ZM103.887 49.67C104.382 49.67 104.914 49.502 105.483 49.166C106.062 48.83 106.552 48.3867 106.953 47.836C107.364 47.276 107.569 46.7207 107.569 46.17C107.569 45.3953 107.387 45.008 107.023 45.008C106.659 45.008 106.164 45.3207 105.539 45.946C104.923 46.5713 104.433 47.3833 104.069 48.382L103.747 49.67H103.887Z" fill="#1C1B1A"/>
<path d="M44 36C26 42 12 44 0 40L44 36Z" fill="black"/>
<path d="M0 40L6 36V46L0 40Z" fill="#1C1B1A"/>
</svg>
