<svg width="127" height="58" viewBox="0 0 127 58" fill="none" xmlns="http://www.w3.org/2000/svg">
<path d="M60.592 9.834C61.4413 9.946 62.118 10.156 62.622 10.464C63.126 10.772 63.378 11.1827 63.378 11.696C63.378 12.2 63.0793 12.6993 62.482 13.194C61.894 13.6887 61.1753 14.076 60.326 14.356C59.486 14.636 58.632 14.776 57.764 14.776C56.9053 14.776 56.476 14.6173 56.476 14.3C56.476 14.216 56.7513 14.1087 57.302 13.978C57.862 13.838 58.4733 13.6933 59.136 13.544C59.7987 13.3853 60.4053 13.138 60.956 12.802C61.516 12.4567 61.796 12.06 61.796 11.612C61.796 11.3693 61.628 11.1733 61.292 11.024C60.956 10.8653 60.5827 10.7533 60.172 10.688C59.0893 10.5293 58.548 10.3427 58.548 10.128C58.548 10.0533 58.562 9.99733 58.59 9.96C58.6647 9.82933 58.9027 9.64733 59.304 9.414C59.7053 9.18067 60.1113 8.952 60.522 8.728C60.942 8.504 61.3247 8.21 61.67 7.846C62.0153 7.482 62.188 7.11333 62.188 6.74C62.188 6.30133 61.95 6.082 61.474 6.082C61.0913 6.082 60.606 6.236 60.018 6.544C59.43 6.84267 59.094 6.992 59.01 6.992C58.9353 6.992 58.7907 6.894 58.576 6.698C58.3613 6.49267 58.254 6.33867 58.254 6.236C58.254 5.956 58.632 5.66667 59.388 5.368C60.1533 5.06933 60.83 4.92 61.418 4.92C62.006 4.92 62.5007 5.12067 62.902 5.522C63.3127 5.92333 63.518 6.38533 63.518 6.908C63.518 7.42133 63.224 7.94867 62.636 8.49C62.048 9.022 61.3667 9.47 60.592 9.834ZM70.8912 9.554L70.8492 8.504C70.8492 8.06533 70.9519 7.846 71.1572 7.846C71.3345 7.846 71.5025 7.96267 71.6612 8.196C71.8292 8.42 71.9132 8.69067 71.9132 9.008C71.9132 9.316 71.9039 9.54933 71.8852 9.708C72.6972 8.476 73.4672 7.86 74.1952 7.86C74.6525 7.86 74.8812 7.972 74.8812 8.196C74.8812 8.308 74.8299 8.41067 74.7272 8.504C74.6245 8.59733 74.4612 8.70467 74.2372 8.826C73.7425 9.04067 73.3225 9.372 72.9772 9.82C72.6412 10.2587 72.3659 10.758 72.1512 11.318C71.9365 11.878 71.7639 12.3493 71.6332 12.732C71.5119 13.1147 71.4185 13.4133 71.3532 13.628C71.2879 13.8427 71.2132 14.0527 71.1292 14.258C70.9799 14.6313 70.8072 14.818 70.6112 14.818C70.4525 14.818 70.3219 14.7293 70.2192 14.552C70.1259 14.3653 70.0792 14.188 70.0792 14.02C70.0792 13.8427 70.1585 13.4973 70.3172 12.984C70.6999 11.808 70.8912 10.6647 70.8912 9.554ZM80.272 10.17C80.272 10.6647 80.0013 11.0707 79.46 11.388C78.928 11.696 78.3213 11.85 77.64 11.85C76.968 11.85 76.3566 11.7753 75.806 11.626C75.6753 12.0367 75.61 12.4053 75.61 12.732C75.61 13.0493 75.708 13.2967 75.904 13.474C76.1093 13.6513 76.4406 13.74 76.898 13.74C77.3646 13.74 77.8406 13.6607 78.326 13.502C78.8206 13.334 79.0913 13.25 79.138 13.25C79.3806 13.25 79.502 13.3433 79.502 13.53C79.502 13.782 79.2173 14.0573 78.648 14.356C78.0786 14.6453 77.5233 14.79 76.982 14.79C76.254 14.79 75.6613 14.5753 75.204 14.146C74.7466 13.7073 74.518 13.1567 74.518 12.494C74.518 11.8313 74.6953 11.1407 75.05 10.422C75.4046 9.694 75.862 9.08267 76.422 8.588C76.982 8.09333 77.5373 7.846 78.088 7.846C78.6386 7.846 79.138 8.10733 79.586 8.63C80.0433 9.15267 80.272 9.666 80.272 10.17ZM78.158 8.952C77.8126 8.952 77.4533 9.134 77.08 9.498C76.7066 9.85267 76.3893 10.296 76.128 10.828C76.5013 10.912 76.926 10.954 77.402 10.954C77.878 10.954 78.2933 10.8793 78.648 10.73C79.0026 10.5713 79.18 10.366 79.18 10.114C79.18 9.862 79.0633 9.60533 78.83 9.344C78.606 9.08267 78.382 8.952 78.158 8.952ZM84.7127 7.846C85.1327 7.846 85.52 8.06067 85.8747 8.49C86.2294 8.91 86.4067 9.29267 86.4067 9.638C86.4067 9.974 86.29 10.3193 86.0567 10.674C86.1687 10.814 86.2247 10.9353 86.2247 11.038C86.2247 11.2993 86.164 11.7473 86.0427 12.382C85.9307 13.0167 85.8607 13.432 85.8327 13.628C85.814 13.824 85.7954 13.9827 85.7767 14.104C85.758 14.216 85.7347 14.328 85.7067 14.44C85.6694 14.6733 85.5854 14.79 85.4547 14.79C85.2867 14.79 85.1467 14.6453 85.0347 14.356C84.932 14.0573 84.8714 13.6747 84.8527 13.208C84.022 14.2627 83.252 14.79 82.5427 14.79C82.1134 14.79 81.6887 14.608 81.2687 14.244C80.858 13.8707 80.6527 13.488 80.6527 13.096C80.6527 12.536 80.858 11.8453 81.2687 11.024C81.6794 10.1933 82.2114 9.456 82.8647 8.812C83.518 8.168 84.134 7.846 84.7127 7.846ZM85.3567 10.31C85.3567 9.442 85.184 9.008 84.8387 9.008C84.4747 9.008 84.05 9.26933 83.5647 9.792C83.0794 10.3053 82.6687 10.8887 82.3327 11.542C81.9967 12.1953 81.8287 12.7133 81.8287 13.096C81.8287 13.2547 81.894 13.3853 82.0247 13.488C82.1554 13.5813 82.3094 13.628 82.4867 13.628C82.9254 13.628 83.42 13.334 83.9707 12.746C84.5214 12.1487 84.904 11.4253 85.1187 10.576C85.1467 10.436 85.226 10.352 85.3567 10.324V10.31ZM90.3092 5.102C90.3092 6.85667 89.9452 9.134 89.2172 11.934C88.7505 13.838 88.4239 14.79 88.2372 14.79C88.1065 14.79 87.9525 14.6873 87.7752 14.482C87.6072 14.2767 87.5232 14.118 87.5232 14.006C87.5232 13.894 87.6585 13.3153 87.9292 12.27C88.1999 11.2247 88.4705 9.94133 88.7412 8.42C89.0119 6.88933 89.1472 5.51267 89.1472 4.29C89.1472 4.15933 89.1659 4.066 89.2032 4.01C89.2405 3.954 89.3199 3.926 89.4412 3.926C89.5625 3.926 89.7352 4.06133 89.9592 4.332C90.1925 4.59333 90.3092 4.85 90.3092 5.102ZM99.36 5.102C99.36 6.85667 98.996 9.134 98.268 11.934C97.8013 13.838 97.4746 14.79 97.288 14.79C97.1573 14.79 97.0033 14.6873 96.826 14.482C96.658 14.2767 96.574 14.118 96.574 14.006C96.574 13.894 96.7093 13.3153 96.98 12.27C97.2506 11.2247 97.5213 9.94133 97.792 8.42C98.0626 6.88933 98.198 5.51267 98.198 4.29C98.198 4.15933 98.2166 4.066 98.254 4.01C98.2913 3.954 98.3706 3.926 98.492 3.926C98.6133 3.926 98.786 4.06133 99.01 4.332C99.2433 4.59333 99.36 4.85 99.36 5.102ZM104.262 10.226C104.262 9.90867 104.21 9.61 104.108 9.33C104.005 9.04067 103.856 8.83067 103.66 8.7C103.016 8.87733 102.46 9.37667 101.994 10.198C101.536 11.01 101.308 11.7753 101.308 12.494C101.308 13.2127 101.485 13.6607 101.84 13.838C102.512 13.7073 103.081 13.25 103.548 12.466C104.024 11.6727 104.262 10.926 104.262 10.226ZM100.58 10.352C100.906 9.624 101.331 9.02667 101.854 8.56C102.386 8.084 102.927 7.846 103.478 7.846C104.038 7.846 104.504 8.084 104.878 8.56C105.251 9.02667 105.438 9.60067 105.438 10.282C105.438 10.954 105.274 11.6447 104.948 12.354C104.621 13.054 104.168 13.6373 103.59 14.104C103.02 14.5613 102.414 14.79 101.77 14.79C101.294 14.79 100.897 14.5707 100.58 14.132C100.262 13.6933 100.104 13.138 100.104 12.466C100.104 11.7847 100.262 11.08 100.58 10.352ZM111.921 11.01C111.921 11.3833 111.758 11.808 111.431 12.284C111.179 12.8533 110.909 13.6747 110.619 14.748C110.33 15.812 110.087 16.5727 109.891 17.03C109.499 17.982 108.897 18.458 108.085 18.458C107.423 18.458 106.863 18.276 106.405 17.912C105.957 17.5573 105.733 17.2027 105.733 16.848C105.733 16.6987 105.78 16.5493 105.873 16.4C105.957 16.2507 106.046 16.176 106.139 16.176C106.242 16.176 106.354 16.246 106.475 16.386C106.597 16.526 106.709 16.6753 106.811 16.834C106.923 17.002 107.087 17.156 107.301 17.296C107.525 17.436 107.74 17.506 107.945 17.506C108.151 17.506 108.305 17.4733 108.407 17.408C108.51 17.352 108.608 17.254 108.701 17.114C108.795 16.9833 108.874 16.848 108.939 16.708C109.005 16.5773 109.075 16.386 109.149 16.134C109.233 15.8913 109.299 15.6813 109.345 15.504C109.392 15.3267 109.457 15.0793 109.541 14.762C109.625 14.4353 109.695 14.174 109.751 13.978C109.023 14.5193 108.431 14.79 107.973 14.79C107.516 14.79 107.119 14.608 106.783 14.244C106.447 13.8707 106.279 13.4413 106.279 12.956C106.279 12.4613 106.461 11.808 106.825 10.996C107.199 10.184 107.698 9.456 108.323 8.812C108.949 8.168 109.56 7.846 110.157 7.846C110.54 7.846 110.862 7.99067 111.123 8.28C111.553 8.756 111.767 9.43267 111.767 10.31C111.767 10.422 111.763 10.5013 111.753 10.548C111.865 10.7067 111.921 10.8607 111.921 11.01ZM107.413 13.096C107.413 13.2547 107.465 13.3853 107.567 13.488C107.67 13.5813 107.801 13.628 107.959 13.628C108.426 13.628 108.977 13.3527 109.611 12.802C110.246 12.242 110.694 11.5933 110.955 10.856C110.918 10.7347 110.885 10.548 110.857 10.296C110.829 10.044 110.801 9.84333 110.773 9.694C110.745 9.54467 110.685 9.39533 110.591 9.246C110.498 9.08733 110.377 9.008 110.227 9.008C109.863 9.008 109.453 9.26933 108.995 9.792C108.538 10.3147 108.16 10.898 107.861 11.542C107.563 12.186 107.413 12.704 107.413 13.096ZM117.25 10.226C117.25 9.90867 117.199 9.61 117.096 9.33C116.993 9.04067 116.844 8.83067 116.648 8.7C116.004 8.87733 115.449 9.37667 114.982 10.198C114.525 11.01 114.296 11.7753 114.296 12.494C114.296 13.2127 114.473 13.6607 114.828 13.838C115.5 13.7073 116.069 13.25 116.536 12.466C117.012 11.6727 117.25 10.926 117.25 10.226ZM113.568 10.352C113.895 9.624 114.319 9.02667 114.842 8.56C115.374 8.084 115.915 7.846 116.466 7.846C117.026 7.846 117.493 8.084 117.866 8.56C118.239 9.02667 118.426 9.60067 118.426 10.282C118.426 10.954 118.263 11.6447 117.936 12.354C117.609 13.054 117.157 13.6373 116.578 14.104C116.009 14.5613 115.402 14.79 114.758 14.79C114.282 14.79 113.885 14.5707 113.568 14.132C113.251 13.6933 113.092 13.138 113.092 12.466C113.092 11.7847 113.251 11.08 113.568 10.352ZM123.37 7.846C123.687 7.846 123.986 8.02333 124.266 8.378C124.546 8.72333 124.686 9.02667 124.686 9.288C124.686 9.44667 124.611 9.526 124.462 9.526C124.359 9.526 124.2 9.44667 123.986 9.288C123.771 9.12 123.552 9.036 123.328 9.036C123.104 9.036 122.749 9.16667 122.264 9.428C121.788 9.68933 121.55 9.96467 121.55 10.254C121.55 10.4687 121.979 10.8373 122.838 11.36C123.164 11.5653 123.458 11.8313 123.72 12.158C123.99 12.4753 124.126 12.8207 124.126 13.194C124.126 13.558 123.869 13.9173 123.356 14.272C122.852 14.6173 122.259 14.79 121.578 14.79C120.906 14.79 120.308 14.6267 119.786 14.3C119.272 13.9733 119.016 13.6653 119.016 13.376C119.016 13.2547 119.044 13.1613 119.1 13.096C119.165 13.0213 119.244 12.984 119.338 12.984C119.431 12.984 119.562 13.0447 119.73 13.166C120.234 13.53 120.756 13.712 121.298 13.712C121.848 13.712 122.245 13.6513 122.488 13.53C122.73 13.3993 122.852 13.2313 122.852 13.026C122.852 12.8113 122.716 12.5873 122.446 12.354C122.175 12.1113 121.876 11.8967 121.55 11.71C121.232 11.5233 120.938 11.2947 120.668 11.024C120.397 10.7533 120.262 10.478 120.262 10.198C120.262 9.70333 120.649 9.19 121.424 8.658C122.208 8.11667 122.856 7.846 123.37 7.846Z" fill="#1C1B1A"/>
<path d="M56.938 28.912C56.938 28.604 58.0067 28.3567 60.144 28.17C62.2813 27.974 64.5867 27.876 67.06 27.876C67.984 27.876 68.446 28.0067 68.446 28.268C68.446 28.4733 67.9607 28.6227 66.99 28.716C66.3927 28.772 65.4873 28.8373 64.274 28.912C63.0607 28.9867 62.132 29.0567 61.488 29.122C60.8533 29.178 60.0553 29.2713 59.094 29.402C58.142 29.5327 57.6007 29.6027 57.47 29.612C57.3487 29.612 57.2273 29.5373 57.106 29.388C56.994 29.2293 56.938 29.0707 56.938 28.912ZM78.895 25.846C79.2124 25.846 79.511 26.0233 79.791 26.378C80.071 26.7233 80.211 27.0267 80.211 27.288C80.211 27.4467 80.1364 27.526 79.987 27.526C79.8844 27.526 79.7257 27.4467 79.511 27.288C79.2964 27.12 79.077 27.036 78.853 27.036C78.629 27.036 78.2744 27.1667 77.789 27.428C77.313 27.6893 77.075 27.9647 77.075 28.254C77.075 28.4687 77.5044 28.8373 78.363 29.36C78.6897 29.5653 78.9837 29.8313 79.245 30.158C79.5157 30.4753 79.651 30.8207 79.651 31.194C79.651 31.558 79.3944 31.9173 78.881 32.272C78.377 32.6173 77.7844 32.79 77.103 32.79C76.431 32.79 75.8337 32.6267 75.311 32.3C74.7977 31.9733 74.541 31.6653 74.541 31.376C74.541 31.2547 74.569 31.1613 74.625 31.096C74.6904 31.0213 74.7697 30.984 74.863 30.984C74.9564 30.984 75.087 31.0447 75.255 31.166C75.759 31.53 76.2817 31.712 76.823 31.712C77.3737 31.712 77.7704 31.6513 78.013 31.53C78.2557 31.3993 78.377 31.2313 78.377 31.026C78.377 30.8113 78.2417 30.5873 77.971 30.354C77.7004 30.1113 77.4017 29.8967 77.075 29.71C76.7577 29.5233 76.4637 29.2947 76.193 29.024C75.9224 28.7533 75.787 28.478 75.787 28.198C75.787 27.7033 76.1744 27.19 76.949 26.658C77.733 26.1167 78.3817 25.846 78.895 25.846ZM82.504 22.472C82.504 22.108 82.616 21.926 82.84 21.926C83.0173 21.926 83.204 22.066 83.4 22.346C83.6053 22.626 83.708 22.8967 83.708 23.158C83.708 23.7647 83.554 24.8007 83.246 26.266C82.9473 27.722 82.5553 29.178 82.07 30.634C83.0033 28.9447 83.7826 27.7267 84.408 26.98C85.0426 26.224 85.584 25.846 86.032 25.846C86.2746 25.846 86.5546 26.056 86.872 26.476C87.1986 26.896 87.362 27.316 87.362 27.736C87.362 28.156 87.2453 28.786 87.012 29.626C86.4333 31.7353 85.8873 32.79 85.374 32.79C85.1686 32.79 85.066 32.65 85.066 32.37C85.066 32.09 85.178 31.6187 85.402 30.956C85.8966 29.5093 86.144 28.534 86.144 28.03C86.144 27.862 86.102 27.722 86.018 27.61C85.934 27.498 85.8313 27.442 85.71 27.442C85.5886 27.442 85.4393 27.5073 85.262 27.638C85.0846 27.7687 84.87 27.9973 84.618 28.324C84.3006 28.744 83.9693 29.2153 83.624 29.738C83.288 30.2607 83.0826 30.578 83.008 30.69C82.9426 30.7927 82.8213 30.984 82.644 31.264C82.476 31.544 82.35 31.754 82.266 31.894C82.182 32.0247 82.0793 32.1693 81.958 32.328C81.7433 32.636 81.58 32.79 81.468 32.79C81.356 32.79 81.2066 32.6873 81.02 32.482C80.8333 32.2673 80.74 32.09 80.74 31.95C80.74 31.8007 80.7913 31.5253 80.894 31.124C81.3606 29.332 81.6546 28.1047 81.776 27.442C82.2613 25.0153 82.504 23.3587 82.504 22.472ZM92.5858 28.226C92.5858 27.9087 92.5345 27.61 92.4318 27.33C92.3292 27.0407 92.1798 26.8307 91.9838 26.7C91.3398 26.8773 90.7845 27.3767 90.3178 28.198C89.8605 29.01 89.6318 29.7753 89.6318 30.494C89.6318 31.2127 89.8092 31.6607 90.1638 31.838C90.8358 31.7073 91.4052 31.25 91.8718 30.466C92.3478 29.6727 92.5858 28.926 92.5858 28.226ZM88.9038 28.352C89.2305 27.624 89.6552 27.0267 90.1778 26.56C90.7098 26.084 91.2512 25.846 91.8018 25.846C92.3618 25.846 92.8285 26.084 93.2018 26.56C93.5752 27.0267 93.7618 27.6007 93.7618 28.282C93.7618 28.954 93.5985 29.6447 93.2718 30.354C92.9452 31.054 92.4925 31.6373 91.9138 32.104C91.3445 32.5613 90.7378 32.79 90.0938 32.79C89.6178 32.79 89.2212 32.5707 88.9038 32.132C88.5865 31.6933 88.4278 31.138 88.4278 30.466C88.4278 29.7847 88.5865 29.08 88.9038 28.352ZM95.5416 27.554L95.4996 26.504C95.4996 26.0653 95.6022 25.846 95.8076 25.846C95.9849 25.846 96.1529 25.9627 96.3116 26.196C96.4796 26.42 96.5636 26.6907 96.5636 27.008C96.5636 27.316 96.5542 27.5493 96.5356 27.708C97.3476 26.476 98.1176 25.86 98.8456 25.86C99.3029 25.86 99.5316 25.972 99.5316 26.196C99.5316 26.308 99.4802 26.4107 99.3776 26.504C99.2749 26.5973 99.1116 26.7047 98.8876 26.826C98.3929 27.0407 97.9729 27.372 97.6276 27.82C97.2916 28.2587 97.0162 28.758 96.8016 29.318C96.5869 29.878 96.4142 30.3493 96.2836 30.732C96.1622 31.1147 96.0689 31.4133 96.0036 31.628C95.9382 31.8427 95.8636 32.0527 95.7796 32.258C95.6302 32.6313 95.4576 32.818 95.2616 32.818C95.1029 32.818 94.9722 32.7293 94.8696 32.552C94.7762 32.3653 94.7296 32.188 94.7296 32.02C94.7296 31.8427 94.8089 31.4973 94.9676 30.984C95.3502 29.808 95.5416 28.6647 95.5416 27.554ZM100.904 31.39C100.904 31.5673 101.007 31.656 101.212 31.656C101.567 31.656 101.996 31.558 102.5 31.362C103.014 31.1567 103.298 31.054 103.354 31.054C103.522 31.054 103.606 31.1427 103.606 31.32C103.606 31.5907 103.326 31.9033 102.766 32.258C102.216 32.6127 101.712 32.79 101.254 32.79C100.806 32.79 100.433 32.6687 100.134 32.426C99.8357 32.174 99.6863 31.9173 99.6863 31.656C99.6863 31.3947 99.7423 31.0633 99.8543 30.662C99.9663 30.2513 100.125 29.7147 100.33 29.052C100.545 28.38 100.713 27.8247 100.834 27.386C100.396 27.4887 100.102 27.54 99.9523 27.54C99.803 27.54 99.6537 27.4653 99.5043 27.316C99.3643 27.1573 99.2943 27.008 99.2943 26.868C99.2943 26.644 99.901 26.4293 101.114 26.224C101.282 25.4493 101.366 24.7633 101.366 24.166C101.366 23.886 101.46 23.746 101.646 23.746C101.805 23.746 102.001 23.8487 102.234 24.054C102.468 24.25 102.584 24.474 102.584 24.726C102.584 24.978 102.505 25.4213 102.346 26.056C102.878 26.0093 103.303 25.986 103.62 25.986C104.18 25.986 104.46 26.1073 104.46 26.35C104.46 26.49 104.306 26.6067 103.998 26.7C103.7 26.7933 103.065 26.938 102.094 27.134C101.898 27.8713 101.651 28.716 101.352 29.668C101.054 30.6107 100.904 31.1847 100.904 31.39ZM117.902 31.726C118.359 31.726 118.672 31.7493 118.84 31.796C119.008 31.8427 119.092 31.9313 119.092 32.062C119.092 32.5007 118.639 32.72 117.734 32.72C116.838 32.72 115.951 32.314 115.074 31.502C113.58 32.4167 112.474 32.874 111.756 32.874C111.392 32.874 111.032 32.7013 110.678 32.356C110.323 32.0013 110.146 31.6327 110.146 31.25C110.146 30.858 110.967 29.9947 112.61 28.66C112.656 28.6133 112.694 28.5807 112.722 28.562C112.75 28.5433 112.782 28.5153 112.82 28.478C112.866 28.4407 112.908 28.408 112.946 28.38C112.61 27.5587 112.442 26.798 112.442 26.098C112.442 25.3887 112.698 24.7727 113.212 24.25C113.725 23.7273 114.374 23.466 115.158 23.466C115.755 23.466 116.18 23.648 116.432 24.012C116.693 24.3667 116.824 24.7633 116.824 25.202C116.824 26.0327 115.97 27.1853 114.262 28.66C114.504 29.1827 114.794 29.6633 115.13 30.102C115.512 29.8407 116.012 29.486 116.628 29.038C117.832 28.17 118.494 27.736 118.616 27.736C118.905 27.736 119.05 27.89 119.05 28.198C119.05 28.3753 118.742 28.7347 118.126 29.276C117.51 29.8173 116.782 30.3727 115.942 30.942C116.567 31.4647 117.22 31.726 117.902 31.726ZM114.878 24.53C114.532 24.53 114.243 24.6933 114.01 25.02C113.786 25.3467 113.674 25.7387 113.674 26.196C113.674 26.644 113.744 27.1107 113.884 27.596C115.013 26.5973 115.578 25.8367 115.578 25.314C115.578 25.09 115.517 24.9033 115.396 24.754C115.284 24.6047 115.111 24.53 114.878 24.53ZM111.546 31.054C111.434 31.2127 111.378 31.3433 111.378 31.446C111.378 31.5393 111.415 31.6187 111.49 31.684C111.564 31.7493 111.658 31.782 111.77 31.782C112.255 31.782 113.09 31.404 114.276 30.648C113.986 30.2933 113.702 29.8687 113.422 29.374C112.283 30.326 111.658 30.886 111.546 31.054Z" fill="#1C1B1A"/>
<path d="M57.274 45.554L57.232 44.504C57.232 44.0653 57.3347 43.846 57.54 43.846C57.7173 43.846 57.8853 43.9627 58.044 44.196C58.212 44.42 58.296 44.6907 58.296 45.008C58.296 45.316 58.2867 45.5493 58.268 45.708C59.08 44.476 59.85 43.86 60.578 43.86C61.0353 43.86 61.264 43.972 61.264 44.196C61.264 44.308 61.2127 44.4107 61.11 44.504C61.0073 44.5973 60.844 44.7047 60.62 44.826C60.1253 45.0407 59.7053 45.372 59.36 45.82C59.024 46.2587 58.7487 46.758 58.534 47.318C58.3193 47.878 58.1467 48.3493 58.016 48.732C57.8947 49.1147 57.8013 49.4133 57.736 49.628C57.6707 49.8427 57.596 50.0527 57.512 50.258C57.3627 50.6313 57.19 50.818 56.994 50.818C56.8353 50.818 56.7047 50.7293 56.602 50.552C56.5087 50.3653 56.462 50.188 56.462 50.02C56.462 49.8427 56.5413 49.4973 56.7 48.984C57.0827 47.808 57.274 46.6647 57.274 45.554ZM66.6548 46.17C66.6548 46.6647 66.3841 47.0707 65.8428 47.388C65.3108 47.696 64.7041 47.85 64.0228 47.85C63.3508 47.85 62.7394 47.7753 62.1888 47.626C62.0581 48.0367 61.9928 48.4053 61.9928 48.732C61.9928 49.0493 62.0908 49.2967 62.2868 49.474C62.4921 49.6513 62.8234 49.74 63.2808 49.74C63.7474 49.74 64.2234 49.6607 64.7088 49.502C65.2034 49.334 65.4741 49.25 65.5208 49.25C65.7634 49.25 65.8848 49.3433 65.8848 49.53C65.8848 49.782 65.6001 50.0573 65.0308 50.356C64.4614 50.6453 63.9061 50.79 63.3648 50.79C62.6368 50.79 62.0441 50.5753 61.5868 50.146C61.1294 49.7073 60.9008 49.1567 60.9008 48.494C60.9008 47.8313 61.0781 47.1407 61.4328 46.422C61.7874 45.694 62.2448 45.0827 62.8048 44.588C63.3648 44.0933 63.9201 43.846 64.4708 43.846C65.0214 43.846 65.5208 44.1073 65.9688 44.63C66.4261 45.1527 66.6548 45.666 66.6548 46.17ZM64.5408 44.952C64.1954 44.952 63.8361 45.134 63.4628 45.498C63.0894 45.8527 62.7721 46.296 62.5108 46.828C62.8841 46.912 63.3088 46.954 63.7848 46.954C64.2608 46.954 64.6761 46.8793 65.0308 46.73C65.3854 46.5713 65.5628 46.366 65.5628 46.114C65.5628 45.862 65.4461 45.6053 65.2128 45.344C64.9888 45.0827 64.7648 44.952 64.5408 44.952ZM69.6255 50.79C69.0842 50.79 68.5755 50.58 68.0995 50.16C67.6235 49.7307 67.3855 49.2267 67.3855 48.648C67.3855 48.06 67.5815 47.3833 67.9735 46.618C68.3655 45.8527 68.8695 45.1993 69.4855 44.658C70.1108 44.1167 70.7175 43.846 71.3055 43.846C71.6882 43.846 72.0242 44.0187 72.3135 44.364C72.6028 44.7093 72.7475 45.0127 72.7475 45.274C72.7475 45.3487 72.7242 45.414 72.6775 45.47C72.6308 45.5167 72.5608 45.54 72.4675 45.54C72.3835 45.54 72.2295 45.456 72.0055 45.288C71.7815 45.12 71.5808 45.036 71.4035 45.036C70.8995 45.036 70.3115 45.4793 69.6395 46.366C68.9675 47.2527 68.6315 48.0273 68.6315 48.69C68.6315 48.9793 68.7202 49.208 68.8975 49.376C69.0842 49.544 69.3782 49.628 69.7795 49.628C70.1902 49.628 70.5635 49.5813 70.8995 49.488C71.2448 49.3853 71.5108 49.2873 71.6975 49.194C71.8842 49.0913 72.0288 49.04 72.1315 49.04C72.3088 49.04 72.3975 49.1287 72.3975 49.306C72.3975 49.5767 72.0708 49.894 71.4175 50.258C70.7735 50.6127 70.1762 50.79 69.6255 50.79ZM77.8339 46.226C77.8339 45.9087 77.7825 45.61 77.6799 45.33C77.5772 45.0407 77.4279 44.8307 77.2319 44.7C76.5879 44.8773 76.0325 45.3767 75.5659 46.198C75.1085 47.01 74.8799 47.7753 74.8799 48.494C74.8799 49.2127 75.0572 49.6607 75.4119 49.838C76.0839 49.7073 76.6532 49.25 77.1199 48.466C77.5959 47.6727 77.8339 46.926 77.8339 46.226ZM74.1519 46.352C74.4785 45.624 74.9032 45.0267 75.4259 44.56C75.9579 44.084 76.4992 43.846 77.0499 43.846C77.6099 43.846 78.0765 44.084 78.4499 44.56C78.8232 45.0267 79.0099 45.6007 79.0099 46.282C79.0099 46.954 78.8465 47.6447 78.5199 48.354C78.1932 49.054 77.7405 49.6373 77.1619 50.104C76.5925 50.5613 75.9859 50.79 75.3419 50.79C74.8659 50.79 74.4692 50.5707 74.1519 50.132C73.8345 49.6933 73.6759 49.138 73.6759 48.466C73.6759 47.7847 73.8345 47.08 74.1519 46.352ZM85.4936 47.01C85.4936 47.3833 85.3303 47.808 85.0036 48.284C84.7516 48.8533 84.481 49.6747 84.1916 50.748C83.9023 51.812 83.6596 52.5727 83.4636 53.03C83.0716 53.982 82.4696 54.458 81.6576 54.458C80.995 54.458 80.435 54.276 79.9776 53.912C79.5296 53.5573 79.3056 53.2027 79.3056 52.848C79.3056 52.6987 79.3523 52.5493 79.4456 52.4C79.5296 52.2507 79.6183 52.176 79.7116 52.176C79.8143 52.176 79.9263 52.246 80.0476 52.386C80.169 52.526 80.281 52.6753 80.3836 52.834C80.4956 53.002 80.659 53.156 80.8736 53.296C81.0976 53.436 81.3123 53.506 81.5176 53.506C81.723 53.506 81.877 53.4733 81.9796 53.408C82.0823 53.352 82.1803 53.254 82.2736 53.114C82.367 52.9833 82.4463 52.848 82.5116 52.708C82.577 52.5773 82.647 52.386 82.7216 52.134C82.8056 51.8913 82.871 51.6813 82.9176 51.504C82.9643 51.3267 83.0296 51.0793 83.1136 50.762C83.1976 50.4353 83.2676 50.174 83.3236 49.978C82.5956 50.5193 82.003 50.79 81.5456 50.79C81.0883 50.79 80.6916 50.608 80.3556 50.244C80.0196 49.8707 79.8516 49.4413 79.8516 48.956C79.8516 48.4613 80.0336 47.808 80.3976 46.996C80.771 46.184 81.2703 45.456 81.8956 44.812C82.521 44.168 83.1323 43.846 83.7296 43.846C84.1123 43.846 84.4343 43.9907 84.6956 44.28C85.125 44.756 85.3396 45.4327 85.3396 46.31C85.3396 46.422 85.335 46.5013 85.3256 46.548C85.4376 46.7067 85.4936 46.8607 85.4936 47.01ZM80.9856 49.096C80.9856 49.2547 81.037 49.3853 81.1396 49.488C81.2423 49.5813 81.373 49.628 81.5316 49.628C81.9983 49.628 82.549 49.3527 83.1836 48.802C83.8183 48.242 84.2663 47.5933 84.5276 46.856C84.4903 46.7347 84.4576 46.548 84.4296 46.296C84.4016 46.044 84.3736 45.8433 84.3456 45.694C84.3176 45.5447 84.257 45.3953 84.1636 45.246C84.0703 45.0873 83.949 45.008 83.7996 45.008C83.4356 45.008 83.025 45.2693 82.5676 45.792C82.1103 46.3147 81.7323 46.898 81.4336 47.542C81.135 48.186 80.9856 48.704 80.9856 49.096ZM87.9662 48.354C88.8622 46.8327 89.5902 45.7033 90.1502 44.966C90.7195 44.2193 91.1815 43.846 91.5362 43.846C91.9002 43.846 92.2408 44.0373 92.5582 44.42C92.8848 44.8027 93.0482 45.2087 93.0482 45.638C93.0482 46.31 92.8942 47.1313 92.5862 48.102C92.0262 49.894 91.5222 50.79 91.0742 50.79C90.8688 50.79 90.7662 50.65 90.7662 50.37C90.7662 50.174 90.8642 49.7773 91.0602 49.18C91.2655 48.5733 91.4522 47.9807 91.6202 47.402C91.7975 46.814 91.8862 46.3753 91.8862 46.086C91.8862 45.7873 91.8395 45.568 91.7462 45.428C91.6622 45.288 91.5735 45.218 91.4802 45.218C91.3962 45.218 91.3075 45.246 91.2142 45.302C91.1208 45.358 91.0135 45.4513 90.8922 45.582C90.7802 45.7127 90.6728 45.8433 90.5702 45.974C90.4675 46.0953 90.3368 46.2727 90.1782 46.506C90.0288 46.7393 89.9028 46.94 89.8002 47.108C89.6975 47.2667 89.5482 47.5 89.3522 47.808C89.1562 48.116 89.0068 48.3493 88.9042 48.508C88.8015 48.6667 88.6662 48.8813 88.4982 49.152C88.3302 49.4227 88.1948 49.6327 88.0922 49.782C87.9988 49.9313 87.8915 50.0947 87.7702 50.272C87.5368 50.6173 87.3502 50.79 87.2102 50.79C87.0795 50.79 86.9255 50.6873 86.7482 50.482C86.5708 50.2673 86.4822 50.0807 86.4822 49.922C86.4822 49.8753 86.5148 49.7493 86.5802 49.544C86.7575 49.0027 86.9535 48.3353 87.1682 47.542C87.3828 46.7393 87.4995 45.8293 87.5182 44.812C87.5462 44.1307 87.6442 43.79 87.8122 43.79C88.0175 43.79 88.2228 43.8973 88.4282 44.112C88.6335 44.3267 88.7362 44.5647 88.7362 44.826C88.7362 45.078 88.6568 45.5727 88.4982 46.31C88.3488 47.038 88.1715 47.7193 87.9662 48.354ZM95.851 41.858C95.851 41.6713 95.9257 41.494 96.075 41.326C96.2243 41.158 96.3737 41.074 96.523 41.074C96.6817 41.074 96.8683 41.2653 97.083 41.648C97.2977 42.0213 97.405 42.334 97.405 42.586C97.405 42.6793 97.363 42.7633 97.279 42.838C97.195 42.9127 97.1063 42.95 97.013 42.95C96.789 42.95 96.537 42.8147 96.257 42.544C95.9863 42.2733 95.851 42.0447 95.851 41.858ZM95.781 43.846C95.9583 43.846 96.1263 43.9533 96.285 44.168C96.4437 44.3827 96.523 44.5927 96.523 44.798C96.523 45.0033 96.3877 45.6193 96.117 46.646C95.8463 47.6633 95.5057 48.8067 95.095 50.076C94.9363 50.5427 94.7357 50.776 94.493 50.776C94.3623 50.776 94.2503 50.7247 94.157 50.622C94.0637 50.51 94.017 50.3887 94.017 50.258C94.017 50.118 94.0497 49.9033 94.115 49.614C94.1897 49.3153 94.2923 48.9233 94.423 48.438C94.563 47.9433 94.6703 47.542 94.745 47.234C94.829 46.926 94.913 46.5807 94.997 46.198C95.081 45.806 95.1463 45.4933 95.193 45.26C95.249 45.0173 95.3097 44.7747 95.375 44.532C95.5057 44.0747 95.641 43.846 95.781 43.846ZM101.399 43.846C101.716 43.846 102.015 44.0233 102.295 44.378C102.575 44.7233 102.715 45.0267 102.715 45.288C102.715 45.4467 102.64 45.526 102.491 45.526C102.388 45.526 102.23 45.4467 102.015 45.288C101.8 45.12 101.581 45.036 101.357 45.036C101.133 45.036 100.778 45.1667 100.293 45.428C99.8169 45.6893 99.5789 45.9647 99.5789 46.254C99.5789 46.4687 100.008 46.8373 100.867 47.36C101.194 47.5653 101.488 47.8313 101.749 48.158C102.02 48.4753 102.155 48.8207 102.155 49.194C102.155 49.558 101.898 49.9173 101.385 50.272C100.881 50.6173 100.288 50.79 99.6069 50.79C98.9349 50.79 98.3376 50.6267 97.8149 50.3C97.3016 49.9733 97.0449 49.6653 97.0449 49.376C97.0449 49.2547 97.0729 49.1613 97.1289 49.096C97.1943 49.0213 97.2736 48.984 97.3669 48.984C97.4603 48.984 97.5909 49.0447 97.7589 49.166C98.2629 49.53 98.7856 49.712 99.3269 49.712C99.8776 49.712 100.274 49.6513 100.517 49.53C100.76 49.3993 100.881 49.2313 100.881 49.026C100.881 48.8113 100.746 48.5873 100.475 48.354C100.204 48.1113 99.9056 47.8967 99.5789 47.71C99.2616 47.5233 98.9676 47.2947 98.6969 47.024C98.4263 46.7533 98.2909 46.478 98.2909 46.198C98.2909 45.7033 98.6783 45.19 99.4529 44.658C100.237 44.1167 100.886 43.846 101.399 43.846ZM107.08 43.846C107.5 43.846 107.887 44.0607 108.242 44.49C108.597 44.91 108.774 45.2927 108.774 45.638C108.774 45.974 108.657 46.3193 108.424 46.674C108.536 46.814 108.592 46.9353 108.592 47.038C108.592 47.2993 108.531 47.7473 108.41 48.382C108.298 49.0167 108.228 49.432 108.2 49.628C108.181 49.824 108.163 49.9827 108.144 50.104C108.125 50.216 108.102 50.328 108.074 50.44C108.037 50.6733 107.953 50.79 107.822 50.79C107.654 50.79 107.514 50.6453 107.402 50.356C107.299 50.0573 107.239 49.6747 107.22 49.208C106.389 50.2627 105.619 50.79 104.91 50.79C104.481 50.79 104.056 50.608 103.636 50.244C103.225 49.8707 103.02 49.488 103.02 49.096C103.02 48.536 103.225 47.8453 103.636 47.024C104.047 46.1933 104.579 45.456 105.232 44.812C105.885 44.168 106.501 43.846 107.08 43.846ZM107.724 46.31C107.724 45.442 107.551 45.008 107.206 45.008C106.842 45.008 106.417 45.2693 105.932 45.792C105.447 46.3053 105.036 46.8887 104.7 47.542C104.364 48.1953 104.196 48.7133 104.196 49.096C104.196 49.2547 104.261 49.3853 104.392 49.488C104.523 49.5813 104.677 49.628 104.854 49.628C105.293 49.628 105.787 49.334 106.338 48.746C106.889 48.1487 107.271 47.4253 107.486 46.576C107.514 46.436 107.593 46.352 107.724 46.324V46.31ZM110.52 50.79C110.39 50.79 110.236 50.692 110.058 50.496C109.881 50.2907 109.792 50.0993 109.792 49.922C109.792 49.7447 109.937 49.138 110.226 48.102C110.525 47.066 110.819 45.82 111.108 44.364C111.407 42.8987 111.556 41.5593 111.556 40.346C111.556 40.066 111.659 39.926 111.864 39.926C112.014 39.926 112.196 40.066 112.41 40.346C112.625 40.6167 112.732 40.8827 112.732 41.144C112.732 42.292 112.48 43.93 111.976 46.058C113.087 44.5553 114.095 43.804 115 43.804C115.439 43.804 115.808 44.0187 116.106 44.448C116.414 44.8773 116.568 45.3907 116.568 45.988C116.568 46.576 116.396 47.2527 116.05 48.018C115.714 48.7833 115.257 49.4413 114.678 49.992C114.1 50.5333 113.493 50.804 112.858 50.804C112.224 50.804 111.598 50.482 110.982 49.838L110.968 49.852C110.763 50.4773 110.614 50.79 110.52 50.79ZM112.746 49.712C113.353 49.712 113.946 49.3013 114.524 48.48C115.112 47.6493 115.406 46.7767 115.406 45.862C115.406 45.3113 115.238 45.036 114.902 45.036C114.361 45.036 113.754 45.414 113.082 46.17C112.42 46.926 111.846 47.8267 111.36 48.872C111.799 49.432 112.261 49.712 112.746 49.712ZM120.032 41.102C120.032 42.8567 119.668 45.134 118.94 47.934C118.473 49.838 118.147 50.79 117.96 50.79C117.829 50.79 117.675 50.6873 117.498 50.482C117.33 50.2767 117.246 50.118 117.246 50.006C117.246 49.894 117.381 49.3153 117.652 48.27C117.923 47.2247 118.193 45.9413 118.464 44.42C118.735 42.8893 118.87 41.5127 118.87 40.29C118.87 40.1593 118.889 40.066 118.926 40.01C118.963 39.954 119.043 39.926 119.164 39.926C119.285 39.926 119.458 40.0613 119.682 40.332C119.915 40.5933 120.032 40.85 120.032 41.102ZM126.291 46.17C126.291 46.6647 126.021 47.0707 125.479 47.388C124.947 47.696 124.341 47.85 123.659 47.85C122.987 47.85 122.376 47.7753 121.825 47.626C121.695 48.0367 121.629 48.4053 121.629 48.732C121.629 49.0493 121.727 49.2967 121.923 49.474C122.129 49.6513 122.46 49.74 122.917 49.74C123.384 49.74 123.86 49.6607 124.345 49.502C124.84 49.334 125.111 49.25 125.157 49.25C125.4 49.25 125.521 49.3433 125.521 49.53C125.521 49.782 125.237 50.0573 124.667 50.356C124.098 50.6453 123.543 50.79 123.001 50.79C122.273 50.79 121.681 50.5753 121.223 50.146C120.766 49.7073 120.537 49.1567 120.537 48.494C120.537 47.8313 120.715 47.1407 121.069 46.422C121.424 45.694 121.881 45.0827 122.441 44.588C123.001 44.0933 123.557 43.846 124.107 43.846C124.658 43.846 125.157 44.1073 125.605 44.63C126.063 45.1527 126.291 45.666 126.291 46.17ZM124.177 44.952C123.832 44.952 123.473 45.134 123.099 45.498C122.726 45.8527 122.409 46.296 122.147 46.828C122.521 46.912 122.945 46.954 123.421 46.954C123.897 46.954 124.313 46.8793 124.667 46.73C125.022 46.5713 125.199 46.366 125.199 46.114C125.199 45.862 125.083 45.6053 124.849 45.344C124.625 45.0827 124.401 44.952 124.177 44.952Z" fill="#1C1B1A"/>
<path d="M52 36C28 40 12 42 0 38L52 36Z" fill="black"/>
<path d="M0 38L6 34V44L0 38Z" fill="#1C1B1A"/>
</svg>
