<svg width="122" height="40" viewBox="0 0 122 40" fill="none" xmlns="http://www.w3.org/2000/svg">
<path d="M3.976 6.152L1.582 6.264C1.43267 6.264 1.27867 6.166 1.12 5.97C0.961333 5.774 0.882 5.58267 0.882 5.396C0.882 5.228 1.148 5.12067 1.68 5.074C2.22133 5.02733 3.402 5.004 5.222 5.004C6.16467 5.004 6.93933 5.10667 7.546 5.312C8.162 5.51733 8.47 5.746 8.47 5.998C8.47 6.17533 8.316 6.264 8.008 6.264C7.7 6.264 7.27067 6.24533 6.72 6.208C6.16933 6.17067 5.642 6.14733 5.138 6.138C5.166 6.23133 5.18 6.334 5.18 6.446C5.18 6.79133 4.816 8.39667 4.088 11.262C4.01333 11.5607 3.90133 12.0273 3.752 12.662C3.60267 13.2967 3.49067 13.74 3.416 13.992C3.28533 14.4867 3.16867 14.734 3.066 14.734C2.926 14.734 2.76733 14.6313 2.59 14.426C2.422 14.2113 2.338 13.9967 2.338 13.782C2.338 13.5673 2.59 12.466 3.094 10.478C3.598 8.48067 3.892 7.03867 3.976 6.152ZM8.76619 9.554L8.72419 8.504C8.72419 8.06533 8.82685 7.846 9.03219 7.846C9.20952 7.846 9.37752 7.96267 9.53619 8.196C9.70419 8.42 9.78819 8.69067 9.78819 9.008C9.78819 9.316 9.77885 9.54933 9.76019 9.708C10.5722 8.476 11.3422 7.86 12.0702 7.86C12.5275 7.86 12.7562 7.972 12.7562 8.196C12.7562 8.308 12.7049 8.41067 12.6022 8.504C12.4995 8.59733 12.3362 8.70467 12.1122 8.826C11.6175 9.04067 11.1975 9.372 10.8522 9.82C10.5162 10.2587 10.2409 10.758 10.0262 11.318C9.81152 11.878 9.63885 12.3493 9.50819 12.732C9.38685 13.1147 9.29352 13.4133 9.22819 13.628C9.16285 13.8427 9.08819 14.0527 9.00419 14.258C8.85485 14.6313 8.68219 14.818 8.48619 14.818C8.32752 14.818 8.19685 14.7293 8.09419 14.552C8.00085 14.3653 7.95419 14.188 7.95419 14.02C7.95419 13.8427 8.03352 13.4973 8.19219 12.984C8.57485 11.808 8.76619 10.6647 8.76619 9.554ZM16.285 7.846C16.705 7.846 17.0923 8.06067 17.447 8.49C17.8016 8.91 17.979 9.29267 17.979 9.638C17.979 9.974 17.8623 10.3193 17.629 10.674C17.741 10.814 17.797 10.9353 17.797 11.038C17.797 11.2993 17.7363 11.7473 17.615 12.382C17.503 13.0167 17.433 13.432 17.405 13.628C17.3863 13.824 17.3676 13.9827 17.349 14.104C17.3303 14.216 17.307 14.328 17.279 14.44C17.2416 14.6733 17.1576 14.79 17.027 14.79C16.859 14.79 16.719 14.6453 16.607 14.356C16.5043 14.0573 16.4436 13.6747 16.425 13.208C15.5943 14.2627 14.8243 14.79 14.115 14.79C13.6856 14.79 13.261 14.608 12.841 14.244C12.4303 13.8707 12.225 13.488 12.225 13.096C12.225 12.536 12.4303 11.8453 12.841 11.024C13.2516 10.1933 13.7836 9.456 14.437 8.812C15.0903 8.168 15.7063 7.846 16.285 7.846ZM16.929 10.31C16.929 9.442 16.7563 9.008 16.411 9.008C16.047 9.008 15.6223 9.26933 15.137 9.792C14.6516 10.3053 14.241 10.8887 13.905 11.542C13.569 12.1953 13.401 12.7133 13.401 13.096C13.401 13.2547 13.4663 13.3853 13.597 13.488C13.7276 13.5813 13.8816 13.628 14.059 13.628C14.4976 13.628 14.9923 13.334 15.543 12.746C16.0936 12.1487 16.4763 11.4253 16.691 10.576C16.719 10.436 16.7983 10.352 16.929 10.324V10.31ZM20.9155 5.858C20.9155 5.67133 20.9901 5.494 21.1395 5.326C21.2888 5.158 21.4381 5.074 21.5875 5.074C21.7461 5.074 21.9328 5.26533 22.1475 5.648C22.3621 6.02133 22.4695 6.334 22.4695 6.586C22.4695 6.67933 22.4275 6.76333 22.3435 6.838C22.2595 6.91267 22.1708 6.95 22.0775 6.95C21.8535 6.95 21.6015 6.81467 21.3215 6.544C21.0508 6.27333 20.9155 6.04467 20.9155 5.858ZM20.8455 7.846C21.0228 7.846 21.1908 7.95333 21.3495 8.168C21.5081 8.38267 21.5875 8.59267 21.5875 8.798C21.5875 9.00333 21.4521 9.61933 21.1815 10.646C20.9108 11.6633 20.5701 12.8067 20.1595 14.076C20.0008 14.5427 19.8001 14.776 19.5575 14.776C19.4268 14.776 19.3148 14.7247 19.2215 14.622C19.1281 14.51 19.0815 14.3887 19.0815 14.258C19.0815 14.118 19.1141 13.9033 19.1795 13.614C19.2541 13.3153 19.3568 12.9233 19.4875 12.438C19.6275 11.9433 19.7348 11.542 19.8095 11.234C19.8935 10.926 19.9775 10.5807 20.0615 10.198C20.1455 9.806 20.2108 9.49333 20.2575 9.26C20.3135 9.01733 20.3741 8.77467 20.4395 8.532C20.5701 8.07467 20.7055 7.846 20.8455 7.846ZM23.8314 12.354C24.7274 10.8327 25.4554 9.70333 26.0154 8.966C26.5847 8.21933 27.0467 7.846 27.4014 7.846C27.7654 7.846 28.1061 8.03733 28.4234 8.42C28.7501 8.80267 28.9134 9.20867 28.9134 9.638C28.9134 10.31 28.7594 11.1313 28.4514 12.102C27.8914 13.894 27.3874 14.79 26.9394 14.79C26.7341 14.79 26.6314 14.65 26.6314 14.37C26.6314 14.174 26.7294 13.7773 26.9254 13.18C27.1307 12.5733 27.3174 11.9807 27.4854 11.402C27.6627 10.814 27.7514 10.3753 27.7514 10.086C27.7514 9.78733 27.7047 9.568 27.6114 9.428C27.5274 9.288 27.4387 9.218 27.3454 9.218C27.2614 9.218 27.1727 9.246 27.0794 9.302C26.9861 9.358 26.8787 9.45133 26.7574 9.582C26.6454 9.71267 26.5381 9.84333 26.4354 9.974C26.3327 10.0953 26.2021 10.2727 26.0434 10.506C25.8941 10.7393 25.7681 10.94 25.6654 11.108C25.5627 11.2667 25.4134 11.5 25.2174 11.808C25.0214 12.116 24.8721 12.3493 24.7694 12.508C24.6667 12.6667 24.5314 12.8813 24.3634 13.152C24.1954 13.4227 24.0601 13.6327 23.9574 13.782C23.8641 13.9313 23.7567 14.0947 23.6354 14.272C23.4021 14.6173 23.2154 14.79 23.0754 14.79C22.9447 14.79 22.7907 14.6873 22.6134 14.482C22.4361 14.2673 22.3474 14.0807 22.3474 13.922C22.3474 13.8753 22.3801 13.7493 22.4454 13.544C22.6227 13.0027 22.8187 12.3353 23.0334 11.542C23.2481 10.7393 23.3647 9.82933 23.3834 8.812C23.4114 8.13067 23.5094 7.79 23.6774 7.79C23.8827 7.79 24.0881 7.89733 24.2934 8.112C24.4987 8.32667 24.6014 8.56467 24.6014 8.826C24.6014 9.078 24.5221 9.57267 24.3634 10.31C24.2141 11.038 24.0367 11.7193 23.8314 12.354ZM35.5102 10.17C35.5102 10.6647 35.2396 11.0707 34.6982 11.388C34.1662 11.696 33.5596 11.85 32.8782 11.85C32.2062 11.85 31.5949 11.7753 31.0442 11.626C30.9136 12.0367 30.8482 12.4053 30.8482 12.732C30.8482 13.0493 30.9462 13.2967 31.1422 13.474C31.3476 13.6513 31.6789 13.74 32.1362 13.74C32.6029 13.74 33.0789 13.6607 33.5642 13.502C34.0589 13.334 34.3296 13.25 34.3762 13.25C34.6189 13.25 34.7402 13.3433 34.7402 13.53C34.7402 13.782 34.4556 14.0573 33.8862 14.356C33.3169 14.6453 32.7616 14.79 32.2202 14.79C31.4922 14.79 30.8996 14.5753 30.4422 14.146C29.9849 13.7073 29.7562 13.1567 29.7562 12.494C29.7562 11.8313 29.9336 11.1407 30.2882 10.422C30.6429 9.694 31.1002 9.08267 31.6602 8.588C32.2202 8.09333 32.7756 7.846 33.3262 7.846C33.8769 7.846 34.3762 8.10733 34.8242 8.63C35.2816 9.15267 35.5102 9.666 35.5102 10.17ZM33.3962 8.952C33.0509 8.952 32.6916 9.134 32.3182 9.498C31.9449 9.85267 31.6276 10.296 31.3662 10.828C31.7396 10.912 32.1642 10.954 32.6402 10.954C33.1162 10.954 33.5316 10.8793 33.8862 10.73C34.2409 10.5713 34.4182 10.366 34.4182 10.114C34.4182 9.862 34.3016 9.60533 34.0682 9.344C33.8442 9.08267 33.6202 8.952 33.3962 8.952ZM41.813 10.17C41.813 10.6647 41.5423 11.0707 41.001 11.388C40.469 11.696 39.8623 11.85 39.181 11.85C38.509 11.85 37.8976 11.7753 37.347 11.626C37.2163 12.0367 37.151 12.4053 37.151 12.732C37.151 13.0493 37.249 13.2967 37.445 13.474C37.6503 13.6513 37.9816 13.74 38.439 13.74C38.9056 13.74 39.3816 13.6607 39.867 13.502C40.3616 13.334 40.6323 13.25 40.679 13.25C40.9216 13.25 41.043 13.3433 41.043 13.53C41.043 13.782 40.7583 14.0573 40.189 14.356C39.6196 14.6453 39.0643 14.79 38.523 14.79C37.795 14.79 37.2023 14.5753 36.745 14.146C36.2876 13.7073 36.059 13.1567 36.059 12.494C36.059 11.8313 36.2363 11.1407 36.591 10.422C36.9456 9.694 37.403 9.08267 37.963 8.588C38.523 8.09333 39.0783 7.846 39.629 7.846C40.1796 7.846 40.679 8.10733 41.127 8.63C41.5843 9.15267 41.813 9.666 41.813 10.17ZM39.699 8.952C39.3536 8.952 38.9943 9.134 38.621 9.498C38.2476 9.85267 37.9303 10.296 37.669 10.828C38.0423 10.912 38.467 10.954 38.943 10.954C39.419 10.954 39.8343 10.8793 40.189 10.73C40.5436 10.5713 40.721 10.366 40.721 10.114C40.721 9.862 40.6043 9.60533 40.371 9.344C40.147 9.08267 39.923 8.952 39.699 8.952ZM53.7768 9.33L53.6788 11.962C53.6788 12.69 53.7115 13.2173 53.7768 13.544C54.1782 13.124 54.5235 12.634 54.8128 12.074C55.1115 11.5047 55.3308 10.9773 55.4708 10.492C55.6202 10.0067 55.7462 9.554 55.8488 9.134C55.9608 8.70467 56.0635 8.364 56.1568 8.112C56.2502 7.86 56.3575 7.734 56.4788 7.734C56.6562 7.734 56.8148 7.80867 56.9548 7.958C57.0948 8.098 57.1648 8.26133 57.1648 8.448C57.1648 8.924 56.9502 9.708 56.5208 10.8C56.1568 11.808 55.6808 12.732 55.0928 13.572C54.5048 14.4027 54.0475 14.818 53.7208 14.818C53.3942 14.818 53.1468 14.636 52.9788 14.272C52.8202 13.908 52.7315 13.2127 52.7128 12.186C52.6942 11.15 52.7082 10.254 52.7548 9.498C52.1108 11.2527 51.5415 12.578 51.0468 13.474C50.5522 14.37 50.1602 14.818 49.8708 14.818C49.7402 14.818 49.6002 14.7573 49.4508 14.636C49.3108 14.5147 49.1988 14.356 49.1148 14.16C48.9095 13.6653 48.7322 12.7227 48.5828 11.332C48.4428 9.932 48.3728 8.93333 48.3728 8.336C48.3728 7.95333 48.4895 7.762 48.7228 7.762C48.9282 7.762 49.1148 7.87867 49.2828 8.112C49.4602 8.34533 49.5628 8.57867 49.5908 8.812C49.6188 9.036 49.6422 9.67067 49.6608 10.716C49.6888 11.752 49.7775 12.676 49.9268 13.488C50.3095 12.8253 50.6922 11.9947 51.0748 10.996C51.4668 9.99733 51.7842 9.21333 52.0268 8.644C52.2788 8.07467 52.5075 7.79 52.7128 7.79C53.0208 7.79 53.2728 7.93467 53.4688 8.224C53.6742 8.504 53.7768 8.87267 53.7768 9.33ZM59.3608 5.858C59.3608 5.67133 59.4354 5.494 59.5848 5.326C59.7341 5.158 59.8834 5.074 60.0328 5.074C60.1914 5.074 60.3781 5.26533 60.5928 5.648C60.8074 6.02133 60.9148 6.334 60.9148 6.586C60.9148 6.67933 60.8728 6.76333 60.7888 6.838C60.7048 6.91267 60.6161 6.95 60.5228 6.95C60.2988 6.95 60.0468 6.81467 59.7668 6.544C59.4961 6.27333 59.3608 6.04467 59.3608 5.858ZM59.2908 7.846C59.4681 7.846 59.6361 7.95333 59.7948 8.168C59.9534 8.38267 60.0328 8.59267 60.0328 8.798C60.0328 9.00333 59.8974 9.61933 59.6268 10.646C59.3561 11.6633 59.0154 12.8067 58.6048 14.076C58.4461 14.5427 58.2454 14.776 58.0028 14.776C57.8721 14.776 57.7601 14.7247 57.6668 14.622C57.5734 14.51 57.5268 14.3887 57.5268 14.258C57.5268 14.118 57.5594 13.9033 57.6248 13.614C57.6994 13.3153 57.8021 12.9233 57.9328 12.438C58.0728 11.9433 58.1801 11.542 58.2548 11.234C58.3388 10.926 58.4228 10.5807 58.5068 10.198C58.5908 9.806 58.6561 9.49333 58.7028 9.26C58.7588 9.01733 58.8194 8.77467 58.8848 8.532C59.0154 8.07467 59.1508 7.846 59.2908 7.846ZM62.4727 13.39C62.4727 13.5673 62.5754 13.656 62.7807 13.656C63.1354 13.656 63.5647 13.558 64.0687 13.362C64.582 13.1567 64.8667 13.054 64.9227 13.054C65.0907 13.054 65.1747 13.1427 65.1747 13.32C65.1747 13.5907 64.8947 13.9033 64.3347 14.258C63.784 14.6127 63.28 14.79 62.8227 14.79C62.3747 14.79 62.0014 14.6687 61.7027 14.426C61.404 14.174 61.2547 13.9173 61.2547 13.656C61.2547 13.3947 61.3107 13.0633 61.4227 12.662C61.5347 12.2513 61.6934 11.7147 61.8987 11.052C62.1134 10.38 62.2814 9.82467 62.4027 9.386C61.964 9.48867 61.67 9.54 61.5207 9.54C61.3714 9.54 61.222 9.46533 61.0727 9.316C60.9327 9.15733 60.8627 9.008 60.8627 8.868C60.8627 8.644 61.4694 8.42933 62.6827 8.224C62.8507 7.44933 62.9347 6.76333 62.9347 6.166C62.9347 5.886 63.028 5.746 63.2147 5.746C63.3734 5.746 63.5694 5.84867 63.8027 6.054C64.036 6.25 64.1527 6.474 64.1527 6.726C64.1527 6.978 64.0734 7.42133 63.9147 8.056C64.4467 8.00933 64.8714 7.986 65.1887 7.986C65.7487 7.986 66.0287 8.10733 66.0287 8.35C66.0287 8.49 65.8747 8.60667 65.5667 8.7C65.268 8.79333 64.6334 8.938 63.6627 9.134C63.4667 9.87133 63.2194 10.716 62.9207 11.668C62.622 12.6107 62.4727 13.1847 62.4727 13.39ZM67.9708 4.472C67.9708 4.108 68.0828 3.926 68.3068 3.926C68.4841 3.926 68.6708 4.066 68.8668 4.346C69.0721 4.626 69.1748 4.89667 69.1748 5.158C69.1748 5.76467 69.0208 6.80067 68.7128 8.266C68.4141 9.722 68.0221 11.178 67.5368 12.634C68.4701 10.9447 69.2494 9.72667 69.8748 8.98C70.5094 8.224 71.0508 7.846 71.4988 7.846C71.7414 7.846 72.0214 8.056 72.3388 8.476C72.6654 8.896 72.8288 9.316 72.8288 9.736C72.8288 10.156 72.7121 10.786 72.4788 11.626C71.9001 13.7353 71.3541 14.79 70.8408 14.79C70.6354 14.79 70.5328 14.65 70.5328 14.37C70.5328 14.09 70.6448 13.6187 70.8688 12.956C71.3634 11.5093 71.6108 10.534 71.6108 10.03C71.6108 9.862 71.5688 9.722 71.4848 9.61C71.4008 9.498 71.2981 9.442 71.1768 9.442C71.0554 9.442 70.9061 9.50733 70.7288 9.638C70.5514 9.76867 70.3368 9.99733 70.0848 10.324C69.7674 10.744 69.4361 11.2153 69.0908 11.738C68.7548 12.2607 68.5494 12.578 68.4748 12.69C68.4094 12.7927 68.2881 12.984 68.1108 13.264C67.9428 13.544 67.8168 13.754 67.7328 13.894C67.6488 14.0247 67.5461 14.1693 67.4248 14.328C67.2101 14.636 67.0468 14.79 66.9348 14.79C66.8228 14.79 66.6734 14.6873 66.4868 14.482C66.3001 14.2673 66.2068 14.09 66.2068 13.95C66.2068 13.8007 66.2581 13.5253 66.3608 13.124C66.8274 11.332 67.1214 10.1047 67.2428 9.442C67.7281 7.01533 67.9708 5.35867 67.9708 4.472Z" fill="#1C1B1A"/>
<path d="M4.158 25.846C4.578 25.846 4.96533 26.0607 5.32 26.49C5.67467 26.91 5.852 27.2927 5.852 27.638C5.852 27.974 5.73533 28.3193 5.502 28.674C5.614 28.814 5.67 28.9353 5.67 29.038C5.67 29.2993 5.60933 29.7473 5.488 30.382C5.376 31.0167 5.306 31.432 5.278 31.628C5.25933 31.824 5.24067 31.9827 5.222 32.104C5.20333 32.216 5.18 32.328 5.152 32.44C5.11467 32.6733 5.03067 32.79 4.9 32.79C4.732 32.79 4.592 32.6453 4.48 32.356C4.37733 32.0573 4.31667 31.6747 4.298 31.208C3.46733 32.2627 2.69733 32.79 1.988 32.79C1.55867 32.79 1.134 32.608 0.714 32.244C0.303333 31.8707 0.098 31.488 0.098 31.096C0.098 30.536 0.303333 29.8453 0.714 29.024C1.12467 28.1933 1.65667 27.456 2.31 26.812C2.96333 26.168 3.57933 25.846 4.158 25.846ZM4.802 28.31C4.802 27.442 4.62933 27.008 4.284 27.008C3.92 27.008 3.49533 27.2693 3.01 27.792C2.52467 28.3053 2.114 28.8887 1.778 29.542C1.442 30.1953 1.274 30.7133 1.274 31.096C1.274 31.2547 1.33933 31.3853 1.47 31.488C1.60067 31.5813 1.75467 31.628 1.932 31.628C2.37067 31.628 2.86533 31.334 3.416 30.746C3.96667 30.1487 4.34933 29.4253 4.564 28.576C4.592 28.436 4.67133 28.352 4.802 28.324V28.31ZM12.5405 29.01C12.5405 29.3833 12.3772 29.808 12.0505 30.284C11.7985 30.8533 11.5278 31.6747 11.2385 32.748C10.9492 33.812 10.7065 34.5727 10.5105 35.03C10.1185 35.982 9.5165 36.458 8.7045 36.458C8.04183 36.458 7.48183 36.276 7.0245 35.912C6.5765 35.5573 6.3525 35.2027 6.3525 34.848C6.3525 34.6987 6.39917 34.5493 6.4925 34.4C6.5765 34.2507 6.66517 34.176 6.7585 34.176C6.86117 34.176 6.97317 34.246 7.0945 34.386C7.21583 34.526 7.32783 34.6753 7.4305 34.834C7.5425 35.002 7.70583 35.156 7.9205 35.296C8.1445 35.436 8.35917 35.506 8.5645 35.506C8.76983 35.506 8.92383 35.4733 9.0265 35.408C9.12917 35.352 9.22717 35.254 9.3205 35.114C9.41383 34.9833 9.49317 34.848 9.5585 34.708C9.62383 34.5773 9.69383 34.386 9.7685 34.134C9.8525 33.8913 9.91783 33.6813 9.9645 33.504C10.0112 33.3267 10.0765 33.0793 10.1605 32.762C10.2445 32.4353 10.3145 32.174 10.3705 31.978C9.6425 32.5193 9.04983 32.79 8.5925 32.79C8.13517 32.79 7.7385 32.608 7.4025 32.244C7.0665 31.8707 6.8985 31.4413 6.8985 30.956C6.8985 30.4613 7.0805 29.808 7.4445 28.996C7.81783 28.184 8.31717 27.456 8.9425 26.812C9.56783 26.168 10.1792 25.846 10.7765 25.846C11.1592 25.846 11.4812 25.9907 11.7425 26.28C12.1718 26.756 12.3865 27.4327 12.3865 28.31C12.3865 28.422 12.3818 28.5013 12.3725 28.548C12.4845 28.7067 12.5405 28.8607 12.5405 29.01ZM8.0325 31.096C8.0325 31.2547 8.08383 31.3853 8.1865 31.488C8.28917 31.5813 8.41983 31.628 8.5785 31.628C9.04517 31.628 9.59583 31.3527 10.2305 30.802C10.8652 30.242 11.3132 29.5933 11.5745 28.856C11.5372 28.7347 11.5045 28.548 11.4765 28.296C11.4485 28.044 11.4205 27.8433 11.3925 27.694C11.3645 27.5447 11.3038 27.3953 11.2105 27.246C11.1172 27.0873 10.9958 27.008 10.8465 27.008C10.4825 27.008 10.0718 27.2693 9.6145 27.792C9.15717 28.3147 8.77917 28.898 8.4805 29.542C8.18183 30.186 8.0325 30.704 8.0325 31.096ZM19.227 28.17C19.227 28.6647 18.9564 29.0707 18.415 29.388C17.883 29.696 17.2764 29.85 16.595 29.85C15.923 29.85 15.3117 29.7753 14.761 29.626C14.6304 30.0367 14.565 30.4053 14.565 30.732C14.565 31.0493 14.663 31.2967 14.859 31.474C15.0644 31.6513 15.3957 31.74 15.853 31.74C16.3197 31.74 16.7957 31.6607 17.281 31.502C17.7757 31.334 18.0464 31.25 18.093 31.25C18.3357 31.25 18.457 31.3433 18.457 31.53C18.457 31.782 18.1724 32.0573 17.603 32.356C17.0337 32.6453 16.4784 32.79 15.937 32.79C15.209 32.79 14.6164 32.5753 14.159 32.146C13.7017 31.7073 13.473 31.1567 13.473 30.494C13.473 29.8313 13.6504 29.1407 14.005 28.422C14.3597 27.694 14.817 27.0827 15.377 26.588C15.937 26.0933 16.4924 25.846 17.043 25.846C17.5937 25.846 18.093 26.1073 18.541 26.63C18.9984 27.1527 19.227 27.666 19.227 28.17ZM17.113 26.952C16.7677 26.952 16.4084 27.134 16.035 27.498C15.6617 27.8527 15.3444 28.296 15.083 28.828C15.4564 28.912 15.881 28.954 16.357 28.954C16.833 28.954 17.2484 28.8793 17.603 28.73C17.9577 28.5713 18.135 28.366 18.135 28.114C18.135 27.862 18.0184 27.6053 17.785 27.344C17.561 27.0827 17.337 26.952 17.113 26.952ZM29.5669 25.846C29.8842 25.846 30.1829 26.0233 30.4629 26.378C30.7429 26.7233 30.8829 27.0267 30.8829 27.288C30.8829 27.4467 30.8082 27.526 30.6589 27.526C30.5562 27.526 30.3976 27.4467 30.1829 27.288C29.9682 27.12 29.7489 27.036 29.5249 27.036C29.3009 27.036 28.9462 27.1667 28.4609 27.428C27.9849 27.6893 27.7469 27.9647 27.7469 28.254C27.7469 28.4687 28.1762 28.8373 29.0349 29.36C29.3616 29.5653 29.6556 29.8313 29.9169 30.158C30.1876 30.4753 30.3229 30.8207 30.3229 31.194C30.3229 31.558 30.0662 31.9173 29.5529 32.272C29.0489 32.6173 28.4562 32.79 27.7749 32.79C27.1029 32.79 26.5056 32.6267 25.9829 32.3C25.4696 31.9733 25.2129 31.6653 25.2129 31.376C25.2129 31.2547 25.2409 31.1613 25.2969 31.096C25.3622 31.0213 25.4416 30.984 25.5349 30.984C25.6282 30.984 25.7589 31.0447 25.9269 31.166C26.4309 31.53 26.9536 31.712 27.4949 31.712C28.0456 31.712 28.4422 31.6513 28.6849 31.53C28.9276 31.3993 29.0489 31.2313 29.0489 31.026C29.0489 30.8113 28.9136 30.5873 28.6429 30.354C28.3722 30.1113 28.0736 29.8967 27.7469 29.71C27.4296 29.5233 27.1356 29.2947 26.8649 29.024C26.5942 28.7533 26.4589 28.478 26.4589 28.198C26.4589 27.7033 26.8462 27.19 27.6209 26.658C28.4049 26.1167 29.0536 25.846 29.5669 25.846ZM33.3158 23.858C33.3158 23.6713 33.3905 23.494 33.5398 23.326C33.6892 23.158 33.8385 23.074 33.9878 23.074C34.1465 23.074 34.3332 23.2653 34.5478 23.648C34.7625 24.0213 34.8698 24.334 34.8698 24.586C34.8698 24.6793 34.8278 24.7633 34.7438 24.838C34.6598 24.9127 34.5712 24.95 34.4778 24.95C34.2538 24.95 34.0018 24.8147 33.7218 24.544C33.4512 24.2733 33.3158 24.0447 33.3158 23.858ZM33.2458 25.846C33.4232 25.846 33.5912 25.9533 33.7498 26.168C33.9085 26.3827 33.9878 26.5927 33.9878 26.798C33.9878 27.0033 33.8525 27.6193 33.5818 28.646C33.3112 29.6633 32.9705 30.8067 32.5598 32.076C32.4012 32.5427 32.2005 32.776 31.9578 32.776C31.8272 32.776 31.7152 32.7247 31.6218 32.622C31.5285 32.51 31.4818 32.3887 31.4818 32.258C31.4818 32.118 31.5145 31.9033 31.5798 31.614C31.6545 31.3153 31.7572 30.9233 31.8878 30.438C32.0278 29.9433 32.1352 29.542 32.2098 29.234C32.2938 28.926 32.3778 28.5807 32.4618 28.198C32.5458 27.806 32.6112 27.4933 32.6578 27.26C32.7138 27.0173 32.7745 26.7747 32.8398 26.532C32.9705 26.0747 33.1058 25.846 33.2458 25.846ZM43.9178 25.846C44.1978 25.846 44.4451 26.042 44.6598 26.434C44.8838 26.8167 44.9958 27.2553 44.9958 27.75C44.9958 28.2353 44.9071 28.87 44.7298 29.654C44.5618 30.438 44.3331 31.1567 44.0438 31.81C43.7544 32.4633 43.4698 32.79 43.1898 32.79C42.9938 32.79 42.8958 32.664 42.8958 32.412C42.8958 32.1507 43.0544 31.5207 43.3718 30.522C43.6984 29.514 43.8618 28.716 43.8618 28.128C43.8618 27.5307 43.7684 27.232 43.5818 27.232C43.3484 27.232 43.0778 27.4373 42.7698 27.848C42.4711 28.2587 42.1491 28.7533 41.8038 29.332C41.4584 29.9107 41.2718 30.2233 41.2438 30.27C41.2158 30.3073 41.1784 30.3633 41.1318 30.438C41.0944 30.5127 41.0478 30.592 40.9918 30.676C40.9451 30.76 40.8144 31.012 40.5998 31.432C40.3944 31.852 40.2124 32.1833 40.0538 32.426C39.8951 32.6593 39.7551 32.776 39.6338 32.776C39.5218 32.776 39.3958 32.7013 39.2558 32.552C39.1158 32.4027 39.0458 32.2627 39.0458 32.132C39.0458 32.0013 39.1298 31.7307 39.2978 31.32C39.7831 30.1067 40.0258 28.9773 40.0258 27.932C40.0258 27.736 39.9838 27.5727 39.8998 27.442C39.8158 27.302 39.7224 27.232 39.6198 27.232C39.5171 27.232 39.4098 27.2787 39.2978 27.372C39.1858 27.456 39.0458 27.6147 38.8778 27.848C38.7098 28.072 38.5604 28.2867 38.4298 28.492C38.2991 28.6973 38.0984 29.0193 37.8278 29.458C37.5664 29.8873 37.3658 30.2093 37.2258 30.424C37.0951 30.6293 36.9411 30.872 36.7638 31.152C36.5864 31.4227 36.4464 31.6327 36.3438 31.782C36.2504 31.9313 36.1431 32.0947 36.0218 32.272C35.7698 32.6173 35.5831 32.79 35.4618 32.79C35.3498 32.79 35.2004 32.6873 35.0138 32.482C34.8271 32.2673 34.7338 32.1087 34.7338 32.006C34.7338 31.894 34.7524 31.7587 34.7898 31.6C34.8271 31.4413 34.8644 31.2873 34.9018 31.138C34.9484 30.9887 35.0138 30.7693 35.0978 30.48C35.1911 30.1813 35.2938 29.836 35.4058 29.444C35.5271 29.0427 35.6158 28.4967 35.6718 27.806C35.7371 27.106 35.7838 26.5973 35.8118 26.28C35.8398 25.9533 35.9191 25.79 36.0498 25.79C36.2551 25.79 36.4558 25.8973 36.6518 26.112C36.8571 26.3267 36.9598 26.5413 36.9598 26.756C36.9598 27.5773 36.6518 28.9307 36.0358 30.816C37.0811 28.856 37.7391 27.694 38.0098 27.33C38.2804 26.966 38.5138 26.672 38.7098 26.448C39.0738 26.0467 39.4424 25.846 39.8158 25.846C40.0398 25.846 40.3058 26.042 40.6138 26.434C40.9311 26.8167 41.0898 27.204 41.0898 27.596C41.0898 27.988 41.0338 28.4733 40.9218 29.052C42.0231 26.9147 43.0218 25.846 43.9178 25.846ZM47.7944 23.858C47.7944 23.6713 47.869 23.494 48.0184 23.326C48.1677 23.158 48.317 23.074 48.4664 23.074C48.625 23.074 48.8117 23.2653 49.0264 23.648C49.241 24.0213 49.3484 24.334 49.3484 24.586C49.3484 24.6793 49.3064 24.7633 49.2224 24.838C49.1384 24.9127 49.0497 24.95 48.9564 24.95C48.7324 24.95 48.4804 24.8147 48.2004 24.544C47.9297 24.2733 47.7944 24.0447 47.7944 23.858ZM47.7244 25.846C47.9017 25.846 48.0697 25.9533 48.2284 26.168C48.387 26.3827 48.4664 26.5927 48.4664 26.798C48.4664 27.0033 48.331 27.6193 48.0604 28.646C47.7897 29.6633 47.449 30.8067 47.0384 32.076C46.8797 32.5427 46.679 32.776 46.4364 32.776C46.3057 32.776 46.1937 32.7247 46.1004 32.622C46.007 32.51 45.9604 32.3887 45.9604 32.258C45.9604 32.118 45.993 31.9033 46.0584 31.614C46.133 31.3153 46.2357 30.9233 46.3664 30.438C46.5064 29.9433 46.6137 29.542 46.6884 29.234C46.7724 28.926 46.8564 28.5807 46.9404 28.198C47.0244 27.806 47.0897 27.4933 47.1364 27.26C47.1924 27.0173 47.253 26.7747 47.3184 26.532C47.449 26.0747 47.5844 25.846 47.7244 25.846ZM52.0963 23.102C52.0963 24.8567 51.7323 27.134 51.0043 29.934C50.5376 31.838 50.211 32.79 50.0243 32.79C49.8936 32.79 49.7396 32.6873 49.5623 32.482C49.3943 32.2767 49.3103 32.118 49.3103 32.006C49.3103 31.894 49.4456 31.3153 49.7163 30.27C49.987 29.2247 50.2576 27.9413 50.5283 26.42C50.799 24.8893 50.9343 23.5127 50.9343 22.29C50.9343 22.1593 50.953 22.066 50.9903 22.01C51.0276 21.954 51.107 21.926 51.2283 21.926C51.3496 21.926 51.5223 22.0613 51.7463 22.332C51.9796 22.5933 52.0963 22.85 52.0963 23.102ZM56.4939 25.846C56.9139 25.846 57.3013 26.0607 57.6559 26.49C58.0106 26.91 58.1879 27.2927 58.1879 27.638C58.1879 27.974 58.0713 28.3193 57.8379 28.674C57.9499 28.814 58.0059 28.9353 58.0059 29.038C58.0059 29.2993 57.9453 29.7473 57.8239 30.382C57.7119 31.0167 57.6419 31.432 57.6139 31.628C57.5953 31.824 57.5766 31.9827 57.5579 32.104C57.5393 32.216 57.5159 32.328 57.4879 32.44C57.4506 32.6733 57.3666 32.79 57.2359 32.79C57.0679 32.79 56.9279 32.6453 56.8159 32.356C56.7133 32.0573 56.6526 31.6747 56.6339 31.208C55.8033 32.2627 55.0333 32.79 54.3239 32.79C53.8946 32.79 53.4699 32.608 53.0499 32.244C52.6393 31.8707 52.4339 31.488 52.4339 31.096C52.4339 30.536 52.6393 29.8453 53.0499 29.024C53.4606 28.1933 53.9926 27.456 54.6459 26.812C55.2993 26.168 55.9153 25.846 56.4939 25.846ZM57.1379 28.31C57.1379 27.442 56.9653 27.008 56.6199 27.008C56.2559 27.008 55.8313 27.2693 55.3459 27.792C54.8606 28.3053 54.4499 28.8887 54.1139 29.542C53.7779 30.1953 53.6099 30.7133 53.6099 31.096C53.6099 31.2547 53.6753 31.3853 53.8059 31.488C53.9366 31.5813 54.0906 31.628 54.2679 31.628C54.7066 31.628 55.2013 31.334 55.7519 30.746C56.3026 30.1487 56.6853 29.4253 56.8999 28.576C56.9279 28.436 57.0073 28.352 57.1379 28.324V28.31ZM60.1724 27.554L60.1304 26.504C60.1304 26.0653 60.2331 25.846 60.4384 25.846C60.6158 25.846 60.7838 25.9627 60.9424 26.196C61.1104 26.42 61.1944 26.6907 61.1944 27.008C61.1944 27.316 61.1851 27.5493 61.1664 27.708C61.9784 26.476 62.7484 25.86 63.4764 25.86C63.9338 25.86 64.1624 25.972 64.1624 26.196C64.1624 26.308 64.1111 26.4107 64.0084 26.504C63.9058 26.5973 63.7424 26.7047 63.5184 26.826C63.0238 27.0407 62.6038 27.372 62.2584 27.82C61.9224 28.2587 61.6471 28.758 61.4324 29.318C61.2178 29.878 61.0451 30.3493 60.9144 30.732C60.7931 31.1147 60.6998 31.4133 60.6344 31.628C60.5691 31.8427 60.4944 32.0527 60.4104 32.258C60.2611 32.6313 60.0884 32.818 59.8924 32.818C59.7338 32.818 59.6031 32.7293 59.5004 32.552C59.4071 32.3653 59.3604 32.188 59.3604 32.02C59.3604 31.8427 59.4398 31.4973 59.5984 30.984C59.9811 29.808 60.1724 28.6647 60.1724 27.554ZM65.7592 23.858C65.7592 23.6713 65.8339 23.494 65.9832 23.326C66.1325 23.158 66.2819 23.074 66.4312 23.074C66.5899 23.074 66.7765 23.2653 66.9912 23.648C67.2059 24.0213 67.3132 24.334 67.3132 24.586C67.3132 24.6793 67.2712 24.7633 67.1872 24.838C67.1032 24.9127 67.0145 24.95 66.9212 24.95C66.6972 24.95 66.4452 24.8147 66.1652 24.544C65.8945 24.2733 65.7592 24.0447 65.7592 23.858ZM65.6892 25.846C65.8665 25.846 66.0345 25.9533 66.1932 26.168C66.3519 26.3827 66.4312 26.5927 66.4312 26.798C66.4312 27.0033 66.2959 27.6193 66.0252 28.646C65.7545 29.6633 65.4139 30.8067 65.0032 32.076C64.8445 32.5427 64.6439 32.776 64.4012 32.776C64.2705 32.776 64.1585 32.7247 64.0652 32.622C63.9719 32.51 63.9252 32.3887 63.9252 32.258C63.9252 32.118 63.9579 31.9033 64.0232 31.614C64.0979 31.3153 64.2005 30.9233 64.3312 30.438C64.4712 29.9433 64.5785 29.542 64.6532 29.234C64.7372 28.926 64.8212 28.5807 64.9052 28.198C64.9892 27.806 65.0545 27.4933 65.1012 27.26C65.1572 27.0173 65.2179 26.7747 65.2832 26.532C65.4139 26.0747 65.5492 25.846 65.6892 25.846ZM68.8711 31.39C68.8711 31.5673 68.9738 31.656 69.1791 31.656C69.5338 31.656 69.9631 31.558 70.4671 31.362C70.9805 31.1567 71.2651 31.054 71.3211 31.054C71.4891 31.054 71.5731 31.1427 71.5731 31.32C71.5731 31.5907 71.2931 31.9033 70.7331 32.258C70.1825 32.6127 69.6785 32.79 69.2211 32.79C68.7731 32.79 68.3998 32.6687 68.1011 32.426C67.8025 32.174 67.6531 31.9173 67.6531 31.656C67.6531 31.3947 67.7091 31.0633 67.8211 30.662C67.9331 30.2513 68.0918 29.7147 68.2971 29.052C68.5118 28.38 68.6798 27.8247 68.8011 27.386C68.3625 27.4887 68.0685 27.54 67.9191 27.54C67.7698 27.54 67.6205 27.4653 67.4711 27.316C67.3311 27.1573 67.2611 27.008 67.2611 26.868C67.2611 26.644 67.8678 26.4293 69.0811 26.224C69.2491 25.4493 69.3331 24.7633 69.3331 24.166C69.3331 23.886 69.4265 23.746 69.6131 23.746C69.7718 23.746 69.9678 23.8487 70.2011 24.054C70.4345 24.25 70.5511 24.474 70.5511 24.726C70.5511 24.978 70.4718 25.4213 70.3131 26.056C70.8451 26.0093 71.2698 25.986 71.5871 25.986C72.1471 25.986 72.4271 26.1073 72.4271 26.35C72.4271 26.49 72.2731 26.6067 71.9651 26.7C71.6665 26.7933 71.0318 26.938 70.0611 27.134C69.8651 27.8713 69.6178 28.716 69.3191 29.668C69.0205 30.6107 68.8711 31.1847 68.8711 31.39ZM78.1912 25.846C78.3405 25.846 78.4992 25.958 78.6672 26.182C78.8445 26.3967 78.9332 26.6393 78.9332 26.91C78.9332 27.0967 78.7419 27.7313 78.3592 28.814C77.9765 29.8967 77.7152 30.634 77.5752 31.026C77.4445 31.4087 77.2625 31.922 77.0292 32.566C76.8052 33.2007 76.5859 33.8213 76.3712 34.428C75.9045 35.7627 75.2045 36.43 74.2712 36.43C73.7392 36.43 73.2305 36.2667 72.7452 35.94C72.2599 35.6227 72.0172 35.2913 72.0172 34.946C72.0172 34.8153 72.0779 34.6707 72.1992 34.512C72.3112 34.3533 72.4092 34.274 72.4932 34.274C72.5772 34.274 72.7125 34.3767 72.8992 34.582C73.4405 35.198 73.9025 35.506 74.2852 35.506C74.5745 35.506 74.8359 35.2493 75.0692 34.736C75.3025 34.232 75.5219 33.658 75.7272 33.014C75.9419 32.3793 76.0585 32.0293 76.0772 31.964C76.1052 31.8987 76.1332 31.8147 76.1612 31.712C76.1985 31.6093 76.2312 31.516 76.2592 31.432C75.5965 32.3373 74.9432 32.79 74.2992 32.79C73.9072 32.79 73.5432 32.608 73.2072 32.244C72.8805 31.88 72.7172 31.4507 72.7172 30.956C72.7172 30.4613 72.8385 29.794 73.0812 28.954C73.3239 28.114 73.6085 27.386 73.9352 26.77C74.2619 26.154 74.5279 25.846 74.7332 25.846C74.9012 25.846 75.0552 25.9253 75.1952 26.084C75.3445 26.2333 75.4192 26.3873 75.4192 26.546C75.4192 26.7047 75.2979 27.036 75.0552 27.54C74.2992 29.0893 73.9212 30.2933 73.9212 31.152C73.9212 31.3013 73.9679 31.4273 74.0612 31.53C74.1545 31.6233 74.2665 31.67 74.3972 31.67C74.7332 31.67 75.1345 31.3713 75.6012 30.774C76.0679 30.1767 76.4972 29.4673 76.8892 28.646C77.2159 27.9553 77.5565 27.0733 77.9112 26C77.9485 25.8973 78.0419 25.846 78.1912 25.846Z" fill="#1C1B1A"/>
<path d="M82 24C102 32 114 32 122 28L82 24Z" fill="black"/>
<path d="M122 28L116 24V34L122 28Z" fill="#1C1B1A"/>
</svg>
