<svg width="170" height="192" viewBox="0 0 170 192" fill="none" xmlns="http://www.w3.org/2000/svg">
<mask id="mask0_65_23" style="mask-type:alpha" maskUnits="userSpaceOnUse" x="26" y="34" width="117" height="140">
<path d="M85.0363 146.355C89.7817 146.592 96.4373 148.064 101.889 151.942C107.864 156.194 112.184 163.224 111.065 173.723L107.593 173.353L104.12 172.982C104.955 165.149 101.89 160.514 97.84 157.633C93.7504 154.723 88.4714 153.515 84.6671 153.33C80.8629 153.515 75.5844 154.724 71.4953 157.633C67.4451 160.514 64.3802 165.149 65.215 172.982L61.7423 173.353L58.2707 173.723C57.1518 163.224 61.4711 156.194 67.4464 151.942C72.8976 148.064 79.5526 146.592 84.298 146.355L84.299 146.326C84.4202 146.329 84.543 146.336 84.6671 146.341C84.7917 146.336 84.9147 146.329 85.0363 146.326V146.355ZM109.754 61.8213C120.939 61.8217 130.007 70.8893 130.007 82.0742C130.007 88.785 126.741 94.7317 121.714 98.417C123.163 98.8424 124.603 99.31 125.993 99.8301C132.63 102.312 139.719 106.505 141.447 114.336C142.869 120.775 142.93 130.104 142.688 137.538C142.565 141.314 142.358 144.709 142.183 147.159C142.095 148.385 142.015 149.377 141.956 150.064C141.927 150.408 141.904 150.677 141.887 150.86C141.879 150.952 141.872 151.023 141.867 151.071C141.865 151.095 141.863 151.114 141.861 151.127C141.861 151.133 141.861 151.138 141.861 151.142C141.86 151.143 141.86 151.145 141.86 151.146V151.148C141.675 153.068 139.969 154.474 138.05 154.29C136.19 154.111 134.812 152.505 134.896 150.659L134.908 150.48V150.479C134.909 150.476 134.909 150.472 134.909 150.468C134.91 150.458 134.911 150.441 134.913 150.42C134.917 150.378 134.923 150.313 134.931 150.229C134.946 150.058 134.969 149.802 134.997 149.473C135.053 148.813 135.132 147.851 135.217 146.66C135.388 144.275 135.589 140.974 135.708 137.311C135.951 129.864 135.839 121.331 134.627 115.841C133.722 111.743 129.809 108.713 123.547 106.371C119.634 104.908 115.406 103.923 111.453 103.083C111.174 103.228 110.871 103.34 110.548 103.407C108.595 103.813 104.043 104.865 99.5509 106.817C95.7119 108.486 92.4912 110.571 90.6701 113C96.9416 115.538 101.366 121.685 101.366 128.866C101.366 138.316 93.7057 145.977 84.256 145.977C74.8064 145.976 67.1457 138.316 67.1457 128.866C67.1459 119.732 74.3035 112.27 83.3156 111.781C83.3281 111.752 83.3413 111.722 83.3546 111.693C85.932 106.091 91.7975 102.573 96.7658 100.413C97.6034 100.049 98.4402 99.7142 99.2628 99.4053C93.4072 95.8554 89.4943 89.4219 89.4943 82.0742C89.4946 70.8892 98.5621 61.8215 109.747 61.8213H109.754ZM64.3517 34.9346C75.537 34.9346 84.6045 44.0023 84.6046 55.1875C84.6044 65.3045 77.1862 73.6881 67.4923 75.1973C61.8789 76.6098 54.5181 77.7332 47.6779 80.2568C40.7319 82.8195 36.2452 86.1988 35.3029 90.958C34.0552 97.262 33.766 106.944 33.9591 116.715C34.1507 126.405 34.808 135.886 35.3537 141.63C35.536 143.55 34.1279 145.254 32.2082 145.437C30.2885 145.619 28.5841 144.211 28.4015 142.291C27.8415 136.396 27.1722 126.739 26.9767 116.853C26.7829 107.046 27.0462 96.7071 28.4523 89.6025C30.1642 80.9536 37.9868 76.3888 45.2609 73.7051C47.5494 72.8608 49.9732 72.1401 52.3664 71.5127C47.3533 67.8261 44.0989 61.8873 44.0988 55.1875C44.0989 44.0024 53.1666 34.9348 64.3517 34.9346ZM84.256 118.74C78.6636 118.74 74.1303 123.274 74.13 128.866C74.13 134.459 78.6635 138.993 84.256 138.993C89.8487 138.993 94.383 134.459 94.383 128.866C94.3827 123.274 89.8485 118.74 84.256 118.74ZM109.75 68.8057C102.424 68.8076 96.4848 74.7473 96.4845 82.0742C96.4845 88.1324 100.544 93.2426 106.092 94.832C106.256 94.8455 106.422 94.8705 106.588 94.9082C107.07 95.0181 107.584 95.129 108.123 95.2441C108.656 95.3095 109.199 95.3426 109.75 95.3428C117.077 95.341 123.017 89.4015 123.017 82.0742C123.016 74.7472 117.077 68.8075 109.75 68.8057ZM64.3517 41.9189C57.0237 41.9192 51.0833 47.8594 51.0832 55.1875C51.0834 62.5155 57.0237 68.4568 64.3517 68.457C71.6799 68.457 77.621 62.5156 77.6212 55.1875C77.6211 47.8593 71.68 41.9189 64.3517 41.9189Z" fill="#CFE3AD"/>
</mask>
<g mask="url(#mask0_65_23)">
<path d="M15.4665 31.582V101.282C15.4665 101.358 15.4636 101.434 15.4587 101.51C14.9961 108.604 18.1306 127.63 35.2604 143.033C52.1354 158.207 74.0876 171.008 84.4919 176.168C94.7455 171.126 117.008 158.206 134.076 142.858C151.206 127.455 154.34 108.43 153.878 101.335C153.873 101.259 153.87 101.183 153.87 101.107V31.4111L84.862 15.0273L15.4665 31.582Z" fill="#CFE3AD"/>
</g>
<path d="M83.439 0.00585938C83.8274 -0.0157672 84.2099 0.0204085 84.5767 0.107422L165.973 18.9551C167.786 19.3751 169.071 20.9904 169.071 22.8516V101.761C169.677 111.715 165.352 134.77 144.28 153.251C123.766 171.243 97.0302 186.134 85.7329 191.384C85.0628 191.695 84.3504 191.805 83.6646 191.738C82.9651 191.807 82.2381 191.693 81.5571 191.369C70.5021 186.115 44.3527 171.218 24.2886 153.221C3.67452 134.73 -0.539107 111.686 0.0522461 101.766V22.8516C0.0524747 20.9978 1.32653 19.3863 3.13037 18.959L82.7349 0.107422C82.7413 0.105897 82.748 0.104031 82.7544 0.102539C82.8583 0.0784209 82.9636 0.0597147 83.0698 0.0439453C83.0995 0.0395048 83.129 0.0340321 83.1587 0.0302734C83.1917 0.0261258 83.2251 0.0238293 83.2583 0.0205078C83.2864 0.0176635 83.3143 0.0139614 83.3423 0.0117188C83.3744 0.00919628 83.4067 0.00760174 83.439 0.00585938ZM8.05225 26.0146V101.876C8.05225 101.963 8.04912 102.051 8.04346 102.138C7.54131 109.82 10.9493 130.509 29.6304 147.266C48.2061 163.928 72.4196 177.968 83.6763 183.505C95.1832 177.974 119.983 163.919 139.004 147.236C158.121 130.47 161.591 109.792 161.08 102.144C161.074 102.055 161.071 101.965 161.071 101.876V26.0312L83.6675 8.10742L8.05225 26.0146Z" fill="#CFE3AD"/>
</svg>
