<svg width="1400" height="1100" viewBox="0 0 1400 1100" fill="none" xmlns="http://www.w3.org/2000/svg">
  <defs>
    <linearGradient id="bg" x1="94" y1="72" x2="1278" y2="1016" gradientUnits="userSpaceOnUse">
      <stop stop-color="#EEF7FF"/>
      <stop offset="0.36" stop-color="#F6F0FF"/>
      <stop offset="0.7" stop-color="#FFF5EC"/>
      <stop offset="1" stop-color="#FFFDF8"/>
    </linearGradient>
    <linearGradient id="panel" x1="190" y1="156" x2="1172" y2="930" gradientUnits="userSpaceOnUse">
      <stop stop-color="#FFFFFF" stop-opacity="0.96"/>
      <stop offset="1" stop-color="#F8FBFF" stop-opacity="0.88"/>
    </linearGradient>
    <filter id="shadow" x="102" y="94" width="1196" height="926" filterUnits="userSpaceOnUse" color-interpolation-filters="sRGB">
      <feFlood flood-opacity="0" result="BackgroundImageFix"/>
      <feColorMatrix in="SourceAlpha" type="matrix" values="0 0 0 0 0 0 0 0 0 0 0 0 0 0 0 0 0 0 127 0" result="hardAlpha"/>
      <feOffset dy="30"/>
      <feGaussianBlur stdDeviation="36"/>
      <feColorMatrix type="matrix" values="0 0 0 0 0.139583 0 0 0 0 0.213972 0 0 0 0 0.365833 0 0 0 0.14 0"/>
      <feBlend mode="normal" in2="BackgroundImageFix" result="effect1_dropShadow_1_1"/>
      <feBlend mode="normal" in="SourceGraphic" in2="effect1_dropShadow_1_1" result="shape"/>
    </filter>
    <clipPath id="shot">
      <rect x="76" y="168" width="1248" height="764" rx="38"/>
    </clipPath>
  </defs>

  <rect width="1400" height="1100" rx="56" fill="url(#bg)"/>
  <circle cx="184" cy="174" r="126" fill="#DCEEFF"/>
  <circle cx="1180" cy="182" r="152" fill="#FFE2BB"/>
  <circle cx="1124" cy="886" r="176" fill="#D8F2E8"/>

  <g filter="url(#shadow)">
    <rect x="174" y="164" width="1052" height="782" rx="44" fill="url(#panel)"/>
    <rect x="174.5" y="164.5" width="1051" height="781" rx="43.5" stroke="#DDE7F3"/>

    <g clip-path="url(#shot)">
      <rect x="76" y="168" width="1248" height="764" rx="38" fill="#F8FBFE"/>
      <image href="../banners/page-3.svg" x="24" y="-40" width="1300" height="2561.39" preserveAspectRatio="xMidYMin slice"/>
    </g>
    <rect x="76.5" y="168.5" width="1247" height="763" rx="37.5" stroke="#D9E5F2"/>

    <rect x="130" y="204" width="160" height="42" rx="21" fill="#FFFFFF" fill-opacity="0.92"/>
    <rect x="304" y="204" width="188" height="42" rx="21" fill="#EAF4FF" fill-opacity="0.92"/>
    <circle cx="160" cy="225" r="8" fill="#FF6257"/>
    <circle cx="186" cy="225" r="8" fill="#FFBD2F"/>
    <circle cx="212" cy="225" r="8" fill="#28C840"/>
    <text x="336" y="230" fill="#1183D0" font-family="Arial, sans-serif" font-size="16" font-weight="700" letter-spacing="1.6">LANDING AFTER</text>
  </g>
</svg>
