<svg width="1280" height="2520" viewBox="0 0 1280 2520" fill="none" xmlns="http://www.w3.org/2000/svg">
  <rect width="1280" height="2520" fill="#F5F7FA"/>
  <rect x="56" y="32" width="1168" height="2456" rx="28" fill="white" stroke="#D8E0EA"/>
  <rect x="56" y="32" width="1168" height="56" rx="28" fill="#EEF3F8"/>
  <circle cx="96" cy="60" r="8" fill="#FF6B6B"/>
  <circle cx="124" cy="60" r="8" fill="#FFC857"/>
  <circle cx="152" cy="60" r="8" fill="#56D364"/>
  <rect x="204" y="46" width="308" height="28" rx="14" fill="white" stroke="#D8E0EA"/>
  <text x="228" y="65" fill="#7A8699" font-family="Arial, sans-serif" font-size="14">zapiano.com/einfuhrungskurs</text>

  <rect x="96" y="120" width="1088" height="520" rx="28" fill="url(#heroGradient)"/>
  <rect x="726" y="172" width="392" height="412" rx="28" fill="white" fill-opacity="0.9"/>
  <rect x="754" y="206" width="336" height="190" rx="22" fill="#E7EEF6"/>
  <rect x="782" y="232" width="132" height="132" rx="20" fill="#D8A37A"/>
  <rect x="930" y="248" width="120" height="18" rx="9" fill="#D6E4F2"/>
  <rect x="930" y="278" width="104" height="14" rx="7" fill="#D6E4F2"/>
  <rect x="930" y="310" width="140" height="14" rx="7" fill="#D6E4F2"/>
  <rect x="782" y="420" width="132" height="118" rx="20" fill="#F3F7FB"/>
  <rect x="930" y="420" width="160" height="118" rx="20" fill="#F3F7FB"/>
  <text x="118" y="188" fill="#0E2951" font-family="Arial, sans-serif" font-size="16" font-weight="700" letter-spacing="2">EINFÜHRUNGSKURS</text>
  <text x="118" y="272" fill="#0E2951" font-family="Georgia, serif" font-size="58" font-style="italic">Klavier lernen mit</text>
  <text x="118" y="338" fill="#0E2951" font-family="Georgia, serif" font-size="58" font-style="italic">Struktur statt Lärm.</text>
  <text x="118" y="390" fill="#5C7792" font-family="Arial, sans-serif" font-size="22">Ein klarer €9-Einstieg für Erwachsene, ob Anfänger oder Wiedereinsteiger,</text>
  <text x="118" y="422" fill="#5C7792" font-family="Arial, sans-serif" font-size="22">geführt von Sven Haefliger und reduziert auf einen klaren nächsten Schritt.</text>
  <rect x="118" y="470" width="220" height="58" rx="29" fill="#1183D0"/>
  <text x="164" y="506" fill="white" font-family="Arial, sans-serif" font-size="22" font-weight="700">Jetzt für €9 starten</text>
  <rect x="356" y="470" width="190" height="58" rx="29" fill="white" stroke="#BFD4E7"/>
  <text x="395" y="506" fill="#0E2951" font-family="Arial, sans-serif" font-size="22" font-weight="700">Kurs ansehen</text>
  <rect x="118" y="560" width="250" height="42" rx="21" fill="white" fill-opacity="0.78"/>
  <text x="142" y="586" fill="#0E2951" font-family="Arial, sans-serif" font-size="18" font-weight="700">4.9★ von erwachsenen Lernenden</text>

  <text x="96" y="712" fill="#0E2951" font-family="Georgia, serif" font-size="40" font-style="italic">Wähle den Weg, der zu deinem Ziel passt</text>
  <rect x="96" y="760" width="524" height="232" rx="28" fill="#F6FAFD" stroke="#D7E8F7"/>
  <rect x="660" y="760" width="524" height="232" rx="28" fill="#F6FAFD" stroke="#D7E8F7"/>
  <text x="134" y="816" fill="#1183D0" font-family="Arial, sans-serif" font-size="15" font-weight="700" letter-spacing="1.5">FÜR ANFÄNGER</text>
  <text x="134" y="862" fill="#0E2951" font-family="Arial, sans-serif" font-size="34" font-weight="700">Du beginnst bei null</text>
  <text x="134" y="906" fill="#5C7792" font-family="Arial, sans-serif" font-size="20">Klare erste Übungen, kurze tägliche Praxis</text>
  <text x="134" y="936" fill="#5C7792" font-family="Arial, sans-serif" font-size="20">und kleine Erfolgsmomente von Anfang an.</text>
  <rect x="134" y="956" width="164" height="44" rx="22" fill="#E8F4FD"/>
  <text x="160" y="984" fill="#1183D0" font-family="Arial, sans-serif" font-size="18" font-weight="700">Anfängerpfad ansehen</text>
  <text x="698" y="816" fill="#1183D0" font-family="Arial, sans-serif" font-size="15" font-weight="700" letter-spacing="1.5">FÜR WIEDEREINSTEIGER</text>
  <text x="698" y="862" fill="#0E2951" font-family="Arial, sans-serif" font-size="34" font-weight="700">Du kommst zurück ans Klavier</text>
  <text x="698" y="906" fill="#5C7792" font-family="Arial, sans-serif" font-size="20">Technik auffrischen, Routine zurückgewinnen</text>
  <text x="698" y="936" fill="#5C7792" font-family="Arial, sans-serif" font-size="20">und mit strukturierten Lektionen weitergehen.</text>
  <rect x="698" y="956" width="162" height="44" rx="22" fill="#E8F4FD"/>
  <text x="716" y="984" fill="#1183D0" font-family="Arial, sans-serif" font-size="18" font-weight="700">Wiedereinstieg ansehen</text>

  <rect x="96" y="1050" width="1088" height="236" rx="28" fill="#FFF8EC" stroke="#F2DDB1"/>
  <text x="132" y="1110" fill="#8B5E16" font-family="Arial, sans-serif" font-size="15" font-weight="700" letter-spacing="1.5">MIT SVEN HAEFLIGER</text>
  <text x="132" y="1160" fill="#0E2951" font-family="Georgia, serif" font-size="42" font-style="italic">Lerne direkt mit Sven Haefliger</text>
  <text x="132" y="1205" fill="#5C7792" font-family="Arial, sans-serif" font-size="20">Seit über 25 Jahren unterrichtet er Erwachsene mit einer Methode,</text>
  <text x="132" y="1235" fill="#5C7792" font-family="Arial, sans-serif" font-size="20">die auf Fortschritt, Routine und musikalische Tiefe setzt.</text>
  <rect x="912" y="1086" width="218" height="146" rx="24" fill="#F6E3D3"/>
  <circle cx="1021" cy="1140" r="42" fill="#C98E69"/>
  <rect x="964" y="1194" width="116" height="12" rx="6" fill="#D9C6B6"/>

  <text x="96" y="1360" fill="#0E2951" font-family="Georgia, serif" font-size="40" font-style="italic">So sieht das Lernerlebnis aus</text>
  <rect x="96" y="1408" width="1088" height="370" rx="30" fill="#F7FAFC" stroke="#D7E8F7"/>
  <rect x="134" y="1452" width="284" height="286" rx="24" fill="#EAF2FA"/>
  <rect x="452" y="1452" width="284" height="286" rx="24" fill="#EAF2FA"/>
  <rect x="770" y="1452" width="376" height="286" rx="24" fill="#0E2951"/>
  <rect x="164" y="1484" width="224" height="148" rx="18" fill="#D1E2F2"/>
  <rect x="484" y="1484" width="220" height="148" rx="18" fill="#D1E2F2"/>
  <rect x="808" y="1492" width="300" height="18" rx="9" fill="#93B5D3"/>
  <rect x="808" y="1526" width="252" height="14" rx="7" fill="#93B5D3"/>
  <rect x="808" y="1570" width="112" height="112" rx="20" fill="#1F4E7E"/>
  <rect x="942" y="1570" width="166" height="112" rx="20" fill="#14406A"/>
  <text x="164" y="1680" fill="#0E2951" font-family="Arial, sans-serif" font-size="18" font-weight="700">Lektionsvorschau</text>
  <text x="484" y="1680" fill="#0E2951" font-family="Arial, sans-serif" font-size="18" font-weight="700">Übungsstruktur</text>
  <text x="808" y="1710" fill="white" font-family="Arial, sans-serif" font-size="18" font-weight="700">App + Mitgliederbereich</text>

  <text x="96" y="1850" fill="#0E2951" font-family="Georgia, serif" font-size="40" font-style="italic">Gemeinschaft zuerst, Preis später</text>
  <rect x="96" y="1898" width="1088" height="268" rx="28" fill="#F8FBFF" stroke="#D7E8F7"/>
  <rect x="134" y="1942" width="300" height="180" rx="22" fill="white" stroke="#DDE7F1"/>
  <rect x="490" y="1942" width="300" height="180" rx="22" fill="white" stroke="#DDE7F1"/>
  <rect x="846" y="1942" width="300" height="180" rx="22" fill="white" stroke="#DDE7F1"/>
  <text x="164" y="1990" fill="#0E2951" font-family="Arial, sans-serif" font-size="18" font-weight="700">„Ich bin endlich drangeblieben.“</text>
  <text x="164" y="2030" fill="#5C7792" font-family="Arial, sans-serif" font-size="18">Anfängerin, Zürich</text>
  <text x="520" y="1990" fill="#0E2951" font-family="Arial, sans-serif" font-size="18" font-weight="700">„Die App macht Fortschritt sichtbar.“</text>
  <text x="520" y="2030" fill="#5C7792" font-family="Arial, sans-serif" font-size="18">Wiedereinsteiger, Hamburg</text>
  <text x="876" y="1990" fill="#0E2951" font-family="Arial, sans-serif" font-size="18" font-weight="700">„Die Struktur war sofort klar.“</text>
  <text x="876" y="2030" fill="#5C7792" font-family="Arial, sans-serif" font-size="18">Erwachsener Lernender, Amsterdam</text>

  <rect x="96" y="2218" width="1088" height="198" rx="28" fill="#0E2951"/>
  <text x="132" y="2290" fill="white" font-family="Georgia, serif" font-size="42" font-style="italic">Ein klarer nächster Schritt</text>
  <text x="132" y="2336" fill="#C4D6E8" font-family="Arial, sans-serif" font-size="20">Jetzt mit dem €9-Einführungskurs starten. PianoStarter erst nach dem ersten Erfolg.</text>
  <rect x="842" y="2272" width="236" height="64" rx="32" fill="#1183D0"/>
  <text x="884" y="2311" fill="white" font-family="Arial, sans-serif" font-size="24" font-weight="700">Für €9 starten</text>
  <rect x="108" y="2390" width="220" height="18" rx="9" fill="#264D74"/>

  <defs>
    <linearGradient id="heroGradient" x1="96" y1="120" x2="1184" y2="640" gradientUnits="userSpaceOnUse">
      <stop stop-color="#F4E9D9"/>
      <stop offset="0.52" stop-color="#F2EDF6"/>
      <stop offset="1" stop-color="#EAF1F7"/>
    </linearGradient>
  </defs>
</svg>
