<svg role="img" viewBox="0 0 24 24" xmlns="http://www.w3.org/2000/svg">
  <rect width="24" height="24" rx="5" fill="#111827"/>
  <g fill="none" stroke="#FFFFFF" stroke-width="1.45" stroke-linecap="round" stroke-linejoin="round">
    <path d="M12 4.4a4.2 4.2 0 0 1 4.1 3.3l2.5 1.4a4.1 4.1 0 0 1-1.3 6.8 4.2 4.2 0 0 1-5.3 3.6 4.2 4.2 0 0 1-4.1-3.3l-2.5-1.4a4.1 4.1 0 0 1 1.3-6.8A4.2 4.2 0 0 1 12 4.4Z"/>
    <path d="m8 8.2 4.3-2.5 3.8 2.2v4.8"/>
    <path d="m16.3 8.3 3.1 1.8v4.4l-3.9 2.3-4.2-2.4"/>
    <path d="m16 16.9-.1 3.6-3.8 2.2-3.8-2.2v-4.8"/>
    <path d="m7.7 16.1-3.1-1.8V9.9l3.9-2.3 4.2 2.4"/>
    <path d="m8 7.1.1-3.6 3.8-2.2 3.8 2.2v4.8" opacity=".0"/>
    <path d="m8.4 12 3.6-2.1 3.6 2.1v4.1L12 18.2l-3.6-2.1V12Z"/>
  </g>
</svg>
